<svg width="24" height="24" viewBox="0 0 24 24" fill="none" xmlns="http://www.w3.org/2000/svg">
<path d="M20.469 7.54639C20.19 7.21639 19.77 7.02539 19.331 7.02539H17.027H17.001H7.00101H6.97301H4.67101C4.23101 7.02539 3.81101 7.21639 3.53101 7.54639C3.24101 7.87739 3.12001 8.31639 3.18001 8.74739L4.87001 20.7774C4.99001 21.4974 5.60901 22.0274 6.35001 22.0274H17.65C18.389 22.0274 19.009 21.4974 19.139 20.7564L20.82 8.75639C20.879 8.31639 20.759 7.87739 20.469 7.54639ZM18.15 20.6074C18.11 20.8464 17.9 21.0274 17.65 21.0274H6.35001C6.10001 21.0274 5.89001 20.8454 5.85001 20.6264L4.17101 8.60739C4.15101 8.45739 4.19001 8.31539 4.29001 8.19539C4.37901 8.08539 4.52101 8.02539 4.67101 8.02539H6.97301H7.00101H17.001H17.027H19.331C19.481 8.02539 19.62 8.08539 19.71 8.19539C19.809 8.31539 19.85 8.45739 19.831 8.60739L18.15 20.6074Z" fill="black"/>
<path d="M6.93066 8.93086C6.93066 9.21086 7.15066 9.43086 7.43066 9.43086C7.71066 9.43086 7.93066 9.21086 7.93066 8.93086V7.93086V6.93086V6.88086C7.93066 4.68086 9.72066 2.88086 11.9307 2.88086C14.1407 2.88086 15.9307 4.68086 15.9307 6.88086V6.92686V6.93086V7.93086V8.93086C15.9307 9.21086 16.1507 9.43086 16.4307 9.43086C16.7107 9.43086 16.9307 9.21086 16.9307 8.93086V7.93086V6.93086V6.88086C16.9307 4.13086 14.6907 1.88086 11.9307 1.88086C9.17066 1.88086 6.93066 4.13086 6.93066 6.88086V6.93086V7.93086V8.93086Z" fill="black"/>
</svg>
