<svg width="50" height="50" viewBox="0 0 50 50" fill="none" xmlns="http://www.w3.org/2000/svg">
<path fill-rule="evenodd" clip-rule="evenodd" d="M29.7651 9.2005L31.8798 8.67218C33.4895 8.27001 34.9778 9.69838 34.6152 11.3341L33.4281 16.6725C34.7646 16.0446 36.1519 16.9253 36.4124 17.7988L36.7213 18.824L40.3693 18.5963C41.7556 18.4619 42.9762 19.6264 42.8166 21.0765L42.5914 24.6941L43.8646 25.1127C45.3935 25.786 45.322 28.0337 43.9144 28.9299L35.6071 34.3949L36.2708 36.0495C36.6038 36.8872 36.4081 37.837 35.7739 38.4712C35.1416 39.1035 34.1913 39.3055 33.3517 38.9676L25.842 35.9649L25.842 47.9506C25.8425 48.2528 25.7197 48.5263 25.522 48.724C25.3243 48.9217 25.0507 49.0445 24.7486 49.044C24.1449 49.0445 23.6552 48.5549 23.6552 47.9506L23.6552 35.9649L16.1431 38.97C14.3164 39.7004 12.4961 37.88 13.2264 36.0534L13.8887 34.3954L5.5698 28.9197C3.87461 27.8413 4.50347 25.4133 5.87964 25.003L6.90536 24.6936L6.67527 21.0248C6.60567 20.3954 6.84107 19.7279 7.32589 19.2431C7.81893 18.75 8.48841 18.5253 9.15933 18.5997L12.7754 18.8235L13.0848 17.7978C13.2985 17.0805 14.5775 15.9842 16.0687 16.6701L14.8825 11.3356C14.7123 10.5709 14.9941 9.75252 15.507 9.24159C16.0692 8.6949 16.8566 8.4827 17.6169 8.67169L19.7317 9.20002L22.9954 5.11938C23.9863 3.92158 25.6617 4.07433 26.5008 5.12035L29.7651 9.2005ZM32.0853 22.4662C31.4516 23.5321 29.8086 22.878 30.0764 21.6715L32.4802 10.8609L28.9346 11.6628L24.7931 6.48781L20.5636 11.6628L17.0876 10.7942L19.4218 21.6715C19.6853 22.8843 18.0452 23.5287 17.4129 22.4662L15.1483 18.6461L15.1179 18.6311L14.3706 21.1137L8.96936 20.7792L9.1951 26.2892L6.79418 27.0119L16.5835 33.55L15.2581 36.865L23.6547 33.5969C23.6547 33.5969 24.2617 32.9966 24.7487 32.9982C25.2378 32.9997 25.842 33.6089 25.842 33.6089L34.1667 36.9375L32.9118 33.55L42.7601 27.0293L40.2997 26.2878L40.6352 20.7812L35.1276 21.1157L34.4045 18.7162L32.0853 22.4662Z" fill="white"/>
<path d="M32.0853 22.4662C31.4516 23.5321 29.8086 22.878 30.0764 21.6715L32.4802 10.8609L28.9346 11.6628L24.7931 6.48781L20.5636 11.6628L17.0876 10.7942L19.4218 21.6715C19.6853 22.8843 18.0452 23.5287 17.4129 22.4662L15.1483 18.6461L15.1179 18.6311L14.3706 21.1137L8.96936 20.7792L9.1951 26.2892L6.79418 27.0119L16.5835 33.55L15.2581 36.865L23.6547 33.5969L23.6552 18.5625C23.6552 17.9583 24.1444 17.4691 24.7486 17.4691C25.3523 17.4686 25.842 17.9583 25.842 18.5625L25.842 33.6089L34.1667 36.9375L32.9118 33.55L42.7601 27.0293L40.2997 26.2878L40.6352 20.7812L35.1276 21.1157L34.4045 18.7162L32.0853 22.4662Z" fill="white"/>
<path d="M25.842 33.6089L25.842 18.5625C25.842 17.9583 25.3523 17.4686 24.7486 17.4691C24.1444 17.4691 23.6552 17.9583 23.6552 18.5625L23.6547 33.5969C23.6547 33.5969 24.2617 32.9966 24.7487 32.9982C25.2378 32.9997 25.842 33.6089 25.842 33.6089Z" fill="white"/>
</svg>
