<svg width="100" height="47" viewBox="0 0 100 47" fill="none" xmlns="http://www.w3.org/2000/svg">
<g clip-path="url(#clip0)">
<path d="M15.1423 33.5516C14.9642 33.7796 14.6562 33.7045 14.2184 33.3261L13.5404 32.7403L12.8625 32.1545C12.5094 31.8493 12.0267 31.4754 11.4145 31.0326C10.7259 30.5361 10.2615 30.1841 10.0214 29.9766L9.38191 29.387C9.20273 29.2075 8.99309 29.0141 8.75298 28.8066C8.8218 28.9153 9.21429 29.4578 9.93043 30.4339C10.6183 31.3856 11.2369 32.2898 11.7862 33.1463C12.313 33.9711 12.5218 34.4534 12.4126 34.5932C12.3035 34.7329 12.1756 34.8134 12.029 34.8345C11.881 34.8422 11.7364 34.785 11.5952 34.663C11.2845 34.3945 10.5208 33.9563 9.30409 33.3485C8.09316 32.7333 7.08307 32.2546 6.27383 31.9126L7.41912 33.0132C8.38302 33.9447 9.1918 34.7113 9.84545 35.3131C10.4837 35.8893 10.9228 36.2811 11.1629 36.4886C11.2194 36.5374 11.2753 36.5795 11.3304 36.6149L11.4787 36.743C11.5988 36.8467 11.667 36.9488 11.6832 37.0491C11.7066 37.1555 11.6637 37.2786 11.5545 37.4183C11.4971 37.4919 11.4142 37.5374 11.306 37.5547C11.2049 37.5782 11.1226 37.5625 11.059 37.5076C10.3387 36.8851 9.30129 35.8963 7.94682 34.5411C6.59236 33.1858 5.55497 32.197 4.83465 31.5745C4.73662 31.5637 4.65229 31.5278 4.58167 31.4668C4.49693 31.3936 4.46497 31.2982 4.48579 31.1807C4.5053 31.0497 4.56101 30.9254 4.65293 30.8077C4.72762 30.712 5.19741 30.8223 6.06231 31.1385C6.92721 31.4547 7.88038 31.8471 8.92183 32.3159C9.96328 32.7846 10.6999 33.1439 11.1316 33.3938C10.9869 33.1702 10.8477 32.9698 10.714 32.7927L10.5115 32.5068C9.70663 31.4171 8.99713 30.4097 8.38297 29.4848C8.00485 28.9239 7.72979 28.4583 7.55778 28.0879C7.36459 27.6992 7.31108 27.4497 7.39725 27.3394C7.47768 27.2364 7.57774 27.1689 7.69744 27.1368C7.81581 27.0912 7.91737 27.1051 8.00211 27.1783C8.51057 27.6177 9.2905 28.2547 10.3419 29.0893C11.3284 29.8555 12.083 30.4644 12.6055 30.916L13.1584 31.4122L13.7025 31.9194C13.7873 31.9926 13.923 32.0914 14.1097 32.2158L14.5063 32.5031C14.5756 32.5507 14.628 32.5897 14.6633 32.6202C14.7043 32.6434 14.7284 32.658 14.7354 32.6641C14.856 32.7067 14.9374 32.7463 14.9798 32.7829C15.0998 32.8866 15.1771 33.0149 15.2114 33.1678C15.2458 33.3207 15.2227 33.4486 15.1423 33.5516Z" fill="#007577"/>
<path d="M17.9484 29.9443C17.7959 30.0955 17.6615 30.1829 17.545 30.2066C17.4285 30.2302 17.311 30.176 17.1927 30.044C17.0058 29.8355 16.6549 29.5139 16.1401 29.0793L15.9041 28.8998L14.7798 29.7195C14.8834 29.9187 15.1167 30.2978 15.48 30.8565C15.7455 31.2365 15.885 31.5248 15.8985 31.7214C15.9082 31.83 15.87 31.927 15.7838 32.0124C15.7043 32.0913 15.6096 32.1393 15.4997 32.1564C15.3836 32.1665 15.2913 32.1333 15.2228 32.0569L15.1959 31.9851L15.1685 31.9335C14.0047 29.7137 12.7567 27.6233 11.4245 25.6624C11.3996 25.6346 11.3624 25.5862 11.3129 25.5171C11.2573 25.441 11.1767 25.3371 11.0712 25.2055C10.8605 24.9286 10.6966 24.7039 10.5794 24.5313C10.4689 24.3521 10.4058 24.198 10.3903 24.069L10.7283 23.7338C10.8211 23.6417 10.9224 23.5872 11.0323 23.5701C11.1359 23.5461 11.2251 23.5758 11.2999 23.6592C11.7734 24.1873 12.5469 24.9036 13.6206 25.808C14.7126 26.7468 15.4517 27.4316 15.838 27.8625C15.8753 27.9042 15.9885 27.9955 16.1774 28.1364C16.3538 28.2634 16.4638 28.3512 16.5074 28.3998C16.551 28.4485 16.7711 28.6241 17.1675 28.9267C17.5262 29.2011 17.7492 29.387 17.8364 29.4843L17.8457 29.4947C17.9828 29.6476 18.017 29.7975 17.9484 29.9443ZM15.4981 28.5935C15.3847 28.509 15.2595 28.3903 15.1225 28.2374C14.5618 27.6119 13.7923 26.8653 12.814 25.9975L11.7427 25.012C12.9219 26.9278 13.8322 28.3552 14.4738 29.2943C14.6355 29.2652 14.9769 29.0316 15.4981 28.5935Z" fill="#007577"/>
<path d="M24.5973 24.9761C24.315 25.1583 24.0413 25.2628 23.7763 25.2896C23.6085 25.298 23.4964 25.2539 23.4399 25.1572C23.3835 25.0604 23.3623 24.9686 23.3765 24.8818C23.3859 24.787 23.4337 24.7117 23.52 24.656C23.5984 24.6054 23.7309 24.5643 23.9175 24.5326C24.1198 24.4908 24.2406 24.4572 24.2798 24.4319C24.4288 24.3358 24.5245 24.1852 24.5668 23.9803C24.6124 23.7623 24.6069 23.5216 24.5505 23.2584C24.4565 22.7642 24.3154 22.3559 24.1273 22.0334C23.925 21.6868 23.6585 21.3594 23.3277 21.0514C23 20.7302 22.6401 20.4465 22.2481 20.2001L21.8342 19.9346C21.403 19.6581 21.0643 19.4384 20.8181 19.2754C20.5798 19.1075 20.3414 18.9117 20.1031 18.6882C19.7597 18.3772 19.4822 18.0403 19.2706 17.6775C19.1012 17.3873 18.9884 17.0828 18.932 16.7641C18.8834 16.4403 18.9054 16.1265 18.998 15.8226C19.0811 15.5026 19.2678 15.2489 19.5579 15.0617C19.6991 14.9706 19.8622 14.9263 20.0472 14.9289C20.2276 14.9235 20.3828 14.9676 20.513 15.0611L20.4611 15.4441C20.2573 15.5757 20.0808 15.6341 19.9319 15.6193C19.8001 15.7266 19.717 15.8801 19.6824 16.0799C19.6511 16.2667 19.6549 16.4584 19.6941 16.655C19.7364 16.8386 19.8023 17.0069 19.8916 17.1601C20.0704 17.4664 20.293 17.7555 20.5595 18.0274C20.8292 18.2861 21.113 18.5135 21.4109 18.7097L23.222 19.8711C23.5246 20.0753 23.821 20.3335 24.111 20.6456C24.4011 20.9578 24.6519 21.2953 24.8636 21.658C25.174 22.1901 25.3401 22.7709 25.362 23.4005C25.3698 23.7284 25.3078 24.0292 25.176 24.3029C25.049 24.5847 24.856 24.8091 24.5973 24.9761Z" fill="#007577"/>
<path d="M29.0982 22.2218C28.9895 22.2758 28.872 22.2873 28.7457 22.2564C28.6277 22.2213 28.5396 22.1505 28.4815 22.044L28.3323 21.712L28.2176 21.4566C28.1748 21.3841 28.1304 21.2968 28.0845 21.1947C28.0042 21.0159 27.8692 20.7497 27.6797 20.3961L27.2873 19.5913C27.0999 19.1741 26.8332 18.5464 26.4872 17.7082C26.1878 16.9509 25.9252 16.3211 25.6995 15.8188C25.646 15.6996 25.5531 15.5271 25.4209 15.3012C25.2849 15.0667 25.192 14.8942 25.1423 14.7835C24.8707 14.1791 24.9104 13.7896 25.2614 13.6151C25.5372 13.478 25.8797 13.3754 26.2888 13.3074C26.7062 13.2353 26.9494 13.2758 27.0182 13.4291C27.0565 13.5142 27.0552 13.6138 27.0144 13.7278C26.9782 13.8291 26.9195 13.926 26.8383 14.0184C26.4299 14.0653 26.0741 14.138 25.7708 14.2367C25.8365 14.3603 25.923 14.5412 26.0301 14.7796C26.1831 15.1201 26.3166 15.4287 26.4307 15.7053C26.5892 16.1264 26.7144 16.4391 26.8062 16.6434L26.9357 16.829L27.1305 16.7165C27.1935 16.6748 27.2752 16.629 27.3755 16.5791C27.7766 16.3797 28.0308 16.3991 28.1379 16.6375C28.18 16.7312 28.1787 16.8307 28.1341 16.9362C28.0857 17.0332 28.0029 17.1108 27.8859 17.169C27.7355 17.2438 27.6147 17.2934 27.5234 17.3179L27.21 17.4738C27.3262 17.6868 27.4799 18.0061 27.6712 18.4318C27.8625 18.8575 28.0305 19.2427 28.1751 19.5873C28.3834 20.1191 28.5449 20.5127 28.6597 20.7681C28.8739 21.2449 28.9894 21.4791 29.0061 21.4708L29.4141 21.2523C29.5523 21.1732 29.7217 21.0837 29.9223 20.984C30.2399 20.8261 30.4446 20.8493 30.5364 21.0537C30.5899 21.1729 30.5758 21.2893 30.4939 21.4029C30.4242 21.5208 30.3142 21.6172 30.1637 21.692L29.0982 22.2218Z" fill="#007577"/>
<path d="M35.2049 19.6527C35.0119 19.7229 34.7956 19.7668 34.5559 19.7844C34.3279 19.8077 34.1452 19.8046 34.0079 19.7751C33.2949 19.6074 32.6588 18.6723 32.0996 16.9698L31.9816 16.6107L31.8462 16.1983L31.7413 15.8791C31.6248 15.5244 31.5258 15.208 31.4443 14.93C31.3599 14.643 31.2769 14.3307 31.1955 13.9931C31.1082 13.6377 31.0559 13.344 31.0386 13.1121C31.0185 12.8713 31.0246 12.5911 31.0571 12.2716C31.0779 11.9762 31.1396 11.7305 31.2421 11.5344C31.3534 11.3351 31.5159 11.1421 31.7294 10.9553C31.9167 10.7781 32.1726 10.6305 32.4972 10.5125C32.6288 10.4647 32.7398 10.4591 32.8304 10.4957C32.921 10.5322 32.9823 10.5993 33.0143 10.6968C33.0434 10.7855 33.0389 10.8764 33.0008 10.9697C32.9715 11.0598 32.9188 11.1236 32.8428 11.1611L32.2244 11.3859C32.0489 11.4496 31.9318 11.6163 31.873 11.8858C31.8143 12.1553 31.8168 12.4769 31.8807 12.8507C31.9822 13.5484 32.0999 14.1011 32.2339 14.509L32.2558 14.5755L32.6489 15.862C32.7566 16.2496 32.8891 16.6829 33.0463 17.1617C33.157 17.4987 33.2605 17.7688 33.3567 17.972C33.5054 18.2753 33.6673 18.5142 33.8425 18.6888C34.0264 18.8899 34.263 18.9975 34.5524 19.0115C34.7014 19.0168 34.8549 18.9908 35.0128 18.9335C35.1093 18.8984 35.1941 18.8279 35.2673 18.7218C35.3814 18.6804 35.4822 18.6735 35.5699 18.7012C35.6634 18.7169 35.7261 18.7735 35.7582 18.871C35.8718 19.2168 35.6873 19.4774 35.2049 19.6527Z" fill="#007577"/>
<path d="M40.1723 18.3402C39.9363 18.3967 39.7017 18.3713 39.4684 18.264C39.2372 18.1659 39.0303 18.0043 38.848 17.7793C38.4644 17.2858 38.1697 16.7183 37.9641 16.0767C37.7481 15.476 37.578 14.8883 37.4537 14.3136C37.43 14.2041 37.4148 14.1118 37.4081 14.0366L37.3548 13.7903C37.3449 13.7447 37.3354 13.723 37.3263 13.7252L37.273 13.4789L37.0794 12.5178C37.0253 12.2237 36.961 11.7498 36.8863 11.096C36.837 10.6473 36.8496 10.1981 36.9241 9.74849C36.9482 9.55084 37.0003 9.39444 37.0804 9.27932C37.1585 9.15507 37.2611 9.07774 37.3882 9.04731C37.7512 8.96039 38.0928 8.95058 38.4129 9.01787C38.731 9.07605 39.0155 9.19982 39.2665 9.38919C39.4974 9.57379 39.7129 9.81963 39.913 10.1267C40.1112 10.4247 40.2779 10.7542 40.4133 11.1152C40.5507 11.4853 40.6658 11.8847 40.7585 12.3134L40.7822 12.4229C40.8434 12.7057 40.9032 12.96 40.9616 13.1859L41.144 13.9626C41.7125 16.5898 41.3886 18.049 40.1723 18.3402ZM39.9935 17.7785C40.1569 17.7394 40.2928 17.6397 40.4013 17.4794C40.5079 17.3099 40.5728 17.1025 40.596 16.8571C40.6678 16.3505 40.6637 15.8238 40.5835 15.2769C40.5282 14.8008 40.4641 14.394 40.391 14.0565C40.3022 13.646 40.154 13.1154 39.9463 12.4647C39.7399 11.7753 39.5992 11.2573 39.5242 10.9107L39.4709 10.6644C39.3777 10.3221 39.1946 10.0493 38.9215 9.84601C38.6574 9.64056 38.3711 9.57478 38.0625 9.64867C37.7539 9.72255 37.5881 9.94933 37.5653 10.329C37.5357 10.6335 37.5693 11.0093 37.666 11.4563C37.7035 11.6296 37.7396 11.7744 37.7743 11.8909L37.8543 12.2603L37.9632 12.8963C37.9865 13.0922 38.0229 13.3042 38.0722 13.5322C38.1788 14.0248 38.298 14.5096 38.4299 14.9866C38.6142 15.662 38.8491 16.3062 39.1345 16.9191C39.4258 17.5594 39.7121 17.8459 39.9935 17.7785Z" fill="#007577"/>
<path d="M47.5322 17.0534C47.4209 17.0655 47.3346 17.0467 47.2735 16.997C47.2114 16.938 47.1592 16.8357 47.1168 16.6901L47.0073 16.4344L47.0046 16.4066L47.0005 16.3648C46.9704 16.0582 46.5478 15.048 45.7326 13.334C44.9266 11.6191 44.3008 10.354 43.8551 9.53868L44.5426 16.547L44.6079 16.6385C44.619 16.6561 44.6407 16.6866 44.6731 16.73C44.7055 16.7734 44.724 16.8184 44.7286 16.8648C44.7404 16.9856 44.7087 17.0923 44.6334 17.1849C44.558 17.2776 44.4601 17.3305 44.3395 17.3436C44.0425 17.3758 43.8663 17.1086 43.8107 16.542L43.563 14.1609C43.4836 13.4467 43.4006 12.6484 43.314 11.766C43.2849 11.4687 43.2564 11.0353 43.2287 10.4656C43.1991 9.87743 43.1707 9.44399 43.1433 9.16533C43.1005 8.72876 43.2338 8.36695 43.5432 8.0799L43.5514 8.1635C43.6053 8.13888 43.6415 8.12556 43.66 8.12355C43.8735 8.10038 44.179 8.44273 44.5766 9.15058C44.8948 9.71686 45.1882 10.3187 45.4571 10.956C45.7352 11.5924 46.1056 12.5003 46.5683 13.6799L46.7567 14.1664C47.0439 14.8956 47.2591 15.4167 47.4024 15.7297C47.392 13.7125 47.2534 11.3431 46.9864 8.62149L46.9686 8.44035C46.9539 8.38563 46.9433 8.32576 46.9369 8.26073C46.9096 7.98207 47.0073 7.83066 47.2299 7.80649C47.3599 7.79239 47.4623 7.8329 47.5373 7.92803C47.6215 8.02215 47.6714 8.14816 47.6869 8.30607L47.7894 9.35105C47.9112 10.7835 48.0077 12.3408 48.0789 14.0228C48.1501 15.7049 48.1313 16.6598 48.0223 16.8875C47.7605 16.991 47.5972 17.0463 47.5322 17.0534Z" fill="#007577"/>
<path d="M50.823 17.1076C50.5804 17.1029 50.4693 16.4892 50.4898 15.2667L50.5548 13.0556C50.5751 12.4025 50.592 11.6701 50.6056 10.8582C50.6106 10.5596 50.5903 10.0971 50.5448 9.47072C50.5095 8.78857 50.4932 8.37283 50.4957 8.22352C50.4977 8.1022 50.5508 7.9959 50.655 7.9046C50.7592 7.8133 50.872 7.76884 50.9933 7.77123C51.3199 7.77765 51.6312 7.85846 51.9274 8.01365C52.233 8.15969 52.5002 8.36565 52.7291 8.63154C53.2142 9.21053 53.5303 9.8422 53.6775 10.5266C53.7558 10.8735 53.792 11.2149 53.7864 11.5509C53.7844 11.6722 53.7778 11.7841 53.7668 11.8866L53.7465 12.2642L53.7336 13.0341C53.7236 13.6314 53.697 14.1023 53.6539 14.4468C53.5901 14.9123 53.4759 15.3255 53.3112 15.6863C53.118 16.0746 52.8415 16.4192 52.4817 16.7202C52.3114 16.8569 52.0945 16.9926 51.8308 17.1275L50.823 17.1076ZM51.4509 16.4059C51.6375 16.4095 51.8109 16.3663 51.9711 16.2761C52.1315 16.1765 52.269 16.0439 52.3838 15.8781C52.4796 15.7306 52.5667 15.5457 52.6451 15.3232C52.733 15.0915 52.7974 14.8687 52.8384 14.6548C52.9294 14.2365 52.9879 13.8083 53.0139 13.37C53.0251 13.2582 53.0325 13.095 53.0361 12.8804C53.0832 10.0621 52.5619 8.58157 51.4722 8.43877C51.3998 8.85743 51.3591 9.34205 51.3498 9.89264C51.34 10.4806 51.3601 11.5078 51.4103 12.9744C51.4539 14.2729 51.4693 15.3047 51.4565 16.0699L51.4509 16.4059Z" fill="#007577"/>
<path d="M56.3508 17.6438C56.2306 17.6276 56.1247 17.571 56.033 17.474C55.9506 17.3781 55.9121 17.2694 55.9175 17.1477L55.9614 16.7864L55.9951 16.5084C55.996 16.4238 56.0032 16.3259 56.0167 16.2147C56.0403 16.0201 56.0624 15.7218 56.0831 15.3196L56.1633 14.4264C56.2184 13.9724 56.3144 13.2979 56.4513 12.4029C56.5861 11.6018 56.6867 10.9279 56.7531 10.3813C56.7689 10.2516 56.7786 10.0551 56.7824 9.79196C56.7872 9.51954 56.797 9.3231 56.8116 9.20265C56.8915 8.54482 57.1257 8.24199 57.5142 8.29418C57.8194 8.33518 58.1636 8.44263 58.5468 8.6165C58.9391 8.79163 59.1252 8.96257 59.105 9.12935C59.0937 9.222 59.0414 9.30443 58.948 9.37664C58.865 9.44082 58.7652 9.48862 58.6486 9.52003C58.277 9.32887 57.9367 9.189 57.6278 9.10042C57.6202 9.24065 57.6006 9.44047 57.5691 9.6999C57.5241 10.0705 57.479 10.4034 57.4338 10.6987C57.352 11.1397 57.2976 11.4714 57.2707 11.6937L57.2853 11.9217L57.509 11.9376C57.5841 11.9383 57.6772 11.9461 57.7882 11.961C58.2322 12.0207 58.4384 12.1802 58.4069 12.4396C58.3946 12.5415 58.3423 12.624 58.25 12.6869C58.1589 12.7406 58.0486 12.7587 57.9191 12.7413C57.7526 12.719 57.6242 12.6923 57.5339 12.6613L57.187 12.6147C57.1763 12.8581 57.1428 13.2114 57.0866 13.6747C57.0303 14.138 56.9751 14.5543 56.9208 14.9237C56.8244 15.4851 56.7594 15.9048 56.7256 16.1828C56.6627 16.7016 56.6404 16.9623 56.6589 16.9648L57.1185 17.0124C57.2769 17.0243 57.4671 17.0451 57.6891 17.0749C58.0406 17.1221 58.2028 17.2569 58.1758 17.4793C58.1601 17.609 58.0881 17.6982 57.96 17.7469C57.84 17.8061 57.6968 17.8246 57.5303 17.8022L56.3508 17.6438Z" fill="#007577"/>
<path d="M67.3435 20.627C67.0979 20.5377 66.8887 20.3972 66.7161 20.2054C66.5522 20.0168 66.4277 19.7979 66.3426 19.5486C66.2722 19.3146 66.231 19.0366 66.2189 18.7145C66.2098 18.3837 66.2299 18.0535 66.2792 17.724C66.3458 17.1626 66.5013 16.4499 66.7458 15.5859C66.804 15.3787 66.9147 15.0269 67.0778 14.5303L67.3531 13.6924C67.4405 13.4561 67.5264 13.2095 67.6109 12.9523C67.7827 12.4291 67.9489 12.028 68.1093 11.7488C68.1267 11.6062 68.1586 11.464 68.2052 11.3221C68.38 10.7901 68.7186 10.4318 69.2211 10.2471C69.7237 10.0625 70.2775 10.0802 70.8828 10.3001C71.1109 10.383 71.301 10.5216 71.4532 10.7159C71.6054 10.9101 71.651 11.1004 71.5898 11.2866C71.5607 11.3753 71.5023 11.4335 71.4146 11.4612C71.327 11.4889 71.2305 11.4836 71.1253 11.4453C71.0375 11.4134 70.9454 11.3651 70.8489 11.3002C70.7611 11.2386 70.7128 11.1763 70.704 11.1136L70.5329 11.0514L70.5417 11.0248C70.2171 10.9069 69.9219 10.879 69.656 10.9411C69.4602 10.999 69.2748 11.1451 69.0997 11.3792C69.0326 11.464 68.9655 11.5786 68.8984 11.7229C68.8314 11.8673 68.7774 12.0015 68.7367 12.1257C68.7046 12.1934 68.6536 12.3337 68.5837 12.5465L68.4571 13.0216L68.3217 13.4786C68.278 13.6116 68.2095 13.7604 68.1162 13.925C67.9995 14.1308 67.9266 14.278 67.8975 14.3667L67.7926 14.6859C67.679 15.0317 67.5364 15.5109 67.3646 16.1234C67.2074 16.632 67.0984 17.1582 67.0376 17.7019C66.9622 18.2005 66.9802 18.6537 67.0918 19.0615C67.1916 19.475 67.4214 19.7471 67.781 19.8778C67.9302 19.932 68.1406 19.9191 68.4123 19.8392C68.7016 19.7657 68.8945 19.7464 68.991 19.7815C69.1138 19.8261 69.2191 19.9389 69.307 20.1197C69.1992 20.4478 68.9934 20.6559 68.6896 20.7439C68.4091 20.8207 68.1036 20.8238 67.7733 20.7534C67.592 20.7074 67.4487 20.6652 67.3435 20.627Z" fill="#007577"/>
<path d="M72.9979 23.2258C72.8057 23.1303 72.677 23.0298 72.6119 22.9245C72.5467 22.8192 72.5505 22.6857 72.6232 22.5239C72.7379 22.2685 72.8912 21.8136 73.0831 21.1591L73.1535 20.866L71.9984 20.0574C71.8603 20.2283 71.6114 20.5888 71.2517 21.1391C71.0141 21.5313 70.8104 21.7685 70.6405 21.8507C70.5476 21.8982 70.4468 21.895 70.3381 21.841C70.2378 21.7911 70.1593 21.7156 70.1025 21.6145C70.0495 21.5048 70.0441 21.4032 70.0862 21.3095L70.1399 21.2581L70.1754 21.2133C71.7102 19.2996 73.0978 17.3492 74.3383 15.3622C74.3536 15.3281 74.3827 15.2748 74.4255 15.2024C74.4721 15.1214 74.534 15.0064 74.6112 14.8573C74.7778 14.5548 74.9157 14.3161 75.025 14.1412C75.1426 13.9706 75.2558 13.855 75.3648 13.7946L75.791 14.0065C75.908 14.0647 75.9949 14.1444 76.0517 14.2455C76.1123 14.3381 76.1197 14.4355 76.0738 14.5377C75.783 15.1847 75.4385 16.1903 75.0402 17.5546C74.6182 18.9487 74.2886 19.9097 74.0515 20.4376C74.0285 20.4886 73.9901 20.631 73.9363 20.8646C73.8901 21.0812 73.8536 21.2193 73.8268 21.2789C73.8 21.3384 73.727 21.6146 73.6079 22.1074C73.4994 22.5534 73.4185 22.836 73.3649 22.9552L73.3592 22.968C73.275 23.1553 73.1546 23.2412 72.9979 23.2258ZM73.2723 20.3626C73.3046 20.2225 73.3628 20.0587 73.447 19.8714C73.7913 19.1053 74.1643 18.093 74.5662 16.8346L75.0376 15.4442C73.7793 17.2662 72.8537 18.6547 72.2609 19.6099C72.348 19.7573 72.6851 20.0082 73.2723 20.3626Z" fill="#007577"/>
<path d="M75.5602 24.9099C75.3876 24.7986 75.3265 24.6537 75.3766 24.4752C75.4017 24.3582 75.466 24.211 75.5694 24.0337C75.7717 23.687 76.0366 23.2699 76.3643 22.7822C76.6857 22.3238 76.9569 21.9052 77.178 21.5263C77.4272 21.099 77.8129 20.4657 78.335 19.6264L79.4732 17.7309C79.5155 17.6584 79.5672 17.542 79.6284 17.3817L79.7695 17.0566L79.8047 16.9961C79.9129 16.8107 80.0203 16.6914 80.1269 16.6381C80.2336 16.5849 80.3614 16.6063 80.5104 16.7025C80.7142 16.8341 80.9025 17.0388 81.075 17.3166C81.2475 17.5945 81.3346 17.8615 81.3362 18.1178C81.3379 18.6516 81.1694 19.2087 80.8308 19.7891C80.5768 20.2244 80.3275 20.5685 80.0829 20.8212C79.843 21.0659 79.5639 21.2575 79.2456 21.396C79.335 21.7423 79.3186 22.1035 79.1964 22.4796C79.0866 22.8526 78.8883 23.2851 78.6014 23.7768C78.3145 24.2686 77.9829 24.6427 77.6066 24.8992C77.1785 25.1889 76.7395 25.2939 76.2894 25.2142C76.0228 25.1531 75.7797 25.0517 75.5602 24.9099ZM78.6386 20.5215C79.051 20.7766 79.5395 20.4205 80.1039 19.4531C80.7106 18.4131 80.8673 17.7652 80.574 17.5093C80.3796 17.639 80.0825 18.0465 79.6827 18.7318L78.6386 20.5215ZM76.2258 24.4906C76.5096 24.5962 76.795 24.5695 77.082 24.4107C77.3689 24.2519 77.6065 24.0113 77.7946 23.6888C77.9921 23.3502 78.1466 23.0393 78.2579 22.756C78.3441 22.5342 78.3974 22.3411 78.4177 22.1767C78.4506 22.0093 78.4569 21.8413 78.4365 21.6728C78.4129 21.4911 78.3454 21.3477 78.2341 21.2425C77.9346 21.6818 77.5639 22.2803 77.1218 23.0381C77.0935 23.0865 76.9963 23.2346 76.8301 23.4824L76.5668 23.8784C76.5574 23.8945 76.5542 23.9092 76.5574 23.9223L76.5432 23.9465L76.2258 24.4906Z" fill="#007577"/>
<path d="M81.7466 29.6227C81.5802 29.487 81.4766 29.3605 81.4358 29.243C81.395 29.1256 81.4272 28.9954 81.5323 28.8527C81.6984 28.6273 81.9446 28.2145 82.2708 27.6145L82.4018 27.3425L81.4521 26.2977C81.2813 26.4351 80.9624 26.7344 80.4953 27.1956C80.1806 27.5284 79.932 27.7166 79.7494 27.7601C79.6489 27.7865 79.5516 27.7613 79.4576 27.6847C79.3708 27.6139 79.3106 27.5227 79.277 27.4112C79.2489 27.2921 79.2654 27.1912 79.3263 27.1086L79.3895 27.0699L79.4335 27.0336C81.3338 25.4917 83.0989 23.8817 84.7289 22.2036C84.751 22.1736 84.7906 22.1277 84.8477 22.0659C84.9103 21.9967 84.995 21.8974 85.1019 21.768C85.3284 21.5077 85.5134 21.3037 85.6569 21.1561C85.8077 21.0144 85.9424 20.9258 86.0612 20.8903L86.4301 21.191C86.5314 21.2736 86.5988 21.3707 86.6324 21.4822C86.6716 21.5863 86.6579 21.6834 86.5915 21.7736C86.1707 22.3447 85.6211 23.2557 84.9427 24.5066C84.2348 25.7818 83.7093 26.6523 83.366 27.1182C83.3328 27.1632 83.2651 27.2945 83.1628 27.5118C83.0717 27.7141 83.0067 27.8416 82.968 27.8942C82.9292 27.9468 82.7993 28.2017 82.5783 28.6589C82.3776 29.0727 82.2386 29.3321 82.1611 29.4373L82.1528 29.4486C82.031 29.6139 81.8956 29.6719 81.7466 29.6227ZM82.6248 26.8748C82.6861 26.7444 82.7777 26.5965 82.8995 26.4312C83.3977 25.7549 83.9765 24.8436 84.6358 23.6973L85.3909 22.4366C83.7789 23.9489 82.5828 25.1087 81.8027 25.916C81.8559 26.0796 82.1299 26.3992 82.6248 26.8748Z" fill="#007577"/>
<path d="M86.2707 34.1931C86.1931 34.1123 86.1541 34.0313 86.1536 33.9501C86.1596 33.8622 86.2041 33.7537 86.287 33.6248L86.4111 33.3705L86.4303 33.3501L86.4591 33.3195C86.6702 33.0952 87.1666 32.0983 87.9485 30.3287C88.7369 28.5659 89.2992 27.2406 89.6355 26.3527L84.8097 31.4813L84.7814 31.5931C84.775 31.6134 84.7656 31.6506 84.753 31.7048C84.7404 31.759 84.7181 31.8031 84.6862 31.8371C84.603 31.9254 84.5036 31.9699 84.3878 31.9705C84.2721 31.9711 84.1722 31.9277 84.0881 31.8401C83.8812 31.6248 83.9728 31.3097 84.363 30.8951L85.9938 29.1415C86.4799 28.6114 87.0267 28.0234 87.6343 27.3777C87.839 27.1602 88.1461 26.8542 88.5556 26.4598C88.9779 26.0517 89.2851 25.7457 89.4769 25.5418C89.7775 25.2224 90.1306 25.092 90.536 25.1508L90.4785 25.212C90.53 25.2388 90.5623 25.2589 90.5752 25.2724C90.7239 25.4272 90.6556 25.8943 90.3702 26.6736C90.1419 27.2971 89.8718 27.9242 89.56 28.5549C89.2546 29.1923 88.8026 30.0808 88.2039 31.2203L87.9555 31.6883C87.5862 32.3937 87.3283 32.9058 87.1821 33.2244C88.6865 31.8976 90.3757 30.2384 92.2497 28.2468L92.3744 28.1143C92.4064 28.0668 92.4447 28.0192 92.4895 27.9716C92.6813 27.7677 92.8549 27.7465 93.01 27.9081C93.1006 28.0023 93.1333 28.1104 93.1082 28.2323C93.0896 28.3609 93.0259 28.483 92.9171 28.5985L92.1976 29.3632C91.1997 30.3965 90.0928 31.4913 88.8769 32.6475C87.6609 33.8037 86.9342 34.4129 86.6965 34.475C86.4579 34.3341 86.3159 34.2402 86.2707 34.1931Z" fill="#007577"/>
<path d="M88.3179 37.1963C88.2449 37.0993 88.2098 36.983 88.2127 36.8472C88.2211 36.7189 88.2691 36.6122 88.3567 36.5271L88.6365 36.2942L88.8517 36.115C88.9106 36.0538 88.9831 35.9874 89.0692 35.9157C89.2198 35.7903 89.4409 35.588 89.7325 35.3088L90.4042 34.7131C90.7557 34.4205 91.2877 33.9957 92.0003 33.4388C92.6467 32.9491 93.1815 32.528 93.6047 32.1757C93.7051 32.0921 93.8473 31.9555 94.0313 31.7659C94.2225 31.5703 94.3647 31.4337 94.4579 31.3561C94.9672 30.932 95.3397 30.8766 95.5754 31.1899C95.7606 31.436 95.9272 31.7582 96.0753 32.1565C96.229 32.5622 96.2413 32.8189 96.1122 32.9264C96.0405 32.9861 95.9471 33.0093 95.832 32.9959C95.7297 32.984 95.627 32.9483 95.5238 32.8886C95.3957 32.4858 95.2541 32.1427 95.0992 31.8593C94.9972 31.9563 94.8458 32.0885 94.645 32.2557C94.3581 32.4946 94.097 32.7058 93.8619 32.8895C93.5008 33.1538 93.2342 33.3576 93.062 33.5009L92.9151 33.6778L93.0606 33.8478C93.1127 33.9015 93.1724 33.9731 93.2397 34.0626C93.5091 34.4206 93.5434 34.6831 93.3425 34.8504C93.2636 34.9161 93.1702 34.9392 93.0624 34.9199C92.9616 34.8946 92.872 34.8297 92.7934 34.7253C92.6924 34.5911 92.621 34.4807 92.5792 34.3942L92.3688 34.1145C92.1935 34.2847 91.9266 34.5191 91.5679 34.8177C91.2093 35.1163 90.8837 35.3813 90.5912 35.6128C90.1369 35.9547 89.8021 36.2152 89.5869 36.3944C89.1853 36.7288 88.99 36.9035 89.0013 36.9184L89.2898 37.2786C89.3924 37.3994 89.511 37.5493 89.6457 37.7283C89.859 38.0117 89.8796 38.225 89.7074 38.3683C89.607 38.452 89.4952 38.4662 89.372 38.411C89.2473 38.3693 89.1344 38.2814 89.0334 38.1471L88.3179 37.1963Z" fill="#007577"/>
<path fill-rule="evenodd" clip-rule="evenodd" d="M51.5043 26.6285L52.1085 26.4775C52.5684 26.3626 52.9936 26.7707 52.8901 27.2381L52.5509 28.7633C52.9327 28.5839 53.3291 28.8356 53.4035 29.0851L53.4918 29.3781L54.5341 29.313C54.9302 29.2746 55.2789 29.6073 55.2333 30.0216L55.169 31.0552L55.5327 31.1748C55.9696 31.3672 55.9491 32.0094 55.547 32.2655L53.1735 33.8269L53.3631 34.2996C53.4582 34.539 53.4023 34.8104 53.2211 34.9915C53.0405 35.1722 52.7689 35.2299 52.5291 35.1334L50.3834 34.2755V37.7C50.3836 37.7863 50.3485 37.8644 50.292 37.9209C50.2355 37.9774 50.1573 38.0125 50.071 38.0124C49.8985 38.0125 49.7586 37.8726 49.7586 37.7L49.7586 34.2755L47.6123 35.1341C47.0904 35.3428 46.5703 34.8226 46.779 34.3007L46.9682 33.827L44.5914 32.2626C44.107 31.9544 44.2867 31.2607 44.6799 31.1435L44.973 31.0551L44.9072 30.0069C44.8873 29.827 44.9546 29.6363 45.0931 29.4978C45.234 29.3569 45.4253 29.2927 45.617 29.314L46.6501 29.3779L46.7385 29.0849C46.7996 28.8799 47.165 28.5667 47.591 28.7627L47.2521 27.2385C47.2035 27.02 47.284 26.7862 47.4306 26.6402C47.5912 26.484 47.8162 26.4234 48.0334 26.4774L48.6376 26.6284L49.5701 25.4625C49.8532 25.1202 50.3319 25.1639 50.5717 25.4627L51.5043 26.6285ZM52.1672 30.4187C51.9862 30.7232 51.5167 30.5364 51.5932 30.1916L52.2801 27.1029L51.267 27.332L50.0837 25.8534L48.8753 27.332L47.8822 27.0838L48.5491 30.1916C48.6244 30.5382 48.1558 30.7223 47.9751 30.4187L47.3281 29.3272L47.3194 29.323L47.1059 30.0323L45.5627 29.9367L45.6272 31.511L44.9412 31.7175L47.7381 33.5855L47.3594 34.5326L49.7585 33.5989C49.7585 33.5989 49.9319 33.4274 50.0711 33.4278C50.2108 33.4283 50.3834 33.6023 50.3834 33.6023L52.7619 34.5533L52.4034 33.5855L55.2172 31.7224L54.5142 31.5106L54.6101 29.9373L53.0365 30.0328L52.8299 29.3473L52.1672 30.4187Z" fill="#007577"/>
<path d="M52.1672 30.4187C51.9862 30.7232 51.5167 30.5364 51.5932 30.1916L52.2801 27.1029L51.267 27.332L50.0837 25.8534L48.8753 27.332L47.8822 27.0838L48.5491 30.1916C48.6244 30.5382 48.1558 30.7223 47.9751 30.4187L47.3281 29.3272L47.3194 29.323L47.1059 30.0323L45.5627 29.9367L45.6272 31.511L44.9412 31.7175L47.7381 33.5855L47.3594 34.5326L49.7585 33.5989L49.7586 29.3033C49.7586 29.1307 49.8984 28.9909 50.071 28.9909C50.2435 28.9908 50.3834 29.1307 50.3834 29.3033V33.6023L52.7619 34.5533L52.4034 33.5855L55.2172 31.7224L54.5142 31.5106L54.6101 29.9373L53.0365 30.0328L52.8299 29.3473L52.1672 30.4187Z" fill="#007577"/>
<path d="M50.3834 33.6023V29.3033C50.3834 29.1307 50.2435 28.9908 50.071 28.9909C49.8984 28.9909 49.7586 29.1307 49.7586 29.3033L49.7585 33.5989C49.7585 33.5989 49.9319 33.4274 50.0711 33.4278C50.2108 33.4283 50.3834 33.6023 50.3834 33.6023Z" fill="#007577"/>
</g>
<defs>
<clipPath id="clip0">
<rect width="100" height="47" fill="white"/>
</clipPath>
</defs>
</svg>
