<svg width="149" height="50" viewBox="0 0 149 50" fill="none" xmlns="http://www.w3.org/2000/svg">
<path d="M26.2183 42.9343C25.4655 43.1805 24.5616 43.312 23.5066 43.3288C22.4818 43.3609 21.3927 43.351 20.2394 43.2989C19.1089 43.2393 18.0201 43.1914 16.9729 43.1551C16.3619 43.8347 15.7552 44.4119 15.153 44.8866C14.5735 45.3539 13.9758 45.6882 13.3599 45.8897C12.5844 46.1433 11.8708 46.162 11.2194 45.9458C10.5982 45.745 10.1831 45.3252 9.97422 44.6865C9.79517 44.139 9.87013 43.6347 10.1991 43.1736C10.5434 42.6823 11.2288 42.2687 12.2553 41.933C12.78 41.7614 13.3652 41.6205 14.0109 41.5104C14.672 41.3699 15.3785 41.2525 16.1304 41.1581C16.8888 39.9253 17.5763 38.4758 18.1929 36.8096C18.8248 35.1131 19.332 33.3438 19.7143 31.5017C20.0967 29.6596 20.3004 27.8506 20.3257 26.0748C20.3509 24.299 20.1323 22.7039 19.6698 21.2896C19.1401 19.67 18.3986 18.5995 17.4452 18.078C16.5073 17.5262 15.5022 17.4257 14.4301 17.7763C13.4036 18.112 12.6489 18.6997 12.166 19.5394C11.6831 20.3791 11.4235 21.3226 11.3872 22.3697C11.3737 23.4094 11.5236 24.4083 11.837 25.3664C12.016 25.9138 12.2257 26.4008 12.4662 26.8271C12.7295 27.2461 13.0609 27.6805 13.4606 28.1306C13.3694 28.1604 13.2667 28.194 13.1527 28.2313C13.0312 28.2458 12.9097 28.2603 12.7881 28.2748C12.1042 28.4227 11.4102 28.3467 10.7061 28.0467C10.002 27.7467 9.45966 27.015 9.07918 25.8516C8.67633 24.6198 8.61894 23.3634 8.90702 22.0824C9.21045 20.7712 9.82426 19.5983 10.7485 18.5637C11.6652 17.5064 12.8649 16.7352 14.3477 16.2503C15.7163 15.8027 16.9539 15.7262 18.0603 16.0209C19.1895 16.3081 20.1501 16.8904 20.942 17.7677C21.7493 18.6147 22.3618 19.6769 22.7796 20.9543C23.078 21.8668 23.2659 22.8659 23.3432 23.9516C23.4359 25.0071 23.4296 26.1076 23.3245 27.253C23.2018 28.8082 22.9158 30.4042 22.4663 32.041C22.0322 33.6475 21.4807 35.204 20.8118 36.7106C20.143 38.2171 19.3989 39.6094 18.5796 40.8874C20.1667 40.7218 21.6135 40.5516 22.9199 40.3769C24.2189 40.1793 25.2447 39.9575 25.9975 39.7113C26.5678 39.5248 27.0321 39.2845 27.3905 38.9906C27.7717 38.6892 28.2524 38.2289 28.8327 37.6099C28.9228 39.1207 28.753 40.2999 28.3231 41.1475C27.9236 42.0105 27.222 42.6061 26.2183 42.9343ZM12.8327 44.5092C13.1521 44.4047 13.4604 44.2281 13.7578 43.9793C14.0627 43.7534 14.3717 43.4629 14.6849 43.108C13.7514 43.1103 12.9881 43.2084 12.395 43.4024C11.9844 43.5367 11.733 43.6946 11.6409 43.8763C11.5414 44.0351 11.5102 44.1715 11.5475 44.2856C11.6226 44.4378 11.7814 44.5374 12.024 44.5843C12.2894 44.6237 12.559 44.5987 12.8327 44.5092Z" fill="#F2C94C"/>
<path d="M31.6909 22.243C31.234 22.3445 30.8566 22.3054 30.5585 22.1258C30.2748 21.9553 30.0939 21.6943 30.0158 21.3429C29.9637 21.1086 29.9501 20.8535 29.9748 20.5775C29.997 20.2899 30.0191 20.0022 30.0413 19.7146C30.0634 19.4269 30.0471 19.1601 29.9925 18.9141C29.9352 18.6564 29.8318 18.495 29.6821 18.4299C29.5415 18.3505 29.3892 18.329 29.2252 18.3654C28.8738 18.4435 28.5432 18.6706 28.2334 19.0468C27.9327 19.4086 27.6548 19.8453 27.3997 20.3568C27.1562 20.8657 26.9343 21.3883 26.7338 21.9245C26.5334 22.4607 26.3635 22.941 26.2242 23.3653C26.0016 23.4148 25.7816 23.4206 25.5643 23.3829C25.3495 23.3568 25.151 23.2657 24.9688 23.1095C24.9675 23.0483 24.9988 22.857 25.0626 22.5355C25.112 22.2049 25.1674 21.8177 25.2286 21.3739C25.2872 20.9183 25.3243 20.4491 25.3399 19.9662C25.3556 19.4833 25.3217 19.0545 25.2385 18.6796C25.2996 18.5677 25.4018 18.4466 25.545 18.3165C25.6999 18.1837 25.8711 18.0965 26.0585 18.0549C26.4685 17.9638 26.7125 18.0939 26.7906 18.4454C26.8609 18.7617 26.8771 19.3051 26.8393 20.0756C27.0528 19.5979 27.3008 19.1372 27.5833 18.6934C27.8657 18.2495 28.1755 17.8734 28.5126 17.5649C28.8589 17.2422 29.2311 17.0365 29.6294 16.948C30.1331 16.8361 30.5399 16.924 30.8497 17.2117C31.1711 17.4967 31.3774 17.8443 31.4685 18.2543C31.5466 18.6057 31.5609 18.9467 31.5114 19.2773C31.4619 19.6079 31.4086 19.9209 31.3513 20.2164C31.3057 20.5092 31.3115 20.7845 31.3688 21.0422C31.4104 21.2297 31.4814 21.3553 31.5816 21.4191C31.6909 21.4685 31.7983 21.4816 31.9037 21.4581C32.1849 21.3957 32.4478 21.1959 32.6925 20.8588C32.9372 20.5217 33.1488 20.1182 33.3271 19.6483C33.5146 19.1642 33.6669 18.6878 33.784 18.2192L34.1374 18.3989C34.0189 19.0275 33.8549 19.6171 33.6453 20.1677C33.4448 20.7039 33.1839 21.1614 32.8623 21.5402C32.55 21.9046 32.1595 22.1389 31.6909 22.243ZM35.3261 21.6197C35.1035 21.6692 34.862 21.6614 34.6017 21.5963C34.3557 21.5403 34.1306 21.4121 33.9262 21.2116C33.7102 21.0138 33.5618 20.7333 33.4811 20.3701C33.3952 19.9835 33.3927 19.5293 33.4734 19.0074C33.5541 18.4854 33.6992 17.9492 33.9088 17.3986C34.1301 16.8455 34.4074 16.3229 34.7406 15.8309C35.0856 15.3363 35.4708 14.9127 35.8965 14.56C36.3221 14.2073 36.7809 13.9762 37.2729 13.8669C37.5424 13.8071 37.7636 13.8071 37.9367 13.867C38.1072 13.9151 38.2146 14.0388 38.2589 14.2379C38.2719 14.2965 38.2758 14.3694 38.2706 14.4566C38.2628 14.5321 38.2185 14.6095 38.1378 14.6889C38.0753 14.629 37.9829 14.6004 37.8606 14.603C37.7356 14.5939 37.6087 14.6036 37.4798 14.6323C37.0933 14.7182 36.749 14.9114 36.447 15.2121C36.1424 15.501 35.8814 15.8479 35.6641 16.2527C35.4467 16.6574 35.2709 17.0837 35.1369 17.5314C35.0145 17.9766 34.9364 18.3996 34.9025 18.8005C34.8661 19.1896 34.8778 19.5189 34.9376 19.7884C35.0469 20.2804 35.289 20.4847 35.6639 20.4015C35.9802 20.3312 36.3147 20.0663 36.6674 19.6069C37.0293 19.1331 37.3619 18.4999 37.6652 17.7073C37.9776 16.9003 38.2132 15.969 38.3721 14.9135C38.4814 14.1885 38.5999 13.4492 38.7275 12.6956C38.8525 11.9303 38.984 11.1942 39.122 10.4875C39.26 9.78071 39.4077 9.14554 39.5653 8.58196C39.7345 8.01578 39.9096 7.55894 40.0905 7.21142C40.2806 6.84959 40.481 6.64525 40.6919 6.5984C40.8207 6.56978 40.9437 6.59777 41.0609 6.68237C41.1871 6.75267 41.2672 6.86395 41.301 7.01624C41.3452 7.21539 41.3172 7.55965 41.217 8.04904C41.1259 8.52412 40.9957 9.10006 40.8264 9.77688C40.6689 10.4511 40.4938 11.1845 40.3012 11.9772C40.1176 12.7555 39.9568 13.5534 39.8188 14.3708C39.6899 15.1738 39.6066 15.9606 39.5688 16.7312C39.5401 17.4874 39.5961 18.1818 39.7366 18.8144C39.7991 19.0955 39.8654 19.2836 39.9357 19.3786C40.0151 19.4593 40.1192 19.4853 40.2481 19.4567C40.623 19.3734 41.0186 19.052 41.4352 18.4923C41.8608 17.9183 42.1804 17.1712 42.3939 16.251L42.7902 16.458C42.6757 17.1595 42.4739 17.8006 42.1849 18.3811C41.8959 18.9615 41.5529 19.4373 41.1559 19.8082C40.7615 20.1908 40.3418 20.4316 39.8966 20.5305C39.4163 20.6372 39.0486 20.5591 38.7935 20.2962C38.5384 20.0332 38.3653 19.6968 38.2742 19.2868C38.2326 19.0993 38.2027 18.9093 38.1845 18.7167C38.1754 18.5097 38.1676 18.3086 38.1611 18.1134C37.7875 19.0323 37.3475 19.8184 36.8412 20.4718C36.3465 21.1226 35.8415 21.5052 35.3261 21.6197Z" fill="#F2C94C"/>
<path d="M61.1538 36.7295C59.3349 36.8655 57.8069 36.5466 56.5697 35.7726C55.3565 34.9969 54.4237 33.9476 53.7712 32.6245C53.1427 31.2997 52.7739 29.9073 52.6647 28.4474C52.5233 26.5567 52.6692 24.6445 53.1022 22.7108C53.5334 20.7532 54.1872 18.8753 55.0636 17.0769C55.9639 15.2768 57.0101 13.6583 58.2023 12.2214C59.3945 10.7845 60.6919 9.62852 62.0945 8.7535C63.5194 7.85276 64.9617 7.34781 66.4216 7.23865C67.4747 7.15992 68.379 7.34501 69.1346 7.79392C69.8884 8.2189 70.31 9.02972 70.3995 10.2264C70.4532 10.9444 70.3815 11.756 70.1844 12.6612C70.0113 13.5646 69.7407 14.4513 69.3725 15.3211C69.0265 16.1653 68.6099 16.8703 68.1227 17.4362C67.6356 18.0021 67.1167 18.3056 66.5663 18.3468C66.3269 18.3647 66.0694 18.2997 65.7936 18.1519C65.5178 18.004 65.257 17.7347 65.0112 17.3439C65.3398 16.9102 65.7099 16.3892 66.1217 15.7808C66.5317 15.1485 66.916 14.494 67.2745 13.8174C67.6313 13.1168 67.918 12.4456 68.1348 11.8036C68.3497 11.1377 68.4393 10.5655 68.4035 10.0868C68.3713 9.65601 68.2266 9.3299 67.9694 9.10846C67.7104 8.86309 67.2817 8.76277 66.6833 8.80751C65.6303 8.88625 64.5709 9.36256 63.505 10.2365C62.4632 11.1086 61.4778 12.2532 60.5489 13.6704C59.6182 15.0637 58.7957 16.6174 58.0815 18.3314C57.3895 20.0197 56.8694 21.7553 56.5214 23.5382C56.1716 25.2972 56.0548 26.9545 56.1711 28.5102C56.257 29.6589 56.5069 30.7473 56.9207 31.7754C57.3566 32.7776 57.9817 33.5733 58.7959 34.1622C59.6118 34.7751 60.6421 35.035 61.8866 34.9419C63.179 34.8453 64.4326 34.3905 65.6474 33.5777C66.8861 32.7631 67.9881 31.73 68.9535 30.4786C69.9428 29.2253 70.7104 27.9044 71.2564 26.5158L72.2355 27.0563C71.5177 28.7225 70.6225 30.2695 69.55 31.6975C68.4757 33.1015 67.2262 34.2539 65.8014 35.1546C64.4023 36.0775 62.8531 36.6025 61.1538 36.7295Z" fill="#F2C94C"/>
<path d="M72.4717 34.7298C71.6798 34.7145 71.001 34.4374 70.4353 33.8984C69.8456 33.3589 69.561 32.5612 69.5814 31.5054C69.5976 30.6656 69.8072 29.7574 70.2101 28.781C70.6131 27.8046 71.1597 26.843 71.8502 25.8962C72.5406 24.9493 73.3251 24.1003 74.2038 23.3492C75.0829 22.574 76.019 21.956 77.0121 21.4951C78.0052 21.0342 78.9937 20.8132 79.9775 20.8322C81.0093 20.8522 81.88 21.133 82.5897 21.6748C83.2994 22.2166 83.6459 22.9195 83.6292 23.7833C83.6166 24.4312 83.3797 24.8947 82.9182 25.1738C82.4567 25.453 81.9152 25.5265 81.2936 25.3945C81.3458 25.1795 81.3859 24.9642 81.4141 24.7487C81.4663 24.5337 81.4947 24.3062 81.4993 24.0662C81.5086 23.5863 81.4209 23.1525 81.2364 22.7649C81.0518 22.3773 80.6476 22.1774 80.0237 22.1654C79.3519 22.1524 78.6636 22.3671 77.9589 22.8096C77.2542 23.2521 76.5708 23.839 75.9085 24.5703C75.2707 25.2781 74.6913 26.0711 74.1703 26.9492C73.6497 27.8033 73.2373 28.6475 72.9331 29.4818C72.6289 30.3161 72.4704 31.0691 72.4574 31.741C72.4425 32.5089 72.7111 32.8981 73.263 32.9088C73.8149 32.9194 74.4319 32.6673 75.1139 32.1524C75.7965 31.6135 76.4816 30.9426 77.1692 30.1397C77.8808 29.3373 78.5567 28.5222 79.1968 27.6944C79.8374 26.8426 80.3914 26.1212 80.8589 25.5301C80.9332 25.4115 81.0304 25.3534 81.1503 25.3557C81.2458 25.3816 81.4247 25.445 81.6868 25.5461C81.9733 25.6237 82.2349 25.7487 82.4717 25.9213C82.7084 26.0939 82.8242 26.3122 82.8191 26.5762C82.813 26.8881 82.6367 27.3168 82.2901 27.8622C81.944 28.3836 81.5849 28.9528 81.2129 29.5697C80.865 30.1871 80.6859 30.7598 80.6757 31.2877C80.6696 31.5996 80.7478 31.9012 80.9102 32.1924C81.0731 32.4595 81.3465 32.5969 81.7304 32.6043C82.3063 32.6154 83.1183 32.211 84.1663 31.3911C85.2388 30.5477 86.3347 29.1166 87.4539 27.0978L88.1245 27.7949C87.1987 29.7454 86.0641 31.3197 84.7207 32.518C83.3773 33.7163 82.0337 34.3024 80.6899 34.2765C79.7061 34.2575 78.9803 33.9314 78.5124 33.2982C78.0446 32.6651 77.7936 31.9881 77.7595 31.2673L77.763 31.0874C76.7809 32.2206 75.8755 33.1153 75.0466 33.7714C74.2418 34.428 73.3835 34.7475 72.4717 34.7298Z" fill="#F2C94C"/>
<path d="M88.5118 36.3022C87.1505 36.1673 86.1542 35.6344 85.5229 34.7037C84.9131 33.7991 84.6816 32.6065 84.8283 31.1257C84.9443 29.9555 85.2846 28.5904 85.8492 27.0304C86.4137 25.4705 87.1168 23.8519 87.9583 22.1748C88.8021 20.4737 89.7129 18.8275 90.6906 17.2361C91.6946 15.6233 92.6939 14.1788 93.6886 12.9026C94.6856 11.6026 95.6065 10.5845 96.4513 9.8482C97.296 9.11191 97.993 8.77099 98.5423 8.82542C99.02 8.87276 99.351 9.18291 99.5354 9.75589C99.7198 10.3289 99.7967 10.8912 99.7662 11.4429C99.6999 12.1116 99.4761 12.9094 99.0949 13.8363C98.7136 14.7633 98.207 15.7381 97.5751 16.7607C96.9431 17.7834 96.2288 18.7858 95.432 19.768C94.6353 20.7503 93.7764 21.6298 92.8553 22.4068C91.958 23.1861 91.0427 23.7828 90.1094 24.1967C89.9114 24.4906 89.6432 25.0067 89.3048 25.7449C88.9902 26.4855 88.6769 27.3348 88.3649 28.2927C88.0768 29.2529 87.8843 30.2227 87.7872 31.2019C87.6926 32.1572 87.7435 32.9822 87.9399 33.677C88.1579 34.398 88.6131 34.7928 89.3057 34.8615C89.9267 34.923 90.6238 34.7027 91.3971 34.2005C92.1704 33.6983 92.8242 33.0637 93.3584 32.2966C92.5221 31.7314 91.9196 30.9964 91.5511 30.0916C91.1825 29.1869 91.0455 28.2568 91.1402 27.3015C91.2562 26.1313 91.6601 25.2186 92.3521 24.5637C93.068 23.9111 93.8797 23.6298 94.7872 23.7197C95.5515 23.7955 96.1548 24.1567 96.5972 24.8035C97.0419 25.4264 97.2039 26.3468 97.0832 27.5649C96.9388 29.0217 96.4315 30.4909 95.5612 31.9723C95.6806 31.9841 95.7749 32.0055 95.8442 32.0365C95.9397 32.046 96.0592 32.0578 96.2024 32.072C97.0384 32.1548 97.7773 31.9989 98.4194 31.6043C99.0614 31.2097 99.6162 30.7221 100.084 30.1413C100.551 29.5606 100.929 29.0313 101.218 28.5534L101.681 29.359C100.944 30.7089 100.097 31.7103 99.1401 32.3631C98.2069 33.0183 97.0358 33.276 95.6267 33.1364C95.5073 33.1246 95.3759 33.1115 95.2326 33.0973C95.1132 33.0855 94.995 33.0617 94.8779 33.026C94.1027 34.0345 93.1768 34.8592 92.1004 35.5002C91.0454 36.1674 89.8493 36.4347 88.5118 36.3022ZM91.0137 22.0072C91.8227 21.388 92.6089 20.6339 93.3723 19.7448C94.1596 18.8581 94.8776 17.9405 95.5263 16.9918C96.1989 16.0455 96.745 15.1591 97.1645 14.3324C97.5841 13.5057 97.8534 12.8571 97.9723 12.3866L97.9936 12.1716C97.7716 12.222 97.379 12.5328 96.816 13.104C96.2768 13.6777 95.647 14.4352 94.9266 15.3768C94.2325 16.2968 93.5385 17.3375 92.8446 18.4987C92.1531 19.636 91.5428 20.8056 91.0137 22.0072ZM94.0846 31.1748C94.3469 30.7184 94.5495 30.2561 94.6923 29.7879C94.8614 29.2982 94.9744 28.7668 95.0312 28.1936C95.1164 27.3338 95.0717 26.6902 94.8969 26.2629C94.7461 25.838 94.5274 25.6113 94.2408 25.5829C93.9303 25.5521 93.6344 25.7399 93.3529 26.1461C93.0954 26.5547 92.937 27.0575 92.8779 27.6546C92.8282 28.1562 92.8776 28.7519 93.0263 29.442C93.175 30.132 93.5278 30.7096 94.0846 31.1748Z" fill="#F2C94C"/>
<path d="M100.037 36.6497C99.2577 36.5093 98.6314 36.1282 98.1581 35.5065C97.6612 34.8805 97.5064 34.0478 97.6936 33.0086C97.8425 32.1819 98.1932 31.3184 98.7455 30.418C99.2979 29.5177 99.9899 28.6547 100.821 27.8291C101.653 27.0034 102.562 26.2892 103.548 25.6866C104.539 25.0603 105.561 24.5982 106.615 24.3003C107.668 24.0023 108.679 23.9406 109.648 24.115C110.663 24.298 111.479 24.7131 112.094 25.3604C112.709 26.0077 112.94 26.7565 112.786 27.6068C112.671 28.2446 112.364 28.6647 111.864 28.8673C111.364 29.0699 110.818 29.0568 110.225 28.8281C110.311 28.624 110.385 28.4178 110.446 28.2095C110.532 28.0055 110.596 27.7853 110.639 27.5491C110.724 27.0767 110.706 26.6345 110.585 26.2226C110.464 25.8106 110.097 25.5493 109.482 25.4387C108.821 25.3196 108.107 25.4227 107.342 25.7481C106.576 26.0735 105.808 26.5448 105.038 27.1621C104.297 27.7601 103.599 28.4514 102.946 29.2359C102.296 29.9969 101.756 30.7652 101.323 31.5408C100.891 32.3165 100.615 33.035 100.496 33.6963C100.36 34.4521 100.563 34.879 101.107 34.9769C101.65 35.0747 102.299 34.9234 103.054 34.5229C103.813 34.0988 104.596 33.5448 105.402 32.8608C106.232 32.1812 107.028 31.4833 107.791 30.7672C108.558 30.0276 109.219 29.4029 109.775 28.8932C109.867 28.7879 109.972 28.7459 110.09 28.7671C110.18 28.8078 110.347 28.8988 110.589 29.04C110.86 29.162 111.099 29.3269 111.305 29.5347C111.512 29.7426 111.591 29.9765 111.545 30.2363C111.489 30.5434 111.247 30.9387 110.819 31.4224C110.394 31.8825 109.95 32.3877 109.485 32.938C109.044 33.4925 108.776 34.0296 108.683 34.5492C108.627 34.8563 108.657 35.1664 108.771 35.4796C108.89 35.7692 109.138 35.9481 109.516 36.0162C110.083 36.1183 110.948 35.8475 112.113 35.2038C113.305 34.5407 114.614 33.301 116.038 31.4848L116.59 32.2792C115.367 34.0586 113.998 35.4336 112.482 36.4042C110.966 37.3748 109.546 37.7409 108.224 37.5027C107.255 37.3282 106.59 36.8914 106.228 36.1921C105.867 35.4929 105.726 34.7848 105.806 34.0677L105.838 33.8905C104.689 34.8541 103.654 35.5942 102.731 36.1109C101.833 36.6318 100.935 36.8114 100.037 36.6497Z" fill="#F2C94C"/>
<path d="M124.143 41.0419C123.24 40.7982 122.607 40.379 122.245 39.7844C121.901 39.2191 121.822 38.5889 122.009 37.8937C122.134 37.4303 122.347 36.9656 122.646 36.4995C122.952 36.0103 123.258 35.5211 123.564 35.0318C123.87 34.5426 124.089 34.0547 124.22 33.5681C124.357 33.0583 124.324 32.6764 124.119 32.4222C123.943 32.1512 123.693 31.9719 123.369 31.8845C122.674 31.697 121.877 31.7929 120.98 32.1723C120.111 32.5347 119.214 33.0509 118.288 33.7208C117.384 34.3969 116.507 35.1172 115.654 35.8816C114.802 36.6461 114.055 37.3397 113.415 37.9625C112.975 37.8437 112.58 37.6501 112.229 37.3817C111.873 37.1365 111.606 36.791 111.428 36.3452C111.482 36.2356 111.715 35.9255 112.126 35.4149C112.52 34.8749 112.977 34.2401 113.497 33.5103C114.023 32.7573 114.524 31.9602 115 31.119C115.475 30.2777 115.813 29.4864 116.013 28.7449C116.225 28.6032 116.518 28.4834 116.893 28.3856C117.29 28.2939 117.674 28.2981 118.045 28.3981C118.856 28.6168 119.168 29.0737 118.98 29.7689C118.812 30.3945 118.337 31.3726 117.555 32.703C118.377 32.0545 119.243 31.4679 120.155 30.9432C121.067 30.4186 121.965 30.0393 122.848 29.8052C123.761 29.5542 124.612 29.5349 125.399 29.7474C126.396 30.0161 127.035 30.5489 127.317 31.3459C127.623 32.1491 127.666 32.9563 127.447 33.7673C127.26 34.4624 126.969 35.08 126.575 35.62C126.181 36.16 125.796 36.6652 125.42 37.1357C125.068 37.6124 124.823 38.1057 124.686 38.6155C124.586 38.9862 124.595 39.2746 124.714 39.4805C124.861 39.6696 125.04 39.7922 125.248 39.8484C125.804 39.9984 126.456 39.8881 127.202 39.5176C127.948 39.1472 128.697 38.6283 129.449 37.9609C130.23 37.2767 130.941 36.5737 131.583 35.852L132.043 36.498C131.25 37.5022 130.413 38.395 129.531 39.1763C128.679 39.9407 127.792 40.5095 126.871 40.8826C125.979 41.2388 125.07 41.2919 124.143 41.0419Z" fill="#F2C94C"/>
<path d="M130.966 44.1972C129.518 43.6853 128.538 42.8934 128.026 41.8214C127.528 40.7801 127.488 39.6711 127.904 38.4945C128.256 37.4989 128.877 36.5347 129.766 35.6019C130.687 34.6545 131.749 33.8462 132.953 33.1772C134.164 32.4855 135.399 32.0182 136.656 31.7752C137.912 31.5322 139.061 31.5947 140.102 31.9626C140.69 32.1706 141.189 32.5249 141.597 33.0257C142.036 33.5118 142.096 34.2075 141.776 35.1126C141.472 35.9724 140.939 36.6877 140.177 37.2585C139.416 37.8292 138.512 38.2608 137.467 38.5531C136.422 38.8455 135.322 39.004 134.168 39.0288C133.044 39.0389 131.953 38.9205 130.895 38.6737C130.84 38.7562 130.782 38.85 130.719 38.9552C130.687 39.0457 130.631 39.2041 130.551 39.4304C130.511 39.5435 130.45 39.7512 130.369 40.0533C130.318 40.3408 130.316 40.671 130.363 41.0438C130.409 41.4166 130.573 41.7801 130.855 42.1343C131.137 42.4886 131.595 42.7777 132.229 43.0017C133.179 43.3376 134.222 43.4134 135.356 43.2289C136.521 43.0298 137.678 42.6369 138.827 42.0504C139.999 41.4719 141.06 40.7395 142.009 39.8534L142.496 40.6364C141.405 41.7781 140.193 42.6861 138.86 43.3604C137.55 44.0427 136.207 44.4587 134.83 44.6085C133.476 44.7662 132.188 44.6292 130.966 44.1972ZM131.712 37.5498C132.325 37.6899 133.053 37.7182 133.897 37.6348C134.741 37.5513 135.583 37.3654 136.423 37.0769C137.286 36.7964 138.04 36.4267 138.686 35.9677C139.34 35.4861 139.779 34.9285 140.003 34.295C140.091 34.0461 140.106 33.8603 140.047 33.7378C139.989 33.6153 139.858 33.5181 139.654 33.4461C139.134 33.2621 138.523 33.2625 137.821 33.4472C137.127 33.6093 136.401 33.8998 135.642 34.3188C134.891 34.7151 134.172 35.1993 133.486 35.7715C132.801 36.3436 132.209 36.9364 131.712 37.5498Z" fill="#F2C94C"/>
</svg>
