<svg width="149" height="50" viewBox="0 0 149 50" fill="none" xmlns="http://www.w3.org/2000/svg">
<path d="M26.1841 42.9455C25.3401 43.2215 24.3374 43.3601 23.1762 43.3611C22.015 43.3621 20.7972 43.3058 19.5228 43.1924C18.2712 43.0714 17.0499 42.9658 15.8588 42.8756C15.49 43.678 15.0307 44.3584 14.4811 44.917C13.9315 45.4755 13.2803 45.8778 12.5276 46.124C11.7292 46.3851 10.9852 46.4264 10.2955 46.248C9.59052 46.0998 9.00769 45.8232 8.54702 45.4184C8.06354 45.021 7.75466 44.617 7.62038 44.2064C7.47117 43.7502 7.54592 43.2838 7.84461 42.8074C8.14331 42.3309 8.81731 41.9211 9.86662 41.5779C10.4825 41.3765 11.1778 41.2249 11.9525 41.123C12.7426 40.9909 13.559 40.9006 14.4017 40.8523C14.628 39.7683 14.7564 38.5395 14.7869 37.1659C14.8403 35.7849 14.8636 34.3506 14.8569 32.863C14.8426 31.3526 14.8396 29.8764 14.8478 28.4345C13.5804 28.4197 12.5269 28.1708 11.6872 27.6879C10.84 27.1822 10.3008 26.5758 10.0695 25.8686C9.92032 25.4124 9.8889 24.9303 9.97527 24.4223C10.0542 23.8915 10.2618 23.4069 10.5983 22.9686C10.9272 22.5075 11.3883 22.18 11.9813 21.986C11.8042 22.448 11.7446 22.922 11.8025 23.4081C11.8833 23.8867 11.9684 24.2628 12.058 24.5366C12.3042 25.2893 12.6841 25.8721 13.1979 26.2848C13.7116 26.6976 14.2679 26.9702 14.8667 27.1026C14.8749 25.6606 14.9246 24.2682 15.0157 22.9254C15.1221 21.5523 15.3227 20.3125 15.6173 19.2061C15.9274 18.0694 16.3578 17.108 16.9087 16.3218C17.4825 15.5281 18.237 14.9784 19.1722 14.6725C19.6969 14.5009 20.2816 14.4359 20.9265 14.4775C21.5867 14.4888 22.2079 14.6897 22.7901 15.0801C23.3951 15.463 23.858 16.1449 24.1788 17.1257C24.4325 17.9013 24.5337 18.7899 24.4825 19.7914C24.4541 20.7855 24.2206 21.8088 23.782 22.8612C23.336 23.8909 22.6436 24.8622 21.7049 25.7752C20.7816 26.658 19.5404 27.3795 17.9813 27.9399L17.6734 28.0406C17.6837 30.2341 17.6293 32.4613 17.5103 34.7223C17.3912 36.9834 17.099 38.9854 16.6338 40.7283C17.6055 40.6883 18.6796 40.6526 19.8561 40.6214C21.0555 40.5826 22.2286 40.502 23.3753 40.3795C24.5374 40.2267 25.529 40.016 26.3502 39.7474C26.8977 39.5684 27.3809 39.3472 27.7998 39.084C28.234 38.7904 28.6725 38.4324 29.1151 38.0099C29.0766 39.4365 28.8048 40.5355 28.2995 41.3068C27.8245 42.0934 27.1193 42.6396 26.1841 42.9455ZM17.6805 26.7884C18.6618 26.3917 19.447 25.7814 20.036 24.9575C20.6251 24.1336 21.0628 23.2329 21.3492 22.2554C21.6355 21.278 21.7813 20.3339 21.7864 19.4232C21.807 18.4822 21.7165 17.7038 21.5151 17.0879C21.3211 16.4948 21.0765 16.1329 20.7813 16.0022C20.4785 15.8487 20.1789 15.8204 19.8824 15.9174C19.2208 16.1338 18.7316 16.7609 18.4145 17.7989C18.0974 18.8369 17.8927 20.1411 17.8003 21.7116C17.7233 23.2519 17.6833 24.9441 17.6805 26.7884ZM11.7713 44.9699C12.3644 44.7759 12.7987 44.4824 13.0742 44.0893C13.3571 43.719 13.6176 43.2803 13.8558 42.7732C13.0666 42.7535 12.3379 42.7645 11.6698 42.8063C10.9942 42.8252 10.4283 42.9093 9.97207 43.0585C9.53866 43.2003 9.25682 43.3808 9.12655 43.6002C8.97347 43.827 8.93424 44.0545 9.00884 44.2826C9.1282 44.6475 9.46449 44.9037 10.0177 45.051C10.5709 45.1984 11.1554 45.1713 11.7713 44.9699Z" fill="#F2C94C"/>
<path d="M31.4963 40.0408C30.7232 40.2126 29.9982 40.1032 29.3214 39.7127C28.6212 39.3274 28.1566 38.6193 27.9275 37.5885C27.7453 36.7685 27.735 35.8365 27.8964 34.7927C28.0579 33.7488 28.3625 32.6854 28.8103 31.6025C29.2581 30.5196 29.8204 29.5096 30.4973 28.5725C31.1689 27.612 31.933 26.7907 32.7895 26.1087C33.6459 25.4267 34.5545 24.979 35.515 24.7656C36.5225 24.5418 37.4349 24.6095 38.2523 24.9688C39.0696 25.3281 39.572 25.9294 39.7594 26.7729C39.9 27.4054 39.7789 27.9117 39.3962 28.2918C39.0135 28.6718 38.5046 28.8709 37.8694 28.8891C37.8694 28.6679 37.8577 28.4492 37.8343 28.2331C37.8343 28.0119 37.8083 27.7841 37.7562 27.5498C37.6521 27.0812 37.4647 26.6803 37.194 26.3471C36.9233 26.0139 36.4834 25.915 35.8742 26.0503C35.2182 26.196 34.5999 26.567 34.0194 27.1631C33.4389 27.7592 32.913 28.4906 32.4418 29.3575C31.9888 30.1957 31.6126 31.1028 31.3132 32.079C31.0086 33.0318 30.8068 33.9494 30.7078 34.8318C30.6089 35.7143 30.6323 36.4835 30.778 37.1395C30.9446 37.8893 31.2973 38.2043 31.8362 38.0845C32.375 37.9648 32.9152 37.5744 33.4567 36.9132C33.993 36.2286 34.5006 35.4151 34.9796 34.4728C35.4821 33.5253 35.9468 32.5738 36.3738 31.6185C36.7955 30.6397 37.1639 29.808 37.4789 29.1234C37.5232 28.9906 37.6039 28.9113 37.721 28.8852C37.82 28.8878 38.0087 28.9074 38.2872 28.9438C38.584 28.9516 38.8677 29.0115 39.1384 29.1235C39.4092 29.2354 39.5732 29.4203 39.6304 29.678C39.6981 29.9826 39.6278 30.4407 39.4195 31.0524C39.206 31.6407 38.9912 32.2785 38.7751 32.9657C38.5825 33.6478 38.5434 34.2465 38.6579 34.7619C38.7256 35.0665 38.8726 35.3411 39.0991 35.5858C39.3204 35.8071 39.6184 35.8761 39.9933 35.7928C40.5556 35.6679 41.2493 35.0835 42.0746 34.0397C42.9181 32.9672 43.6457 31.3182 44.2576 29.0925L45.0736 29.6119C44.6336 31.7256 43.902 33.5231 42.8789 35.0042C41.8558 36.4854 40.6882 37.3717 39.3762 37.6632C38.4157 37.8766 37.6334 37.7308 37.0295 37.2257C36.4256 36.7207 36.0221 36.122 35.8191 35.4295L35.7801 35.2538C35.0928 36.5866 34.4237 37.6695 33.7729 38.5024C33.1455 39.3302 32.3866 39.843 31.4963 40.0408Z" fill="#F2C94C"/>
<path d="M61.1538 36.7295C59.3349 36.8655 57.8069 36.5466 56.5697 35.7726C55.3565 34.9969 54.4237 33.9476 53.7712 32.6245C53.1427 31.2997 52.7739 29.9073 52.6647 28.4474C52.5233 26.5567 52.6692 24.6445 53.1022 22.7108C53.5334 20.7532 54.1872 18.8753 55.0636 17.0769C55.9639 15.2768 57.0101 13.6583 58.2023 12.2214C59.3945 10.7845 60.6919 9.62852 62.0945 8.7535C63.5194 7.85276 64.9617 7.34781 66.4216 7.23865C67.4747 7.15992 68.379 7.34501 69.1346 7.79392C69.8884 8.2189 70.31 9.02972 70.3995 10.2264C70.4532 10.9444 70.3815 11.756 70.1844 12.6612C70.0113 13.5646 69.7407 14.4513 69.3725 15.3211C69.0265 16.1653 68.6099 16.8703 68.1227 17.4362C67.6356 18.0021 67.1167 18.3056 66.5663 18.3468C66.3269 18.3647 66.0694 18.2997 65.7936 18.1519C65.5178 18.004 65.257 17.7347 65.0112 17.3439C65.3398 16.9102 65.7099 16.3892 66.1217 15.7808C66.5317 15.1485 66.916 14.494 67.2745 13.8174C67.6313 13.1168 67.918 12.4456 68.1348 11.8036C68.3497 11.1377 68.4393 10.5655 68.4035 10.0868C68.3713 9.65601 68.2266 9.3299 67.9694 9.10846C67.7104 8.86309 67.2817 8.76277 66.6833 8.80751C65.6303 8.88625 64.5709 9.36256 63.505 10.2365C62.4632 11.1086 61.4778 12.2532 60.5489 13.6704C59.6182 15.0637 58.7957 16.6174 58.0815 18.3314C57.3895 20.0197 56.8694 21.7553 56.5214 23.5382C56.1716 25.2972 56.0548 26.9545 56.1711 28.5102C56.257 29.6589 56.5069 30.7473 56.9207 31.7754C57.3566 32.7776 57.9817 33.5733 58.7959 34.1622C59.6118 34.7751 60.6421 35.035 61.8866 34.9419C63.179 34.8453 64.4326 34.3905 65.6474 33.5777C66.8861 32.7631 67.9881 31.73 68.9535 30.4786C69.9428 29.2253 70.7104 27.9044 71.2564 26.5158L72.2355 27.0563C71.5177 28.7225 70.6225 30.2695 69.55 31.6975C68.4757 33.1015 67.2262 34.2539 65.8014 35.1546C64.4023 36.0775 62.8531 36.6025 61.1538 36.7295Z" fill="#F2C94C"/>
<path d="M72.4717 34.7298C71.6798 34.7145 71.001 34.4374 70.4353 33.8984C69.8456 33.3589 69.561 32.5612 69.5814 31.5054C69.5976 30.6656 69.8072 29.7574 70.2101 28.781C70.6131 27.8046 71.1597 26.843 71.8502 25.8962C72.5406 24.9493 73.3251 24.1003 74.2038 23.3492C75.0829 22.574 76.019 21.956 77.0121 21.4951C78.0052 21.0342 78.9937 20.8132 79.9775 20.8322C81.0093 20.8522 81.88 21.133 82.5897 21.6748C83.2994 22.2166 83.6459 22.9195 83.6292 23.7833C83.6166 24.4312 83.3797 24.8947 82.9182 25.1738C82.4567 25.453 81.9152 25.5265 81.2936 25.3945C81.3458 25.1795 81.3859 24.9642 81.4141 24.7487C81.4663 24.5337 81.4947 24.3062 81.4993 24.0662C81.5086 23.5863 81.4209 23.1525 81.2364 22.7649C81.0518 22.3773 80.6476 22.1774 80.0237 22.1654C79.3519 22.1524 78.6636 22.3671 77.9589 22.8096C77.2542 23.2521 76.5708 23.839 75.9085 24.5703C75.2707 25.2781 74.6913 26.0711 74.1703 26.9492C73.6497 27.8033 73.2373 28.6475 72.9331 29.4818C72.6289 30.3161 72.4704 31.0691 72.4574 31.741C72.4425 32.5089 72.7111 32.8981 73.263 32.9088C73.8149 32.9194 74.4319 32.6673 75.1139 32.1524C75.7965 31.6135 76.4816 30.9426 77.1692 30.1397C77.8808 29.3373 78.5567 28.5222 79.1968 27.6944C79.8374 26.8426 80.3914 26.1212 80.8589 25.5301C80.9332 25.4115 81.0304 25.3534 81.1503 25.3557C81.2458 25.3816 81.4247 25.445 81.6868 25.5461C81.9733 25.6237 82.2349 25.7487 82.4717 25.9213C82.7084 26.0939 82.8242 26.3122 82.8191 26.5762C82.813 26.8881 82.6367 27.3168 82.2901 27.8622C81.944 28.3836 81.5849 28.9528 81.2129 29.5697C80.865 30.1871 80.6859 30.7598 80.6757 31.2877C80.6696 31.5996 80.7478 31.9012 80.9102 32.1924C81.0731 32.4595 81.3465 32.5969 81.7304 32.6043C82.3063 32.6154 83.1183 32.211 84.1663 31.3911C85.2388 30.5477 86.3347 29.1166 87.4539 27.0978L88.1245 27.7949C87.1987 29.7454 86.0641 31.3197 84.7207 32.518C83.3773 33.7163 82.0337 34.3024 80.6899 34.2765C79.7061 34.2575 78.9803 33.9314 78.5124 33.2982C78.0446 32.6651 77.7936 31.9881 77.7595 31.2673L77.763 31.0874C76.7809 32.2206 75.8755 33.1153 75.0466 33.7714C74.2418 34.428 73.3835 34.7475 72.4717 34.7298Z" fill="#F2C94C"/>
<path d="M88.5118 36.3022C87.1505 36.1673 86.1542 35.6344 85.5229 34.7037C84.9131 33.7991 84.6816 32.6065 84.8283 31.1257C84.9443 29.9555 85.2846 28.5904 85.8492 27.0304C86.4137 25.4705 87.1168 23.8519 87.9583 22.1748C88.8021 20.4737 89.7129 18.8275 90.6906 17.2361C91.6946 15.6233 92.6939 14.1788 93.6886 12.9026C94.6856 11.6026 95.6065 10.5845 96.4513 9.8482C97.296 9.11191 97.993 8.77099 98.5423 8.82542C99.02 8.87276 99.351 9.18291 99.5354 9.75589C99.7198 10.3289 99.7967 10.8912 99.7662 11.4429C99.6999 12.1116 99.4761 12.9094 99.0949 13.8363C98.7136 14.7633 98.207 15.7381 97.5751 16.7607C96.9431 17.7834 96.2288 18.7858 95.432 19.768C94.6353 20.7503 93.7764 21.6298 92.8553 22.4068C91.958 23.1861 91.0427 23.7828 90.1094 24.1967C89.9114 24.4906 89.6432 25.0067 89.3048 25.7449C88.9902 26.4855 88.6769 27.3348 88.3649 28.2927C88.0768 29.2529 87.8843 30.2227 87.7872 31.2019C87.6926 32.1572 87.7435 32.9822 87.9399 33.677C88.1579 34.398 88.6131 34.7928 89.3057 34.8615C89.9267 34.923 90.6238 34.7027 91.3971 34.2005C92.1704 33.6983 92.8242 33.0637 93.3584 32.2966C92.5221 31.7314 91.9196 30.9964 91.5511 30.0916C91.1825 29.1869 91.0455 28.2568 91.1402 27.3015C91.2562 26.1313 91.6601 25.2186 92.3521 24.5637C93.068 23.9111 93.8797 23.6298 94.7872 23.7197C95.5515 23.7955 96.1548 24.1567 96.5972 24.8035C97.0419 25.4264 97.2039 26.3468 97.0832 27.5649C96.9388 29.0217 96.4315 30.4909 95.5612 31.9723C95.6806 31.9841 95.7749 32.0055 95.8442 32.0365C95.9397 32.046 96.0592 32.0578 96.2024 32.072C97.0384 32.1548 97.7773 31.9989 98.4194 31.6043C99.0614 31.2097 99.6162 30.7221 100.084 30.1413C100.551 29.5606 100.929 29.0313 101.218 28.5534L101.681 29.359C100.944 30.7089 100.097 31.7103 99.1401 32.3631C98.2069 33.0183 97.0358 33.276 95.6267 33.1364C95.5073 33.1246 95.3759 33.1115 95.2326 33.0973C95.1132 33.0855 94.995 33.0617 94.8779 33.026C94.1027 34.0345 93.1768 34.8592 92.1004 35.5002C91.0454 36.1674 89.8493 36.4347 88.5118 36.3022ZM91.0137 22.0072C91.8227 21.388 92.6089 20.6339 93.3723 19.7448C94.1596 18.8581 94.8776 17.9405 95.5263 16.9918C96.1989 16.0455 96.745 15.1591 97.1645 14.3324C97.5841 13.5057 97.8534 12.8571 97.9723 12.3866L97.9936 12.1716C97.7716 12.222 97.379 12.5328 96.816 13.104C96.2768 13.6777 95.647 14.4352 94.9266 15.3768C94.2325 16.2968 93.5385 17.3375 92.8446 18.4987C92.1531 19.636 91.5428 20.8056 91.0137 22.0072ZM94.0846 31.1748C94.3469 30.7184 94.5495 30.2561 94.6923 29.7879C94.8614 29.2982 94.9744 28.7668 95.0312 28.1936C95.1164 27.3338 95.0717 26.6902 94.8969 26.2629C94.7461 25.838 94.5274 25.6113 94.2408 25.5829C93.9303 25.5521 93.6344 25.7399 93.3529 26.1461C93.0954 26.5547 92.937 27.0575 92.8779 27.6546C92.8282 28.1562 92.8776 28.7519 93.0263 29.442C93.175 30.132 93.5278 30.7096 94.0846 31.1748Z" fill="#F2C94C"/>
<path d="M100.037 36.6497C99.2577 36.5093 98.6314 36.1282 98.1581 35.5065C97.6612 34.8805 97.5064 34.0478 97.6936 33.0086C97.8425 32.1819 98.1932 31.3184 98.7455 30.418C99.2979 29.5177 99.9899 28.6547 100.821 27.8291C101.653 27.0034 102.562 26.2892 103.548 25.6866C104.539 25.0603 105.561 24.5982 106.615 24.3003C107.668 24.0023 108.679 23.9406 109.648 24.115C110.663 24.298 111.479 24.7131 112.094 25.3604C112.709 26.0077 112.94 26.7565 112.786 27.6068C112.671 28.2446 112.364 28.6647 111.864 28.8673C111.364 29.0699 110.818 29.0568 110.225 28.8281C110.311 28.624 110.385 28.4178 110.446 28.2095C110.532 28.0055 110.596 27.7853 110.639 27.5491C110.724 27.0767 110.706 26.6345 110.585 26.2226C110.464 25.8106 110.097 25.5493 109.482 25.4387C108.821 25.3196 108.107 25.4227 107.342 25.7481C106.576 26.0735 105.808 26.5448 105.038 27.1621C104.297 27.7601 103.599 28.4514 102.946 29.2359C102.296 29.9969 101.756 30.7652 101.323 31.5408C100.891 32.3165 100.615 33.035 100.496 33.6963C100.36 34.4521 100.563 34.879 101.107 34.9769C101.65 35.0747 102.299 34.9234 103.054 34.5229C103.813 34.0988 104.596 33.5448 105.402 32.8608C106.232 32.1812 107.028 31.4833 107.791 30.7672C108.558 30.0276 109.219 29.4029 109.775 28.8932C109.867 28.7879 109.972 28.7459 110.09 28.7671C110.18 28.8078 110.347 28.8988 110.589 29.04C110.86 29.162 111.099 29.3269 111.305 29.5347C111.512 29.7426 111.591 29.9765 111.545 30.2363C111.489 30.5434 111.247 30.9387 110.819 31.4224C110.394 31.8825 109.95 32.3877 109.485 32.938C109.044 33.4925 108.776 34.0296 108.683 34.5492C108.627 34.8563 108.657 35.1664 108.771 35.4796C108.89 35.7692 109.138 35.9481 109.516 36.0162C110.083 36.1183 110.948 35.8475 112.113 35.2038C113.305 34.5407 114.614 33.301 116.038 31.4848L116.59 32.2792C115.367 34.0586 113.998 35.4336 112.482 36.4042C110.966 37.3748 109.546 37.7409 108.224 37.5027C107.255 37.3282 106.59 36.8914 106.228 36.1921C105.867 35.4929 105.726 34.7848 105.806 34.0677L105.838 33.8905C104.689 34.8541 103.654 35.5942 102.731 36.1109C101.833 36.6318 100.935 36.8114 100.037 36.6497Z" fill="#F2C94C"/>
<path d="M124.143 41.0419C123.24 40.7982 122.607 40.379 122.245 39.7844C121.901 39.2191 121.822 38.5889 122.009 37.8937C122.134 37.4303 122.347 36.9656 122.646 36.4995C122.952 36.0103 123.258 35.5211 123.564 35.0318C123.87 34.5426 124.089 34.0547 124.22 33.5681C124.357 33.0583 124.324 32.6764 124.119 32.4222C123.943 32.1512 123.693 31.9719 123.369 31.8845C122.674 31.697 121.877 31.7929 120.98 32.1723C120.111 32.5347 119.214 33.0509 118.288 33.7208C117.384 34.3969 116.507 35.1172 115.654 35.8816C114.802 36.6461 114.055 37.3397 113.415 37.9625C112.975 37.8437 112.58 37.6501 112.229 37.3817C111.873 37.1365 111.606 36.791 111.428 36.3452C111.482 36.2356 111.715 35.9255 112.126 35.4149C112.52 34.8749 112.977 34.2401 113.497 33.5103C114.023 32.7573 114.524 31.9602 115 31.119C115.475 30.2777 115.813 29.4864 116.013 28.7449C116.225 28.6032 116.518 28.4834 116.893 28.3856C117.29 28.2939 117.674 28.2981 118.045 28.3981C118.856 28.6168 119.168 29.0737 118.98 29.7689C118.812 30.3945 118.337 31.3726 117.555 32.703C118.377 32.0545 119.243 31.4679 120.155 30.9432C121.067 30.4186 121.965 30.0393 122.848 29.8052C123.761 29.5542 124.612 29.5349 125.399 29.7474C126.396 30.0161 127.035 30.5489 127.317 31.3459C127.623 32.1491 127.666 32.9563 127.447 33.7673C127.26 34.4624 126.969 35.08 126.575 35.62C126.181 36.16 125.796 36.6652 125.42 37.1357C125.068 37.6124 124.823 38.1057 124.686 38.6155C124.586 38.9862 124.595 39.2746 124.714 39.4805C124.861 39.6696 125.04 39.7922 125.248 39.8484C125.804 39.9984 126.456 39.8881 127.202 39.5176C127.948 39.1472 128.697 38.6283 129.449 37.9609C130.23 37.2767 130.941 36.5737 131.583 35.852L132.043 36.498C131.25 37.5022 130.413 38.395 129.531 39.1763C128.679 39.9407 127.792 40.5095 126.871 40.8826C125.979 41.2388 125.07 41.2919 124.143 41.0419Z" fill="#F2C94C"/>
<path d="M130.966 44.1972C129.518 43.6853 128.538 42.8934 128.026 41.8214C127.528 40.7801 127.488 39.6711 127.904 38.4945C128.256 37.4989 128.877 36.5347 129.766 35.6019C130.687 34.6545 131.749 33.8462 132.953 33.1772C134.164 32.4855 135.399 32.0182 136.656 31.7752C137.912 31.5322 139.061 31.5947 140.102 31.9626C140.69 32.1706 141.189 32.5249 141.597 33.0257C142.036 33.5118 142.096 34.2075 141.776 35.1126C141.472 35.9724 140.939 36.6877 140.177 37.2585C139.416 37.8292 138.512 38.2608 137.467 38.5531C136.422 38.8455 135.322 39.004 134.168 39.0288C133.044 39.0389 131.953 38.9205 130.895 38.6737C130.84 38.7562 130.782 38.85 130.719 38.9552C130.687 39.0457 130.631 39.2041 130.551 39.4304C130.511 39.5435 130.45 39.7512 130.369 40.0533C130.318 40.3408 130.316 40.671 130.363 41.0438C130.409 41.4166 130.573 41.7801 130.855 42.1343C131.137 42.4886 131.595 42.7777 132.229 43.0017C133.179 43.3376 134.222 43.4134 135.356 43.2289C136.521 43.0298 137.678 42.6369 138.827 42.0504C139.999 41.4719 141.06 40.7395 142.009 39.8534L142.496 40.6364C141.405 41.7781 140.193 42.6861 138.86 43.3604C137.55 44.0427 136.207 44.4587 134.83 44.6085C133.476 44.7662 132.188 44.6292 130.966 44.1972ZM131.712 37.5498C132.325 37.6899 133.053 37.7182 133.897 37.6348C134.741 37.5513 135.583 37.3654 136.423 37.0769C137.286 36.7964 138.04 36.4267 138.686 35.9677C139.34 35.4861 139.779 34.9285 140.003 34.295C140.091 34.0461 140.106 33.8603 140.047 33.7378C139.989 33.6153 139.858 33.5181 139.654 33.4461C139.134 33.2621 138.523 33.2625 137.821 33.4472C137.127 33.6093 136.401 33.8998 135.642 34.3188C134.891 34.7151 134.172 35.1993 133.486 35.7715C132.801 36.3436 132.209 36.9364 131.712 37.5498Z" fill="#F2C94C"/>
</svg>
