<svg width="100" height="47" viewBox="0 0 100 47" fill="none" xmlns="http://www.w3.org/2000/svg">
<g clip-path="url(#clip0)">
<path d="M15.1423 28.5516C14.9642 28.7796 14.6562 28.7045 14.2184 28.3261L13.5404 27.7403L12.8625 27.1545C12.5094 26.8493 12.0267 26.4754 11.4145 26.0326C10.7259 25.5361 10.2615 25.1841 10.0214 24.9766L9.38191 24.387C9.20273 24.2075 8.99309 24.0141 8.75298 23.8066C8.8218 23.9153 9.21429 24.4578 9.93043 25.4339C10.6183 26.3856 11.2369 27.2898 11.7862 28.1463C12.313 28.9711 12.5218 29.4534 12.4126 29.5932C12.3035 29.7329 12.1756 29.8134 12.029 29.8345C11.881 29.8422 11.7364 29.785 11.5952 29.663C11.2845 29.3945 10.5208 28.9563 9.30409 28.3485C8.09316 27.7333 7.08307 27.2546 6.27383 26.9126L7.41912 28.0132C8.38302 28.9447 9.1918 29.7113 9.84545 30.3131C10.4837 30.8893 10.9228 31.2811 11.1629 31.4886C11.2194 31.5374 11.2753 31.5795 11.3304 31.6149L11.4787 31.743C11.5988 31.8467 11.667 31.9488 11.6832 32.0491C11.7066 32.1555 11.6637 32.2786 11.5545 32.4183C11.4971 32.4919 11.4142 32.5374 11.306 32.5547C11.2049 32.5782 11.1226 32.5625 11.059 32.5076C10.3387 31.8851 9.30129 30.8963 7.94682 29.5411C6.59236 28.1858 5.55497 27.197 4.83465 26.5745C4.73662 26.5637 4.65229 26.5278 4.58167 26.4668C4.49693 26.3936 4.46497 26.2982 4.48579 26.1807C4.5053 26.0497 4.56101 25.9254 4.65293 25.8077C4.72762 25.712 5.19741 25.8223 6.06231 26.1385C6.92721 26.4547 7.88038 26.8471 8.92183 27.3159C9.96328 27.7846 10.6999 28.1439 11.1316 28.3938C10.9869 28.1702 10.8477 27.9698 10.714 27.7927L10.5115 27.5068C9.70663 26.4171 8.99713 25.4097 8.38297 24.4848C8.00485 23.9239 7.72979 23.4583 7.55778 23.0879C7.36459 22.6992 7.31108 22.4497 7.39725 22.3394C7.47768 22.2364 7.57774 22.1689 7.69744 22.1368C7.81581 22.0912 7.91737 22.1051 8.00211 22.1783C8.51057 22.6177 9.2905 23.2547 10.3419 24.0893C11.3284 24.8555 12.083 25.4644 12.6055 25.916L13.1584 26.4122L13.7025 26.9194C13.7873 26.9926 13.923 27.0914 14.1097 27.2158L14.5063 27.5031C14.5756 27.5507 14.628 27.5897 14.6633 27.6202C14.7043 27.6434 14.7284 27.658 14.7354 27.6641C14.856 27.7067 14.9374 27.7463 14.9798 27.7829C15.0998 27.8866 15.1771 28.0149 15.2114 28.1678C15.2458 28.3207 15.2227 28.4486 15.1423 28.5516Z" fill="#F2C94C"/>
<path d="M17.9484 24.9443C17.7959 25.0955 17.6615 25.1829 17.545 25.2066C17.4285 25.2302 17.311 25.176 17.1927 25.044C17.0058 24.8355 16.6549 24.5139 16.1401 24.0793L15.9041 23.8998L14.7798 24.7195C14.8834 24.9187 15.1167 25.2978 15.48 25.8565C15.7455 26.2365 15.885 26.5248 15.8985 26.7214C15.9082 26.83 15.87 26.927 15.7838 27.0124C15.7043 27.0913 15.6096 27.1393 15.4997 27.1564C15.3836 27.1665 15.2913 27.1333 15.2228 27.0569L15.1959 26.9851L15.1685 26.9335C14.0047 24.7137 12.7567 22.6233 11.4245 20.6624C11.3996 20.6346 11.3624 20.5862 11.3129 20.5171C11.2573 20.441 11.1767 20.3371 11.0712 20.2055C10.8605 19.9286 10.6966 19.7039 10.5794 19.5313C10.4689 19.3521 10.4058 19.198 10.3903 19.069L10.7283 18.7338C10.8211 18.6417 10.9224 18.5872 11.0323 18.5701C11.1359 18.5461 11.2251 18.5758 11.2999 18.6592C11.7734 19.1873 12.5469 19.9036 13.6206 20.808C14.7126 21.7468 15.4517 22.4316 15.838 22.8625C15.8753 22.9042 15.9885 22.9955 16.1774 23.1364C16.3538 23.2634 16.4638 23.3512 16.5074 23.3998C16.551 23.4485 16.7711 23.6241 17.1675 23.9267C17.5262 24.2011 17.7492 24.387 17.8364 24.4843L17.8457 24.4947C17.9828 24.6476 18.017 24.7975 17.9484 24.9443ZM15.4981 23.5935C15.3847 23.509 15.2595 23.3903 15.1225 23.2374C14.5618 22.6119 13.7923 21.8653 12.814 20.9975L11.7427 20.012C12.9219 21.9278 13.8322 23.3552 14.4738 24.2943C14.6355 24.2652 14.9769 24.0316 15.4981 23.5935Z" fill="#F2C94C"/>
<path d="M24.5973 19.9761C24.315 20.1583 24.0413 20.2628 23.7763 20.2896C23.6085 20.298 23.4964 20.2539 23.4399 20.1572C23.3835 20.0604 23.3623 19.9686 23.3765 19.8818C23.3859 19.787 23.4337 19.7117 23.52 19.656C23.5984 19.6054 23.7309 19.5643 23.9175 19.5326C24.1198 19.4908 24.2406 19.4572 24.2798 19.4319C24.4288 19.3358 24.5245 19.1852 24.5668 18.9803C24.6124 18.7623 24.6069 18.5216 24.5505 18.2584C24.4565 17.7642 24.3154 17.3559 24.1273 17.0334C23.925 16.6868 23.6585 16.3594 23.3277 16.0514C23 15.7302 22.6401 15.4465 22.2481 15.2001L21.8342 14.9346C21.403 14.6581 21.0643 14.4384 20.8181 14.2754C20.5798 14.1075 20.3414 13.9117 20.1031 13.6882C19.7597 13.3772 19.4822 13.0403 19.2706 12.6775C19.1012 12.3873 18.9884 12.0828 18.932 11.7641C18.8834 11.4403 18.9054 11.1265 18.998 10.8226C19.0811 10.5026 19.2678 10.2489 19.5579 10.0617C19.6991 9.97055 19.8622 9.92631 20.0472 9.92895C20.2276 9.92351 20.3828 9.96758 20.513 10.0611L20.4611 10.4441C20.2573 10.5757 20.0808 10.6341 19.9319 10.6193C19.8001 10.7266 19.717 10.8801 19.6824 11.0799C19.6511 11.2667 19.6549 11.4584 19.6941 11.655C19.7364 11.8386 19.8023 12.0069 19.8916 12.1601C20.0704 12.4664 20.293 12.7555 20.5595 13.0274C20.8292 13.2861 21.113 13.5135 21.4109 13.7097L23.222 14.8711C23.5246 15.0753 23.821 15.3335 24.111 15.6456C24.4011 15.9578 24.6519 16.2953 24.8636 16.658C25.174 17.1901 25.3401 17.7709 25.362 18.4005C25.3698 18.7284 25.3078 19.0292 25.176 19.3029C25.049 19.5847 24.856 19.8091 24.5973 19.9761Z" fill="#F2C94C"/>
<path d="M29.0982 17.2218C28.9895 17.2758 28.872 17.2873 28.7457 17.2564C28.6277 17.2213 28.5396 17.1505 28.4815 17.044L28.3323 16.712L28.2176 16.4566C28.1748 16.3841 28.1304 16.2968 28.0845 16.1947C28.0042 16.0159 27.8692 15.7497 27.6797 15.3961L27.2873 14.5913C27.0999 14.1741 26.8332 13.5464 26.4872 12.7082C26.1878 11.9509 25.9252 11.3211 25.6995 10.8188C25.646 10.6996 25.5531 10.5271 25.4209 10.3012C25.2849 10.0667 25.192 9.8942 25.1423 9.78352C24.8707 9.17908 24.9104 8.7896 25.2614 8.61509C25.5372 8.47797 25.8797 8.37542 26.2888 8.30743C26.7062 8.23528 26.9494 8.27583 27.0182 8.42907C27.0565 8.5142 27.0552 8.61377 27.0144 8.72779C26.9782 8.82914 26.9195 8.92602 26.8383 9.01845C26.4299 9.06526 26.0741 9.13802 25.7708 9.23672C25.8365 9.36027 25.923 9.54122 26.0301 9.7796C26.1831 10.1201 26.3166 10.4287 26.4307 10.7053C26.5892 11.1264 26.7144 11.4391 26.8062 11.6434L26.9357 11.829L27.1305 11.7165C27.1935 11.6748 27.2752 11.629 27.3755 11.5791C27.7766 11.3797 28.0308 11.3991 28.1379 11.6375C28.18 11.7312 28.1787 11.8307 28.1341 11.9362C28.0857 12.0332 28.0029 12.1108 27.8859 12.169C27.7355 12.2438 27.6147 12.2934 27.5234 12.3179L27.21 12.4738C27.3262 12.6868 27.4799 13.0061 27.6712 13.4318C27.8625 13.8575 28.0305 14.2427 28.1751 14.5873C28.3834 15.1191 28.5449 15.5127 28.6597 15.7681C28.8739 16.2449 28.9894 16.4791 29.0061 16.4708L29.4141 16.2523C29.5523 16.1732 29.7217 16.0837 29.9223 15.984C30.2399 15.8261 30.4446 15.8493 30.5364 16.0537C30.5899 16.1729 30.5758 16.2893 30.4939 16.4029C30.4242 16.5208 30.3142 16.6172 30.1637 16.692L29.0982 17.2218Z" fill="#F2C94C"/>
<path d="M35.2049 14.6527C35.0119 14.7229 34.7956 14.7668 34.5559 14.7844C34.3279 14.8077 34.1452 14.8046 34.0079 14.7751C33.2949 14.6074 32.6588 13.6723 32.0996 11.9698L31.9816 11.6107L31.8462 11.1983L31.7413 10.8791C31.6248 10.5244 31.5258 10.208 31.4443 9.92997C31.3599 9.64304 31.2769 9.33074 31.1955 8.99309C31.1082 8.6377 31.0559 8.34404 31.0386 8.1121C31.0185 7.87129 31.0246 7.59113 31.0571 7.27161C31.0779 6.97621 31.1396 6.73047 31.2421 6.5344C31.3534 6.33514 31.5159 6.14211 31.7294 5.95531C31.9167 5.77808 32.1726 5.63048 32.4972 5.51253C32.6288 5.46471 32.7398 5.45909 32.8304 5.49565C32.921 5.53222 32.9823 5.59927 33.0143 5.69681C33.0434 5.78549 33.0389 5.87645 33.0008 5.9697C32.9715 6.05977 32.9188 6.12358 32.8428 6.16114L32.2244 6.38588C32.0489 6.44964 31.9318 6.61627 31.873 6.88577C31.8143 7.15527 31.8168 7.47693 31.8807 7.85074C31.9822 8.54836 32.0999 9.10112 32.2339 9.50901L32.2558 9.57551L32.6489 10.862C32.7566 11.2496 32.8891 11.6829 33.0463 12.1617C33.157 12.4987 33.2605 12.7688 33.3567 12.972C33.5054 13.2753 33.6673 13.5142 33.8425 13.6888C34.0264 13.8899 34.263 13.9975 34.5524 14.0115C34.7014 14.0168 34.8549 13.9908 35.0128 13.9335C35.1093 13.8984 35.1941 13.8279 35.2673 13.7218C35.3814 13.6804 35.4822 13.6735 35.5699 13.7012C35.6634 13.7169 35.7261 13.7735 35.7582 13.871C35.8718 14.2168 35.6873 14.4774 35.2049 14.6527Z" fill="#F2C94C"/>
<path d="M40.1723 13.3402C39.9363 13.3967 39.7017 13.3713 39.4684 13.264C39.2372 13.1659 39.0303 13.0043 38.848 12.7793C38.4644 12.2858 38.1697 11.7183 37.9641 11.0767C37.7481 10.476 37.578 9.88826 37.4537 9.31356C37.43 9.2041 37.4148 9.11179 37.4081 9.03664L37.3548 8.79034C37.3449 8.74472 37.3354 8.72301 37.3263 8.72518L37.273 8.47888L37.0794 7.51779C37.0253 7.2237 36.961 6.74978 36.8863 6.09601C36.837 5.64728 36.8496 5.19811 36.9241 4.74849C36.9482 4.55084 37.0003 4.39444 37.0804 4.27932C37.1585 4.15507 37.2611 4.07774 37.3882 4.04731C37.7512 3.96039 38.0928 3.95058 38.4129 4.01787C38.731 4.07605 39.0155 4.19982 39.2665 4.38919C39.4974 4.57379 39.7129 4.81963 39.913 5.12673C40.1112 5.42471 40.2779 5.75419 40.4133 6.11516C40.5507 6.48525 40.6658 6.88467 40.7585 7.31342L40.7822 7.42288C40.8434 7.70567 40.9032 7.96001 40.9616 8.18589L41.144 8.96258C41.7125 11.5898 41.3886 13.049 40.1723 13.3402ZM39.9935 12.7785C40.1569 12.7394 40.2928 12.6397 40.4013 12.4794C40.5079 12.3099 40.5728 12.1025 40.596 11.8571C40.6678 11.3505 40.6637 10.8238 40.5835 10.2769C40.5282 9.80083 40.4641 9.39402 40.391 9.0565C40.3022 8.646 40.154 8.11539 39.9463 7.46468C39.7399 6.77531 39.5992 6.2573 39.5242 5.91066L39.4709 5.66436C39.3777 5.32206 39.1946 5.04927 38.9215 4.84601C38.6574 4.64056 38.3711 4.57478 38.0625 4.64867C37.7539 4.72255 37.5881 4.94933 37.5653 5.329C37.5357 5.63352 37.5693 6.00927 37.666 6.45626C37.7035 6.62958 37.7396 6.77445 37.7743 6.89087L37.8543 7.26032L37.9632 7.89627C37.9865 8.09218 38.0229 8.30416 38.0722 8.53222C38.1788 9.02482 38.298 9.5096 38.4299 9.98656C38.6142 10.662 38.8491 11.3062 39.1345 11.9191C39.4258 12.5594 39.7121 12.8459 39.9935 12.7785Z" fill="#F2C94C"/>
<path d="M47.5322 12.0534C47.4209 12.0655 47.3346 12.0467 47.2735 11.997C47.2114 11.938 47.1592 11.8357 47.1168 11.6901L47.0073 11.4344L47.0046 11.4066L47.0005 11.3648C46.9704 11.0582 46.5478 10.048 45.7326 8.33405C44.9266 6.61909 44.3008 5.35397 43.8551 4.53868L44.5426 11.547L44.6079 11.6385C44.619 11.6561 44.6407 11.6866 44.6731 11.73C44.7055 11.7734 44.724 11.8184 44.7286 11.8648C44.7404 11.9856 44.7087 12.0923 44.6334 12.1849C44.558 12.2776 44.4601 12.3305 44.3395 12.3436C44.0425 12.3758 43.8663 12.1086 43.8107 11.542L43.563 9.16094C43.4836 8.44672 43.4006 7.64839 43.314 6.76596C43.2849 6.46872 43.2564 6.03528 43.2287 5.46564C43.1991 4.87743 43.1707 4.44399 43.1433 4.16533C43.1005 3.72876 43.2338 3.36695 43.5432 3.0799L43.5514 3.1635C43.6053 3.13888 43.6415 3.12556 43.66 3.12355C43.8735 3.10038 44.179 3.44273 44.5766 4.15058C44.8948 4.71686 45.1882 5.31867 45.4571 5.95602C45.7352 6.59235 46.1056 7.5003 46.5683 8.67987L46.7567 9.16635C47.0439 9.89558 47.2591 10.4167 47.4024 10.7297C47.392 8.7125 47.2534 6.34309 46.9864 3.62149L46.9686 3.44035C46.9539 3.38563 46.9433 3.32576 46.9369 3.26073C46.9096 2.98207 47.0073 2.83066 47.2299 2.80649C47.3599 2.79239 47.4623 2.8329 47.5373 2.92803C47.6215 3.02215 47.6714 3.14816 47.6869 3.30607L47.7894 4.35105C47.9112 5.78353 48.0077 7.3408 48.0789 9.02284C48.1501 10.7049 48.1313 11.6598 48.0223 11.8875C47.7605 11.991 47.5972 12.0463 47.5322 12.0534Z" fill="#F2C94C"/>
<path d="M50.823 12.1076C50.5804 12.1029 50.4693 11.4892 50.4898 10.2667L50.5548 8.0556C50.5751 7.40254 50.592 6.67007 50.6056 5.85818C50.6106 5.55956 50.5903 5.09707 50.5448 4.47072C50.5095 3.78857 50.4932 3.37283 50.4957 3.22352C50.4977 3.1022 50.5508 2.9959 50.655 2.9046C50.7592 2.8133 50.872 2.76884 50.9933 2.77123C51.3199 2.77765 51.6312 2.85846 51.9274 3.01365C52.233 3.15969 52.5002 3.36565 52.7291 3.63154C53.2142 4.21053 53.5303 4.8422 53.6775 5.52656C53.7558 5.87349 53.792 6.21494 53.7864 6.55089C53.7844 6.67221 53.7778 6.7841 53.7668 6.88657L53.7465 7.26424L53.7336 8.03413C53.7236 8.63138 53.697 9.10228 53.6539 9.44683C53.5901 9.91233 53.4759 10.3255 53.3112 10.6863C53.118 11.0746 52.8415 11.4192 52.4817 11.7202C52.3114 11.8569 52.0945 11.9926 51.8308 12.1275L50.823 12.1076ZM51.4509 11.4059C51.6375 11.4095 51.8109 11.3663 51.9711 11.2761C52.1315 11.1765 52.269 11.0439 52.3838 10.8781C52.4796 10.7306 52.5667 10.5457 52.6451 10.3232C52.733 10.0915 52.7974 9.86873 52.8384 9.65483C52.9294 9.23654 52.9879 8.80828 53.0139 8.37004C53.0251 8.25824 53.0325 8.09502 53.0361 7.88038C53.0832 5.06211 52.5619 3.58157 51.4722 3.43877C51.3998 3.85743 51.3591 4.34205 51.3498 4.89264C51.34 5.48056 51.3601 6.50782 51.4103 7.97441C51.4539 9.27285 51.4693 10.3047 51.4565 11.0699L51.4509 11.4059Z" fill="#F2C94C"/>
<path d="M56.3508 12.6438C56.2306 12.6276 56.1247 12.571 56.033 12.474C55.9506 12.3781 55.9121 12.2694 55.9175 12.1477L55.9614 11.7864L55.9951 11.5084C55.996 11.4238 56.0032 11.3259 56.0167 11.2147C56.0403 11.0201 56.0624 10.7218 56.0831 10.3196L56.1633 9.42642C56.2184 8.97242 56.3144 8.29792 56.4513 7.40291C56.5861 6.6018 56.6867 5.92792 56.7531 5.38127C56.7689 5.25155 56.7786 5.05512 56.7824 4.79196C56.7872 4.51954 56.797 4.3231 56.8116 4.20265C56.8915 3.54482 57.1257 3.24199 57.5142 3.29418C57.8194 3.33518 58.1636 3.44263 58.5468 3.6165C58.9391 3.79163 59.1252 3.96257 59.105 4.12935C59.0937 4.222 59.0414 4.30443 58.948 4.37664C58.865 4.44082 58.7652 4.48862 58.6486 4.52003C58.277 4.32887 57.9367 4.189 57.6278 4.10042C57.6202 4.24065 57.6006 4.44047 57.5691 4.6999C57.5241 5.07051 57.479 5.40344 57.4338 5.69869C57.352 6.13969 57.2976 6.47138 57.2707 6.69375L57.2853 6.92171L57.509 6.93763C57.5841 6.93831 57.6772 6.9461 57.7882 6.96101C58.2322 7.02065 58.4384 7.18019 58.4069 7.43961C58.3946 7.54153 58.3423 7.62396 58.25 7.6869C58.1589 7.74058 58.0486 7.75871 57.9191 7.74132C57.7526 7.71895 57.6242 7.69229 57.5339 7.66134L57.187 7.61474C57.1763 7.85812 57.1428 8.21145 57.0866 8.67471C57.0303 9.13798 56.9751 9.55429 56.9208 9.92366C56.8244 10.4851 56.7594 10.9048 56.7256 11.1828C56.6627 11.7016 56.6404 11.9623 56.6589 11.9648L57.1185 12.0124C57.2769 12.0243 57.4671 12.0451 57.6891 12.0749C58.0406 12.1221 58.2028 12.2569 58.1758 12.4793C58.1601 12.609 58.0881 12.6982 57.96 12.7469C57.84 12.8061 57.6968 12.8246 57.5303 12.8022L56.3508 12.6438Z" fill="#F2C94C"/>
<path d="M67.3435 15.627C67.0979 15.5377 66.8887 15.3972 66.7161 15.2054C66.5522 15.0168 66.4277 14.7979 66.3426 14.5486C66.2722 14.3146 66.231 14.0366 66.2189 13.7145C66.2098 13.3837 66.2299 13.0535 66.2792 12.724C66.3458 12.1626 66.5013 11.4499 66.7458 10.5859C66.804 10.3787 66.9147 10.0269 67.0778 9.53033L67.3531 8.69237C67.4405 8.45614 67.5264 8.20946 67.6109 7.95231C67.7827 7.42914 67.9489 7.02797 68.1093 6.7488C68.1267 6.60623 68.1586 6.464 68.2052 6.32213C68.38 5.79009 68.7186 5.43176 69.2211 5.24713C69.7237 5.0625 70.2775 5.08016 70.8828 5.30013C71.1109 5.38301 71.301 5.52159 71.4532 5.71587C71.6054 5.91014 71.651 6.10039 71.5898 6.2866C71.5607 6.37527 71.5023 6.43346 71.4146 6.46116C71.327 6.48886 71.2305 6.48358 71.1253 6.44533C71.0375 6.41345 70.9454 6.36508 70.8489 6.30022C70.7611 6.23855 70.7128 6.17634 70.704 6.11357L70.5329 6.05141L70.5417 6.0248C70.2171 5.90685 69.9219 5.87897 69.656 5.94114C69.4602 5.99904 69.2748 6.14505 69.0997 6.37919C69.0326 6.46398 68.9655 6.57855 68.8984 6.72292C68.8314 6.86729 68.7774 7.00154 68.7367 7.12568C68.7046 7.19343 68.6536 7.33371 68.5837 7.54653L68.4571 8.02162L68.3217 8.47863C68.278 8.61164 68.2095 8.76044 68.1162 8.92504C67.9995 9.13078 67.9266 9.27798 67.8975 9.36666L67.7926 9.68588C67.679 10.0317 67.5364 10.5109 67.3646 11.1234C67.2074 11.632 67.0984 12.1582 67.0376 12.7019C66.9622 13.2005 66.9802 13.6537 67.0918 14.0615C67.1916 14.475 67.4214 14.7471 67.781 14.8778C67.9302 14.932 68.1406 14.9191 68.4123 14.8392C68.7016 14.7657 68.8945 14.7464 68.991 14.7815C69.1138 14.8261 69.2191 14.9389 69.307 15.1197C69.1992 15.4478 68.9934 15.6559 68.6896 15.7439C68.4091 15.8207 68.1036 15.8238 67.7733 15.7534C67.592 15.7074 67.4487 15.6652 67.3435 15.627Z" fill="#F2C94C"/>
<path d="M72.9979 18.2258C72.8057 18.1303 72.677 18.0298 72.6119 17.9245C72.5467 17.8192 72.5505 17.6857 72.6232 17.5239C72.7379 17.2685 72.8912 16.8136 73.0831 16.1591L73.1535 15.866L71.9984 15.0574C71.8603 15.2283 71.6114 15.5888 71.2517 16.1391C71.0141 16.5313 70.8104 16.7685 70.6405 16.8507C70.5476 16.8982 70.4468 16.895 70.3381 16.841C70.2378 16.7911 70.1593 16.7156 70.1025 16.6145C70.0495 16.5048 70.0441 16.4032 70.0862 16.3095L70.1399 16.2581L70.1754 16.2133C71.7102 14.2996 73.0978 12.3492 74.3383 10.3622C74.3536 10.3281 74.3827 10.2748 74.4255 10.2024C74.4721 10.1214 74.534 10.0064 74.6112 9.85728C74.7778 9.55476 74.9157 9.31608 75.025 9.14125C75.1426 8.97058 75.2558 8.85504 75.3648 8.79463L75.791 9.00654C75.908 9.06471 75.9949 9.14436 76.0517 9.24551C76.1123 9.33814 76.1197 9.43553 76.0738 9.53769C75.783 10.1847 75.4385 11.1903 75.0402 12.5546C74.6182 13.9487 74.2886 14.9097 74.0515 15.4376C74.0285 15.4886 73.9901 15.631 73.9363 15.8646C73.8901 16.0812 73.8536 16.2193 73.8268 16.2789C73.8 16.3384 73.727 16.6146 73.6079 17.1074C73.4994 17.5534 73.4185 17.836 73.3649 17.9552L73.3592 17.968C73.275 18.1553 73.1546 18.2412 72.9979 18.2258ZM73.2723 15.3626C73.3046 15.2225 73.3628 15.0587 73.447 14.8714C73.7913 14.1053 74.1643 13.093 74.5662 11.8346L75.0376 10.4442C73.7793 12.2662 72.8537 13.6547 72.2609 14.6099C72.348 14.7573 72.6851 15.0082 73.2723 15.3626Z" fill="#F2C94C"/>
<path d="M75.5602 19.9099C75.3876 19.7986 75.3265 19.6537 75.3766 19.4752C75.4017 19.3582 75.466 19.211 75.5694 19.0337C75.7717 18.687 76.0366 18.2699 76.3643 17.7822C76.6857 17.3238 76.9569 16.9052 77.178 16.5263C77.4272 16.099 77.8129 15.4657 78.335 14.6264L79.4732 12.7309C79.5155 12.6584 79.5672 12.542 79.6284 12.3817L79.7695 12.0566L79.8047 11.9961C79.9129 11.8107 80.0203 11.6914 80.1269 11.6381C80.2336 11.5849 80.3614 11.6063 80.5104 11.7025C80.7142 11.8341 80.9025 12.0388 81.075 12.3166C81.2475 12.5945 81.3346 12.8615 81.3362 13.1178C81.3379 13.6516 81.1694 14.2087 80.8308 14.7891C80.5768 15.2244 80.3275 15.5685 80.0829 15.8212C79.843 16.0659 79.5639 16.2575 79.2456 16.396C79.335 16.7423 79.3186 17.1035 79.1964 17.4796C79.0866 17.8526 78.8883 18.2851 78.6014 18.7768C78.3145 19.2686 77.9829 19.6427 77.6066 19.8992C77.1785 20.1889 76.7395 20.2939 76.2894 20.2142C76.0228 20.1531 75.7797 20.0517 75.5602 19.9099ZM78.6386 15.5215C79.051 15.7766 79.5395 15.4205 80.1039 14.4531C80.7106 13.4131 80.8673 12.7652 80.574 12.5093C80.3796 12.639 80.0825 13.0465 79.6827 13.7318L78.6386 15.5215ZM76.2258 19.4906C76.5096 19.5962 76.795 19.5695 77.082 19.4107C77.3689 19.2519 77.6065 19.0113 77.7946 18.6888C77.9921 18.3502 78.1466 18.0393 78.2579 17.756C78.3441 17.5342 78.3974 17.3411 78.4177 17.1767C78.4506 17.0093 78.4569 16.8413 78.4365 16.6728C78.4129 16.4911 78.3454 16.3477 78.2341 16.2425C77.9346 16.6818 77.5639 17.2803 77.1218 18.0381C77.0935 18.0865 76.9963 18.2346 76.8301 18.4824L76.5668 18.8784C76.5574 18.8945 76.5542 18.9092 76.5574 18.9223L76.5432 18.9465L76.2258 19.4906Z" fill="#F2C94C"/>
<path d="M81.7466 24.6227C81.5802 24.487 81.4766 24.3605 81.4358 24.243C81.395 24.1256 81.4272 23.9954 81.5323 23.8527C81.6984 23.6273 81.9446 23.2145 82.2708 22.6145L82.4018 22.3425L81.4521 21.2977C81.2813 21.4351 80.9624 21.7344 80.4953 22.1956C80.1806 22.5284 79.932 22.7166 79.7494 22.7601C79.6489 22.7865 79.5516 22.7613 79.4576 22.6847C79.3708 22.6139 79.3106 22.5227 79.277 22.4112C79.2489 22.2921 79.2654 22.1912 79.3263 22.1086L79.3895 22.0699L79.4335 22.0336C81.3338 20.4917 83.0989 18.8817 84.7289 17.2036C84.751 17.1736 84.7906 17.1277 84.8477 17.0659C84.9103 16.9967 84.995 16.8974 85.1019 16.768C85.3284 16.5077 85.5134 16.3037 85.6569 16.1561C85.8077 16.0144 85.9424 15.9258 86.0612 15.8903L86.4301 16.191C86.5314 16.2736 86.5988 16.3707 86.6324 16.4822C86.6716 16.5863 86.6579 16.6834 86.5915 16.7736C86.1707 17.3447 85.6211 18.2557 84.9427 19.5066C84.2348 20.7818 83.7093 21.6523 83.366 22.1182C83.3328 22.1632 83.2651 22.2945 83.1628 22.5118C83.0717 22.7141 83.0067 22.8416 82.968 22.8942C82.9292 22.9468 82.7993 23.2017 82.5783 23.6589C82.3776 24.0727 82.2386 24.3321 82.1611 24.4373L82.1528 24.4486C82.031 24.6139 81.8956 24.6719 81.7466 24.6227ZM82.6248 21.8748C82.6861 21.7444 82.7777 21.5965 82.8995 21.4312C83.3977 20.7549 83.9765 19.8436 84.6358 18.6973L85.3909 17.4366C83.7789 18.9489 82.5828 20.1087 81.8027 20.916C81.8559 21.0796 82.1299 21.3992 82.6248 21.8748Z" fill="#F2C94C"/>
<path d="M86.2707 29.1931C86.1931 29.1123 86.1541 29.0313 86.1536 28.9501C86.1596 28.8622 86.2041 28.7537 86.287 28.6248L86.4111 28.3705L86.4303 28.3501L86.4591 28.3195C86.6702 28.0952 87.1666 27.0983 87.9485 25.3287C88.7369 23.5659 89.2992 22.2406 89.6355 21.3527L84.8097 26.4813L84.7814 26.5931C84.775 26.6134 84.7656 26.6506 84.753 26.7048C84.7404 26.759 84.7181 26.8031 84.6862 26.8371C84.603 26.9254 84.5036 26.9699 84.3878 26.9705C84.2721 26.9711 84.1722 26.9277 84.0881 26.8401C83.8812 26.6248 83.9728 26.3097 84.363 25.8951L85.9938 24.1415C86.4799 23.6114 87.0267 23.0234 87.6343 22.3777C87.839 22.1602 88.1461 21.8542 88.5556 21.4598C88.9779 21.0517 89.2851 20.7457 89.4769 20.5418C89.7775 20.2224 90.1306 20.092 90.536 20.1508L90.4785 20.212C90.53 20.2388 90.5623 20.2589 90.5752 20.2724C90.7239 20.4272 90.6556 20.8943 90.3702 21.6736C90.1419 22.2971 89.8718 22.9242 89.56 23.5549C89.2546 24.1923 88.8026 25.0808 88.2039 26.2203L87.9555 26.6883C87.5862 27.3937 87.3283 27.9058 87.1821 28.2244C88.6865 26.8976 90.3757 25.2384 92.2497 23.2468L92.3744 23.1143C92.4064 23.0668 92.4447 23.0192 92.4895 22.9716C92.6813 22.7677 92.8549 22.7465 93.01 22.9081C93.1006 23.0023 93.1333 23.1104 93.1082 23.2323C93.0896 23.3609 93.0259 23.483 92.9171 23.5985L92.1976 24.3632C91.1997 25.3965 90.0928 26.4913 88.8769 27.6475C87.6609 28.8037 86.9342 29.4129 86.6965 29.475C86.4579 29.3341 86.3159 29.2402 86.2707 29.1931Z" fill="#F2C94C"/>
<path d="M88.3179 32.1963C88.2449 32.0993 88.2098 31.983 88.2127 31.8472C88.2211 31.7189 88.2691 31.6122 88.3567 31.5271L88.6365 31.2942L88.8517 31.115C88.9106 31.0538 88.9831 30.9874 89.0692 30.9157C89.2198 30.7903 89.4409 30.588 89.7325 30.3088L90.4042 29.7131C90.7557 29.4205 91.2877 28.9957 92.0003 28.4388C92.6467 27.9491 93.1815 27.528 93.6047 27.1757C93.7051 27.0921 93.8473 26.9555 94.0313 26.7659C94.2225 26.5703 94.3647 26.4337 94.4579 26.3561C94.9672 25.932 95.3397 25.8766 95.5754 26.1899C95.7606 26.436 95.9272 26.7582 96.0753 27.1565C96.229 27.5622 96.2413 27.8189 96.1122 27.9264C96.0405 27.9861 95.9471 28.0093 95.832 27.9959C95.7297 27.984 95.627 27.9483 95.5238 27.8886C95.3957 27.4858 95.2541 27.1427 95.0992 26.8593C94.9972 26.9563 94.8458 27.0885 94.645 27.2557C94.3581 27.4946 94.097 27.7058 93.8619 27.8895C93.5008 28.1538 93.2342 28.3576 93.062 28.5009L92.9151 28.6778L93.0606 28.8478C93.1127 28.9015 93.1724 28.9731 93.2397 29.0626C93.5091 29.4206 93.5434 29.6831 93.3425 29.8504C93.2636 29.9161 93.1702 29.9392 93.0624 29.9199C92.9616 29.8946 92.872 29.8297 92.7934 29.7253C92.6924 29.5911 92.621 29.4807 92.5792 29.3942L92.3688 29.1145C92.1935 29.2847 91.9266 29.5191 91.5679 29.8177C91.2093 30.1163 90.8837 30.3813 90.5912 30.6128C90.1369 30.9547 89.8021 31.2152 89.5869 31.3944C89.1853 31.7288 88.99 31.9035 89.0013 31.9184L89.2898 32.2786C89.3924 32.3994 89.511 32.5493 89.6457 32.7283C89.859 33.0117 89.8796 33.225 89.7074 33.3683C89.607 33.452 89.4952 33.4662 89.372 33.411C89.2473 33.3693 89.1344 33.2814 89.0334 33.1471L88.3179 32.1963Z" fill="#F2C94C"/>
<circle cx="5.5" cy="33.5" r="1.5" fill="#F2994A"/>
<circle cx="94.5" cy="33.5" r="1.5" fill="#F2994A"/>
<path fill-rule="evenodd" clip-rule="evenodd" d="M62.4639 23.6168L64.0659 24.5783C65.2852 25.3102 65.3215 27.0779 64.1104 27.8496L60.1553 30.3656C61.3459 30.7951 61.653 32.1697 61.2815 32.857L60.8473 33.6656L63.1963 35.7387C64.118 36.4975 64.152 37.943 63.1764 38.7252L60.8473 40.7812L61.3653 41.8066C61.8838 43.1414 60.4782 44.4604 59.0819 44.1504L50.7346 42.4277L50.134 43.8328C49.8282 44.5424 49.1338 44.9994 48.3651 44.9994C47.5987 44.9994 46.9002 44.5459 46.5961 43.8322L43.8645 37.4607L36.6 44.7252C36.4172 44.9086 36.177 45 35.9374 45C35.6977 45 35.4575 44.9086 35.2747 44.7252C34.9084 44.3596 34.9084 43.766 35.2747 43.3998L42.5391 36.1354L36.1647 33.4037C34.6149 32.7393 34.6149 30.5326 36.1647 29.8682L37.5709 29.2647L35.8477 20.9039C35.4739 19.2229 37.3266 18.1324 38.4094 18.7178L39.2186 19.152L41.3028 16.7889C41.642 16.3652 42.1893 16.1033 42.777 16.1033C43.3747 16.1033 43.9166 16.3729 44.2782 16.8246L46.3342 19.152L47.1434 18.7178C47.7077 18.4125 49.1473 18.5232 49.6354 19.8428L52.1497 15.8906C52.51 15.324 53.1768 14.9988 53.7973 15C54.4694 15.0094 55.0752 15.358 55.4215 15.9334L56.3831 17.5354L60.8344 17.0402C62.161 16.9148 63.0838 18.0229 62.9584 19.1654L62.4639 23.6168ZM55.8299 33.0633C54.7998 33.3252 54.2004 31.933 55.094 31.3641L63.1032 26.2688L60.4682 24.6059L61.0946 18.9592L55.3946 19.5322L53.8143 16.899L48.6364 24.9064C48.061 25.8012 46.6764 25.1977 46.9372 24.1705L47.8799 20.4826L47.8706 20.4551L45.9129 21.5068L42.842 18.0305L39.6393 21.5068L37.7461 20.4897L39.7166 30.3855L36.9042 31.5914L43.9741 34.6998C43.9741 34.6998 44.7058 34.7039 45 35C45.2955 35.2974 45.2924 36.0328 45.2924 36.0328L48.3206 43.0957L49.6131 40.282L59.5342 42.2988L58.4924 40.3582L62.0332 37.224L58.4924 34.0887L59.5084 32.1961L55.8299 33.0633Z" fill="#F2994A"/>
</g>
<defs>
<clipPath id="clip0">
<rect width="100" height="47" fill="white"/>
</clipPath>
</defs>
</svg>
