<svg xmlns="http://www.w3.org/2000/svg" width="1438" height="931" fill="none" viewBox="0 0 1438 931"><path fill="#F2C94C" d="M965.957 49.7787L961.901 19.7405L989.943 31.2467L965.957 49.7787Z" opacity=".39"/><path fill="#F2C94C" d="M239.286 316.81L220.021 340.211L209.388 311.826L239.286 316.81Z" opacity=".638"/><path fill="#F2C94C" d="M468.602 739.696L498.879 741.126L482.502 766.632L468.602 739.696Z" opacity=".819"/><rect width="34" height="8" x="983.147" y="325.422" fill="#9B51E0" opacity=".894" transform="rotate(83.6606 983.147 325.422)"/><rect width="34" height="8" x="20.147" y="510.422" fill="#9B51E0" opacity=".628" transform="rotate(-126.254 20.147 510.422)"/><path fill="#F05138" d="M904.715 58.8754L891.939 31.3889L922.131 34.0674L904.715 58.8754Z" opacity=".627"/><rect width="34" height="8" x="304.147" y="728.422" fill="#9B51E0" opacity=".135" transform="rotate(16.7307 304.147 728.422)"/><circle cx="1051.52" cy="498.294" r="12.5" fill="#219653" opacity=".975" transform="rotate(-120.677 1051.52 498.294)"/><path fill="#F2C94C" d="M997.11 708.062L986.144 736.32L967.155 712.694L997.11 708.062Z" opacity=".405"/><circle cx="1258.41" cy="769.339" r="12.5" fill="#219653" opacity=".072" transform="rotate(-14.7056 1258.41 769.339)"/><path fill="#F2C94C" d="M666.781 116.259L654.986 88.3377L685.064 92.0833L666.781 116.259Z" opacity=".812"/><path fill="#F2C94C" d="M285.542 863.744L286.392 894.043L259.727 879.629L285.542 863.744Z" opacity=".416"/><path fill="#F05138" d="M873.159 177.693L879.504 148.054L902 168.368L873.159 177.693Z" opacity=".437"/><path fill="#F05138" d="M167.863 735.089L186.921 711.519L197.805 739.808L167.863 735.089Z" opacity=".508"/><rect width="34" height="8" x="601.147" y="141.422" fill="#9B51E0" opacity=".66" transform="rotate(-31.9452 601.147 141.422)"/><path fill="#F2C94C" d="M762.254 434.111L771.536 462.965L741.906 456.576L762.254 434.111Z" opacity=".204"/><rect width="34" height="8" x="336.147" y="661.422" fill="#9B51E0" opacity=".503" transform="rotate(-149.071 336.147 661.422)"/><path fill="#F05138" d="M1223.64 531.112L1239.26 557.09L1208.96 557.626L1223.64 531.112Z" opacity=".234"/><rect width="34" height="8" x="981.147" y="538.422" fill="#9B51E0" opacity=".329" transform="rotate(66.421 981.147 538.422)"/><circle cx="785.699" cy="97.265" r="12.5" fill="#219653" opacity=".122" transform="rotate(125.745 785.699 97.2648)"/><rect width="34" height="8" x="30.147" y="624.422" fill="#9B51E0" opacity=".438" transform="rotate(175.436 30.147 624.422)"/><rect width="34" height="8" x="361.147" y="458.422" fill="#9B51E0" opacity=".096" transform="rotate(179.998 361.147 458.422)"/><circle cx="1324.46" cy="167.241" r="12.5" fill="#219653" opacity=".196" transform="rotate(-22.3111 1324.46 167.241)"/><path fill="#F2C94C" d="M812.017 879.209L787.867 860.89L815.806 849.135L812.017 879.209Z" opacity=".797"/><circle cx="679.525" cy="808.905" r="12.5" fill="#219653" opacity=".102" transform="rotate(-127.269 679.525 808.905)"/><circle cx="1065.87" cy="236.845" r="12.5" fill="#219653" opacity=".711" transform="rotate(98.8717 1065.87 236.845)"/><path fill="#F2C94C" d="M-1.54802 866.066L22.1065 885.019L-6.13453 896.028L-1.54802 866.066Z" opacity=".339"/><rect width="34" height="8" x="547.147" y="844.422" fill="#9B51E0" opacity=".623" transform="rotate(43.6045 547.147 844.422)"/><rect width="34" height="8" x="524.147" y="324.422" fill="#9B51E0" opacity=".089" transform="rotate(-4.05719 524.147 324.422)"/><circle cx="274.124" cy="114.771" r="12.5" fill="#219653" opacity=".351" transform="rotate(-131.831 274.124 114.771)"/><path fill="#F2C94C" d="M580.14 325.98L609.993 320.731L599.613 349.209L580.14 325.98Z" opacity=".814"/><path fill="#F2C94C" d="M146.615 680.342L151.996 710.172L123.473 699.917L146.615 680.342Z" opacity=".588"/><path fill="#F05138" d="M319.3 898.916L289.494 904.429L299.622 875.861L319.3 898.916Z" opacity=".943"/><rect width="34" height="8" x="95.147" y="241.422" fill="#9B51E0" opacity=".327" transform="rotate(15.211 95.147 241.422)"/><path fill="#F2C94C" d="M252.593 295.017L222.89 301.057L232.51 272.313L252.593 295.017Z" opacity=".099"/><rect width="34" height="8" x="1126.15" y="515.422" fill="#9B51E0" opacity=".338" transform="rotate(-22.3111 1126.15 515.422)"/><path fill="#F05138" d="M1230.65 486.422L1215.49 460.173L1245.8 460.172L1230.65 486.422Z" opacity=".531"/><path fill="#F2C94C" d="M644.463 755.942L617.466 742.161L642.899 725.672L644.463 755.942Z" opacity=".231"/><path fill="#F2C94C" d="M310.861 829.235L333.115 849.815L304.166 858.798L310.861 829.235Z" opacity=".055"/><path fill="#F2C94C" d="M424.332 375.246L394.925 382.594L403.265 353.453L424.332 375.246Z" opacity=".323"/><path fill="#F2C94C" d="M113.26 68.0139L91.7478 46.6606L120.997 38.7069L113.26 68.0139Z" opacity=".541"/><path fill="#F05138" d="M345.03 374.918L361.256 349.316L375.315 376.169L345.03 374.918Z" opacity=".715"/><circle cx="1236.25" cy="497.767" r="12.5" fill="#219653" opacity=".663" transform="rotate(-137.917 1236.25 497.767)"/><circle cx="645.979" cy="61.883" r="12.5" fill="#219653" opacity=".846" transform="rotate(80.1123 645.979 61.8827)"/><rect width="34" height="8" x="1090.15" y="519.422" fill="#9B51E0" opacity=".508" transform="rotate(134.365 1090.15 519.422)"/><path fill="#F2C94C" d="M355.585 581.177L385.358 586.865L365.546 609.805L355.585 581.177Z" opacity=".604"/><rect width="34" height="8" x="800.147" y="230.422" fill="#9B51E0" opacity=".347" transform="rotate(-11.6627 800.147 230.422)"/><path fill="#F05138" d="M1231.61 430.505L1245.12 457.643L1214.86 455.767L1231.61 430.505Z" opacity=".818"/><path fill="#F05138" d="M746.152 641.662L722.894 661.1L717.69 631.239L746.152 641.662Z" opacity=".292"/><circle cx="529.374" cy="184.643" r="12.5" fill="#219653" opacity=".784" transform="rotate(91.2661 529.374 184.643)"/><path fill="#F05138" d="M143.757 471.511L169.142 488.076L142.104 501.777L143.757 471.511Z" opacity=".87"/><rect width="34" height="8" x="468.147" y="55.422" fill="#9B51E0" opacity=".195" transform="rotate(142.985 468.147 55.4219)"/><path fill="#F2C94C" d="M648.942 479.551L633.865 505.846L618.631 479.641L648.942 479.551Z" opacity=".015"/><rect width="34" height="8" x="944.147" y="247.422" fill="#9B51E0" opacity=".764" transform="rotate(77.0694 944.147 247.422)"/><path fill="#F2C94C" d="M681.963 155.246L660.897 177.04L652.556 147.9L681.963 155.246Z" opacity=".063"/><circle cx="31.294" cy="263.44" r="12.5" fill="#219653" opacity=".143" transform="rotate(173.407 31.2945 263.44)"/><circle cx="1030.43" cy="801.531" r="12.5" fill="#219653" opacity=".239" transform="rotate(-67.9442 1030.43 801.531)"/><rect width="34" height="8" x="245.147" y="328.422" fill="#9B51E0" opacity=".223" transform="rotate(-7.10009 245.147 328.422)"/><rect width="34" height="8" x="697.147" y="536.422" fill="#9B51E0" opacity=".997" transform="rotate(-48.1705 697.147 536.422)"/><path fill="#F05138" d="M1211.86 544.089L1230.92 520.519L1241.8 548.808L1211.86 544.089Z" opacity=".632"/><path fill="#F05138" d="M1187.72 288.203L1217.74 284.013L1206.36 312.106L1187.72 288.203Z" opacity=".796"/><circle cx="792.759" cy="40.117" r="12.5" fill="#219653" opacity=".155" transform="rotate(-123.211 792.759 40.1171)"/><path fill="#F05138" d="M784.301 798.681L776.824 769.307L806.001 777.518L784.301 798.681Z" opacity=".613"/><circle cx="682.491" cy="230.196" r="12.5" fill="#219653" opacity=".869" transform="rotate(174.421 682.491 230.196)"/><path fill="#F05138" d="M696.11 534.062L685.144 562.32L666.155 538.694L696.11 534.062Z" opacity=".01"/><path fill="#F2C94C" d="M890.646 808.576L905.57 834.959L875.26 834.692L890.646 808.576Z" opacity=".1"/><rect width="34" height="8" x="1143.15" y="652.422" fill="#9B51E0" opacity=".816" transform="rotate(167.83 1143.15 652.422)"/><circle cx="405.826" cy="134.512" r="12.5" fill="#219653" opacity=".072" transform="rotate(69.4639 405.826 134.512)"/><rect width="34" height="8" x="1178.15" y="443.422" fill="#9B51E0" opacity=".812" transform="rotate(-120.677 1178.15 443.422)"/><rect width="34" height="8" x="1013.15" y="218.422" fill="#9B51E0" opacity=".021" transform="rotate(53.2386 1013.15 218.422)"/><path fill="#F05138" d="M1320.83 174.872L1293.52 188.013L1295.8 157.787L1320.83 174.872Z" opacity=".298"/><path fill="#F05138" d="M622.915 236.923L648.961 221.421L649.364 251.729L622.915 236.923Z" opacity=".531"/><path fill="#F05138" d="M616.213 631.011L644.012 643.093L619.649 661.126L616.213 631.011Z" opacity=".395"/><path fill="#F2C94C" d="M336.831 325.942L335.268 356.212L309.834 339.723L336.831 325.942Z" opacity=".09"/><circle cx="805.873" cy="882.746" r="12.5" fill="#219653" opacity=".7" transform="rotate(-135.888 805.873 882.746)"/><path fill="#F05138" d="M272.831 672.942L271.268 703.212L245.834 686.723L272.831 672.942Z" opacity=".728"/><rect width="34" height="8" x="1406.15" y="79.422" fill="#9B51E0" opacity=".975" transform="rotate(-39.5507 1406.15 79.4219)"/><rect width="34" height="8" x="132.147" y="237.422" fill="#9B51E0" opacity=".584" transform="rotate(116.111 132.147 237.422)"/><rect width="34" height="8" x="996.147" y="536.422" fill="#9B51E0" opacity=".066" transform="rotate(-157.691 996.147 536.422)"/><circle cx="369.689" cy="123.758" r="12.5" fill="#219653" opacity=".461" transform="rotate(56.2815 369.689 123.758)"/><rect width="34" height="8" x="1302.15" y="836.422" fill="#9B51E0" opacity=".498" transform="rotate(64.9013 1302.15 836.422)"/><path fill="#F05138" d="M232.448 524.713L204.175 535.638L208.85 505.69L232.448 524.713Z" opacity=".951"/><path fill="#F2C94C" d="M410.586 591.666L400.627 620.294L380.814 597.355L410.586 591.666Z" opacity=".416"/><path fill="#F05138" d="M261.677 155.984L286.562 138.677L289.107 168.881L261.677 155.984Z" opacity=".301"/><path fill="#F2C94C" d="M1219.35 563.866L1208.89 592.313L1189.48 569.027L1219.35 563.866Z" opacity=".755"/><circle cx="163.652" cy="117.913" r="12.5" fill="#219653" opacity=".855" transform="rotate(163.773 163.652 117.913)"/><path fill="#F05138" d="M93.4756 36.3824L102.927 7.58275L123.143 30.1678L93.4756 36.3824Z" opacity=".684"/><circle cx="326.302" cy="478.243" r="12.5" fill="#219653" opacity=".645" transform="rotate(-68.9585 326.302 478.243)"/><path fill="#F2C94C" d="M549.432 559.582L519.376 563.506L531.007 535.515L549.432 559.582Z" opacity=".224"/><path fill="#F2C94C" d="M104.528 851.941L98.3561 822.265L127.142 831.758L104.528 851.941Z" opacity=".053"/><path fill="#F05138" d="M1110.24 144.035L1104.16 173.729L1081.48 153.615L1110.24 144.035Z" opacity=".321"/><path fill="#F2C94C" d="M133.862 396.582L115.437 420.65L103.806 392.66L133.862 396.582Z" opacity=".264"/><circle cx="1083.15" cy="232.201" r="12.5" fill="#219653" opacity=".333" transform="rotate(-148.057 1083.15 232.201)"/><circle cx="496.652" cy="388.913" r="12.5" fill="#219653" opacity=".507" transform="rotate(163.773 496.652 388.913)"/><path fill="#F2C94C" d="M768.827 448.193L770.749 478.443L743.59 464.983L768.827 448.193Z" opacity=".479"/><path fill="#F05138" d="M233.732 696.356L228.615 666.48L257.047 676.987L233.732 696.356Z" opacity=".969"/><rect width="34" height="8" x="353.147" y="726.422" fill="#9B51E0" opacity=".434" transform="rotate(87.7178 353.147 726.422)"/><rect width="34" height="8" x="229.147" y="907.422" fill="#9B51E0" opacity=".14" transform="rotate(-177.973 229.147 907.422)"/><path fill="#F2C94C" d="M1137.76 193.431L1119.69 169.095L1149.8 165.615L1137.76 193.431Z" opacity=".714"/><path fill="#F05138" d="M987.362 408.203L959.253 396.863L983.128 378.189L987.362 408.203Z" opacity=".036"/><path fill="#F05138" d="M967.752 339.744L941.937 323.859L968.601 309.445L967.752 339.744Z" opacity=".672"/><path fill="#F05138" d="M550.622 288.493L567.15 313.901L536.882 315.51L550.622 288.493Z" opacity=".446"/><circle cx="54.694" cy="33.484" r="12.5" fill="#219653" opacity=".619" transform="rotate(-167.325 54.6945 33.4837)"/><circle cx="160.452" cy="782.81" r="12.5" fill="#219653" opacity=".039" transform="rotate(-56.7904 160.452 782.81)"/><circle cx="1010.98" cy="278.004" r="12.5" fill="#219653" opacity=".943" transform="rotate(39.0419 1010.98 278.004)"/><circle cx="1412.31" cy="678.716" r="12.5" fill="#219653" opacity=".971" transform="rotate(-95.8322 1412.31 678.716)"/><rect width="34" height="8" x="863.147" y="679.422" fill="#9B51E0" opacity=".981" transform="rotate(-173.916 863.147 679.422)"/><circle cx="673.207" cy="804.37" r="12.5" fill="#219653" opacity=".578" transform="rotate(151.605 673.207 804.37)"/><circle cx="500.697" cy="84.382" r="12.5" fill="#219653" opacity=".955" transform="rotate(-79.6069 500.697 84.382)"/><rect width="34" height="8" x="864.147" y="386.422" fill="#9B51E0" opacity=".148" transform="rotate(134.365 864.147 386.422)"/><circle cx="471.631" cy="370.032" r="12.5" fill="#219653" opacity=".699" transform="rotate(-36.5078 471.631 370.032)"/><circle cx="1219.82" cy="602.383" r="12.5" fill="#219653" opacity=".795" transform="rotate(-45.1277 1219.82 602.383)"/><path fill="#F2C94C" d="M705.575 430.699L686.727 454.437L675.593 426.245L705.575 430.699Z" opacity=".996"/><rect width="34" height="8" x="83.147" y="76.422" fill="#9B51E0" opacity=".141" transform="rotate(-44.1134 83.147 76.4219)"/><path fill="#F05138" d="M681.452 24.0659L705.106 43.0189L676.865 54.0278L681.452 24.0659Z" opacity=".876"/><circle cx="1313.99" cy="542.677" r="12.5" fill="#219653" opacity=".537" transform="rotate(32.4506 1313.99 542.677)"/><rect width="34" height="8" x="51.147" y="272.422" fill="#9B51E0" opacity=".866" transform="rotate(-80.6212 51.147 272.422)"/><circle cx="115.189" cy="915.027" r="12.5" fill="#219653" opacity=".696" transform="rotate(109.52 115.189 915.027)"/><rect width="34" height="8" x="1037.15" y="912.422" fill="#9B51E0" opacity=".588" transform="rotate(156.167 1037.15 912.422)"/><path fill="#F2C94C" d="M654.513 870.259L672.797 894.434L642.718 898.181L654.513 870.259Z" opacity=".974"/><circle cx="1307.24" cy="461.438" r="12.5" fill="#219653" opacity=".88" transform="rotate(-151.099 1307.24 461.438)"/><circle cx="1356.47" cy="322.618" r="12.5" fill="#219653" opacity=".805" transform="rotate(134.365 1356.47 322.618)"/><path fill="#F05138" d="M669.047 539.591L698.6 546.329L677.988 568.553L669.047 539.591Z" opacity=".501"/><rect width="34" height="8" x="1294.15" y="724.422" fill="#9B51E0" opacity=".177" transform="rotate(116.111 1294.15 724.422)"/></svg>