<svg width="540" height="246" viewBox="0 0 540 246" fill="none" xmlns="http://www.w3.org/2000/svg">
<rect width="540" height="246" fill="#007577"/>
<path d="M191.602 174H208.898V154.523H222.68V139.617H208.898V72.5391H183.094C161.086 104.531 149.766 122.531 140.977 139.055V154.523H191.602V174ZM157.289 139.547C165.375 124.781 175.219 109.523 191.602 86.0391H191.883V140.039H157.289V139.547ZM369.07 174H386.367V154.523H400.148V139.617H386.367V72.5391H360.562C338.555 104.531 327.234 122.531 318.445 139.055V154.523H369.07V174ZM334.758 139.547C342.844 124.781 352.688 109.523 369.07 86.0391H369.352V140.039H334.758V139.547Z" fill="white"/>
<path fill-rule="evenodd" clip-rule="evenodd" d="M281.034 82.0299L285.868 80.8223C289.547 79.9031 292.949 83.1679 292.121 86.9067L289.407 99.1087C292.462 97.6735 295.633 99.6866 296.228 101.683L296.934 104.026L305.273 103.506C308.441 103.199 311.231 105.86 310.867 109.175L310.352 117.444L313.262 118.401C316.757 119.94 316.593 125.077 313.376 127.126L294.388 139.617L295.905 143.399C296.666 145.314 296.218 147.485 294.769 148.934C293.324 150.379 291.152 150.841 289.232 150.069L272.067 143.206L272.067 170.602C272.069 171.292 271.788 171.918 271.336 172.369C270.884 172.821 270.259 173.102 269.568 173.101C268.188 173.102 267.069 171.983 267.069 170.602L267.069 143.206L249.899 150.075C245.723 151.744 241.562 147.583 243.232 143.408L244.746 139.618L225.731 127.102C221.856 124.637 223.294 119.088 226.439 118.15L228.784 117.443L228.258 109.057C228.099 107.618 228.637 106.093 229.745 104.984C230.872 103.857 232.402 103.344 233.936 103.514L242.201 104.025L242.908 101.681C243.396 100.041 246.32 97.5354 249.728 99.1032L247.017 86.91C246.628 85.1622 247.272 83.2916 248.445 82.1238C249.73 80.8742 251.529 80.3892 253.267 80.8212L258.101 82.0288L265.561 72.7016C267.826 69.9638 271.655 70.3129 273.573 72.7038L281.034 82.0299ZM286.338 112.352C284.889 114.788 281.134 113.293 281.746 110.535L287.24 85.8251L279.136 87.658L269.67 75.8295L260.002 87.658L252.057 85.6726L257.393 110.535C257.995 113.307 254.246 114.78 252.801 112.352L247.625 103.62L247.555 103.586L245.847 109.26L233.501 108.496L234.017 121.09L228.53 122.742L250.905 137.686L247.876 145.263L267.068 137.793C267.068 137.793 268.455 136.421 269.569 136.425C270.686 136.428 272.067 137.821 272.067 137.821L291.095 145.429L288.227 137.686L310.737 122.781L305.114 121.086L305.88 108.5L293.292 109.265L291.639 103.78L286.338 112.352Z" fill="white"/>
<path d="M286.338 112.352C284.889 114.788 281.134 113.293 281.746 110.535L287.24 85.8251L279.136 87.658L269.67 75.8295L260.002 87.658L252.057 85.6726L257.393 110.535C257.995 113.307 254.246 114.78 252.801 112.352L247.625 103.62L247.555 103.586L245.847 109.26L233.501 108.496L234.017 121.09L228.53 122.742L250.905 137.686L247.876 145.263L267.068 137.793L267.069 103.429C267.069 102.048 268.187 100.93 269.568 100.93C270.948 100.928 272.067 102.048 272.067 103.429L272.067 137.821L291.095 145.429L288.227 137.686L310.737 122.781L305.114 121.086L305.88 108.5L293.292 109.265L291.639 103.78L286.338 112.352Z" fill="white"/>
<path d="M272.067 137.821L272.067 103.429C272.067 102.048 270.948 100.928 269.568 100.93C268.187 100.93 267.069 102.048 267.069 103.429L267.068 137.793C267.068 137.793 268.455 136.421 269.569 136.425C270.686 136.428 272.067 137.821 272.067 137.821Z" fill="white"/>
</svg>
