<svg id="Capa_1" enable-background="new 0 0 512 512" height="512" viewBox="0 0 512 512" width="512" xmlns="http://www.w3.org/2000/svg"><g><g><path d="m267.39 460.047c-.98.53-1.96 1.06-2.95 1.59-5.27 2.82-11.61 2.82-16.88 0-290.892-155.851-272.902-333.432-177.471-392.822l136.863 37.397 49.048 156.535 77.542 95.963z" fill="#a4e6ff"/><path d="m444.251 70.305c62.81 40.92 90.3 133.931 13.73 237.491l-124.44 50.914-77.541-95.963v-139.039z" fill="#a4e6ff"/><path d="m93.743 178.035c0-34.227 7.17-66.988 20.238-97.227l-43.892-11.993c-95.43 59.39-113.421 236.971 177.471 392.822 5.27 2.82 11.61 2.82 16.88 0 .99-.53 1.97-1.06 2.95-1.59l18.484-28.316c-112.955-42.048-192.131-139.804-192.131-253.696z" fill="#81ddfd"/><path d="m457.981 307.796c-36.86 49.85-97.83 102.151-190.591 152.251l-1.86-4.52c-1.21-2.92-1.79-5.99-1.79-9.01 0-7.47 3.56-14.74 9.94-19.29 6.25-4.43 9.95-11.62 9.95-19.28v-8.06c0-6-2.29-11.79-6.4-16.18l-12.36-13.18c-7.58-8.08-8.53-20.36-2.29-29.52l3.32-4.86c8.87-13.02 2.79-30.91-12.17-35.83l-35.87-11.77c-3.29-1.09-6.06-3.33-7.8-6.33l-24.6-42.31c-5.35-9.23-18.62-9.4-24.22-.32l-5.89 9.54c-2.6 4.21-7.17 6.71-12 6.71-.8 0-1.61-.07-2.41-.21-8.15-1.4-13.35-9.48-11.27-17.47l12.74-48.77c1-3.88 3.63-7.15 7.2-8.99l25.95-13.36c4.79-2.46 7.66-7.36 7.66-12.56 0-1.01-.11-2.04-.34-3.06-2.4-10.84-11.14-19.15-22.08-21.02l-17.09-2.92c-5.4-.92-10.58-2.86-15.27-5.7l-37.66-22.87c-9.32-5.65-16.18-14.59-19.22-25.05l-1.47-5.04c51.54-32.09 125.661-29.7 185.911 29.18 61.17-59.78 136.641-61.33 188.251-27.69l-2.93 5.21c-2 3.58-4.84 6.53-8.19 8.67s-7.21 3.48-11.3 3.8c-8.34.67-15.77 5.53-19.72 12.89l-9.39 17.5c-4.59 8.55-13.77 13.61-23.45 12.92l-6.52-.47c-1.09-.08-2.16-.11-3.24-.11-12.75 0-24.98 5.32-33.66 14.79-5.49 5.99-9.27 13.32-10.98 21.25l-3.93 18.3c-1.39 6.44-4.15 12.52-8.11 17.78l-21.4 28.56c-4.98 6.66-3.56 16.1 3.17 20.98l18.55 13.45c3.6 2.6 8.17 3.47 12.49 2.35l25.95-6.75c2.39-.62 4.82-.92 7.23-.92 7.61 0 15.02 3.02 20.5 8.59 5.41 5.5 12.8 8.59 20.5 8.59h14.64c4.71 0 9.34 1.15 13.48 3.36l14.82 7.86c1.42.75 2.78 1.63 4.05 2.61z" fill="#60d9a7"/><g fill="#36d39a"><path d="m273.942 427.029c-.089.065-.173.135-.263.198-6.38 4.55-9.94 11.82-9.94 19.29 0 3.02.58 6.09 1.79 9.01l1.86 4.52c13.328-7.199 25.979-14.444 38.017-21.72-10.764-3.285-21.266-7.056-31.464-11.298z"/><path d="m130.589 48.772c-21.877 1.886-42.557 8.872-60.5 20.043l1.47 5.04c3.04 10.46 9.9 19.4 19.22 25.05l13.537 8.221c6.234-20.487 15.103-40.034 26.273-58.354z"/></g></g><path d="m504.688 180.069c-4.129-.106-7.583 3.168-7.687 7.309-.889 35.318-14.875 73.127-40.527 109.748-.353-.271 1.409 1.083-15.026-11.555-3.963-3.053-6.041-3.645-19.922-11.149-18.398-9.825-34.178 2.248-46.811-10.595-8.842-8.986-22.154-12.989-34.968-9.669l-25.947 6.749c-2.15.558-4.416.131-6.206-1.162-19.793-14.351-20.997-14.308-21.534-18.504-.241-1.913.253-3.811 1.411-5.36l21.392-28.549c15.475-20.556 7.39-40.228 22.559-56.779 7.386-8.058 18.099-12.724 29.542-12.337.872.03 7.72.531 7.821.539 12.607.9 24.616-5.717 30.595-16.857l9.391-17.501c2.758-5.138 7.877-8.491 13.698-8.96 9.816-.767 18.851-6.108 24.266-14.331 25.394 18.894 42.377 46.314 48.141 78.014.741 4.076 4.646 6.779 8.722 6.038s6.779-4.646 6.038-8.722c-6.99-38.441-28.737-71.271-61.234-92.443h-.001c-27.856-18.156-61.761-26.097-95.47-22.36-34.748 3.853-68.112 19.725-96.895 46.02-28.332-25.881-61.154-41.688-95.328-45.836-33.171-4.028-66.752 3.288-94.56 20.6-.002.001-.004.002-.005.003-35.378 22.012-58.962 58.568-64.708 100.291-3.743 27.175-.156 55.694 10.66 84.765 11.776 31.651 31.944 63.236 59.944 93.876 2.795 3.058 7.54 3.272 10.597.478 3.058-2.795 3.272-7.539.477-10.597-26.694-29.211-45.857-59.151-56.958-88.988-9.943-26.723-13.26-52.793-9.859-77.487 4.685-34.017 22.615-64.177 49.696-84.129 3.956 9.916 11.138 18.74 20.911 24.661l37.672 22.877c12.314 7.458 21.878 6.818 34.985 9.598 7.985 1.365 14.274 7.351 16.029 15.278.639 2.827-.682 5.889-3.437 7.304-.941.484-24.672 12.702-25.956 13.363-5.478 2.824-9.497 7.848-11.022 13.763l-12.744 48.782c-1.519 5.839-.514 12.097 2.759 17.169 8.526 13.212 28.121 13.306 36.565-.368l5.893-9.544c2.612-4.24 8.83-4.202 11.354.153l19.217 33.051c4.839 8.224 7.565 15.715 17.332 18.951l35.87 11.77c10.217 3.361 14.386 15.571 8.321 24.478-1.954 3.464-8.473 9.453-8.68 22.334-.011 7.763 2.824 15.497 8.372 21.411 12.106 13.071 12.793 13.256 14.365 15.831 3.505 5.741 2.014 10.534 2.368 16.462 0 5.23-2.538 10.15-6.806 13.175-10.99 7.838-15.721 21.934-11.628 34.791.021.065.035.133.056.198-2.247.386-4.586.026-6.653-1.08-59.741-32.007-109.323-66.584-147.371-102.769-3.002-2.855-7.75-2.736-10.604.266-2.855 3.002-2.736 7.749.266 10.604 39.022 37.112 89.699 72.48 150.628 105.124 7.5 4.013 16.458 4.014 23.963-.002.997-.534 1.985-1.068 2.972-1.602 87.171-47.081 152.132-99.031 193.078-154.407 0 0 0-.001.001-.001 30.337-41.031 46.91-84.08 47.928-124.493.106-4.142-3.167-7.584-7.308-7.688zm-233.162 269.206c-1.065-6.11 1.476-12.317 6.529-15.92 8.212-5.82 13.114-15.317 13.114-25.402-.465-5.135 1.86-14.693-5.226-25.32-2.491-3.736-4.241-4.985-15.567-17.237-5.107-5.444-5.81-13.931-1.567-20.16l3.326-4.868c11.751-17.252 3.551-40.743-16.032-47.184-10.807-3.557-35.389-11.569-36.368-11.988-3.573-1.525-3.773-4.656-9.311-13.333l-18.448-31.73c-8.238-14.206-28.591-14.332-37.095-.499l-5.89 9.54c-2.565 4.153-8.561 4.199-11.196.116-1.018-1.577-1.318-3.444-.848-5.25l12.747-48.799c.464-1.8 1.694-3.33 3.37-4.194 6.363-3.279 25.221-12.975 26.254-13.53 10.87-5.805 15.301-19.148 7.188-33.449-5.061-8.926-13.903-15.292-24.421-17.09-14.248-2.908-20.758-2.203-29.734-7.639l-37.666-22.875c-.075-.045-.146-.094-.22-.14-7.447-4.593-12.925-11.647-15.519-20.057 23.916-13.428 52.084-18.945 79.953-15.562 33.004 4.007 64.78 20.13 91.894 46.628 2.914 2.848 7.57 2.848 10.485 0 27.521-26.895 59.785-43.076 93.305-46.793 27.871-3.09 55.863 2.694 79.605 16.331-3.043 4.564-7.919 7.22-12.904 7.609-21.597 1.732-26.373 18.779-35.122 34.323-3.188 5.939-9.594 9.466-16.304 8.988l-1.906-.138c-1.597.247-27.341-5.325-47.588 16.763-18.024 19.664-11.547 39.64-22.024 55.784-1.149 1.77.375-.341-22.879 30.692-7.355 9.837-5.52 24.082 4.775 31.546 1.369.993 14.294 10.365 18.563 13.46 5.436 3.926 12.276 5.213 18.771 3.529l25.949-6.749c7.411-1.924 15.25.332 20.501 5.67 6.511 6.62 15.887 10.832 25.85 10.832 23.729.329 15.875-1.85 35.733 8.387 2.813 1.511 4.708 2.364 6.689 3.89 20.135 15.484 13.649 10.497 15.271 11.744-38.593 49.8-97.746 96.869-176.037 140.074z"/></g></svg>