<svg width="400" height="400" viewBox="0 0 400 400" fill="none" xmlns="http://www.w3.org/2000/svg">
<path fill-rule="evenodd" clip-rule="evenodd" d="M220.287 40.1008C214.859 20.427 186.49 19.511 180.338 40.1008C165.164 91.285 141.791 124.778 121.421 153.969C98.8711 186.283 80 213.325 80 253.259C80 320.552 133.812 375 200.312 375C266.812 375 320.625 320.552 320.625 253.259C320.625 213.137 301.808 186.246 279.286 154.059C258.926 124.962 235.538 91.5378 220.287 40.1008ZM152.721 228.718C149.562 228.718 147 226.157 147 222.997V205.721C147 202.562 149.562 200 152.721 200C155.881 200 158.442 202.562 158.442 205.721V222.997C158.442 226.157 155.881 228.718 152.721 228.718ZM240.096 280.698C242.367 283.155 242.215 286.988 239.757 289.258C228.767 299.409 214.47 305 199.5 305C184.53 305 170.234 299.409 159.243 289.258C156.786 286.988 156.634 283.155 158.904 280.698C161.174 278.24 165.006 278.088 167.464 280.358C176.209 288.436 187.586 292.885 199.5 292.885C211.414 292.885 222.791 288.436 231.536 280.358C233.994 278.088 237.826 278.24 240.096 280.698ZM211.616 249.135V206.058C211.616 202.712 208.904 200 205.558 200C202.212 200 199.5 202.712 199.5 206.058V249.135C199.5 250.991 197.991 252.5 196.135 252.5H191.199C187.853 252.5 185.141 255.212 185.141 258.558C185.141 261.904 187.853 264.616 191.199 264.616H196.135C204.671 264.616 211.616 257.671 211.616 249.135ZM253.347 205.721V222.997C253.347 226.157 250.785 228.718 247.626 228.718C244.466 228.718 241.905 226.157 241.905 222.997V205.721C241.905 202.562 244.466 200 247.626 200C250.785 200 253.347 202.562 253.347 205.721Z" fill="#2F80ED"/>
</svg>
