<svg width="400" height="400" viewBox="0 0 400 400" fill="none" xmlns="http://www.w3.org/2000/svg">
<path d="M207.787 339.644C207.117 340.006 206.447 340.368 205.77 340.731C202.167 342.658 197.833 342.658 194.231 340.731C-4.62154 234.192 7.67634 112.798 72.9125 72.1992L166.471 97.7636L200 204.77L253.008 270.37L207.787 339.644Z" fill="#A4E6FF"/>
<path d="M328.688 73.2168C371.625 101.19 390.417 164.771 338.074 235.565L253.007 270.369L200 204.769V109.723L328.688 73.2168Z" fill="#A4E6FF"/>
<path d="M338.074 235.565C312.876 269.642 271.198 305.395 207.787 339.643L206.515 336.553C205.688 334.557 205.291 332.459 205.291 330.394C205.291 325.288 207.725 320.318 212.086 317.208C216.359 314.179 218.888 309.264 218.888 304.028V298.518C218.888 294.416 217.323 290.458 214.513 287.457L206.064 278.448C200.882 272.924 200.233 264.53 204.499 258.268L206.768 254.946C212.832 246.045 208.675 233.816 198.449 230.452L173.928 222.406C171.679 221.661 169.786 220.13 168.596 218.079L151.78 189.156C148.122 182.847 139.051 182.731 135.223 188.938L131.197 195.459C129.419 198.337 126.295 200.046 122.993 200.046C122.447 200.046 121.893 199.998 121.346 199.903C115.775 198.945 112.22 193.422 113.642 187.96L122.351 154.621C123.034 151.969 124.832 149.733 127.273 148.476L145.012 139.343C148.286 137.661 150.248 134.312 150.248 130.757C150.248 130.066 150.173 129.362 150.016 128.665C148.375 121.255 142.401 115.574 134.922 114.296L123.24 112.3C119.548 111.671 116.007 110.345 112.801 108.403L87.0568 92.7694C80.6857 88.9071 75.9962 82.7958 73.9181 75.6454L72.9132 72.2C108.146 50.2635 158.815 51.8973 200.001 92.1474C241.817 51.282 293.408 50.2224 328.689 73.2186L326.686 76.7801C325.319 79.2274 323.377 81.244 321.087 82.7069C318.797 84.1698 316.158 85.0858 313.362 85.3046C307.661 85.7626 302.582 89.0849 299.882 94.1161L293.463 106.079C290.325 111.924 284.05 115.383 277.433 114.911L272.976 114.59C272.231 114.535 271.499 114.515 270.761 114.515C262.045 114.515 253.685 118.151 247.751 124.625C243.998 128.72 241.414 133.73 240.245 139.151L237.559 151.661C236.608 156.064 234.722 160.22 232.015 163.816L217.386 183.339C213.981 187.892 214.952 194.345 219.553 197.681L232.233 206.875C234.694 208.653 237.818 209.247 240.771 208.482L258.511 203.867C260.145 203.444 261.806 203.238 263.453 203.238C268.655 203.238 273.721 205.303 277.467 209.111C281.165 212.87 286.217 214.983 291.481 214.983H301.488C304.708 214.983 307.873 215.769 310.703 217.28L320.834 222.653C321.805 223.165 322.735 223.767 323.603 224.437L338.074 235.565Z" fill="#60D9A7"/>
<path d="M212.266 317.072C212.205 317.117 212.147 317.165 212.086 317.208C207.724 320.318 205.291 325.288 205.291 330.394C205.291 332.459 205.687 334.557 206.515 336.553L207.786 339.643C216.897 334.722 225.545 329.769 233.774 324.796C226.416 322.55 219.237 319.972 212.266 317.072V317.072Z" fill="#36D39A"/>
<path fill-rule="evenodd" clip-rule="evenodd" d="M373.385 132.096C368.607 105.818 353.74 83.3755 331.526 68.9025C312.483 56.4911 289.305 51.0627 266.262 53.6173C242.509 56.2512 219.701 67.1012 200.025 85.0763C180.658 67.3842 158.221 56.5786 134.859 53.7431C112.184 50.9895 89.228 55.9907 70.2186 67.8251L70.2152 67.8272C46.0309 82.8745 29.909 107.864 25.9811 136.386C23.4224 154.962 25.8744 174.458 33.2682 194.331C41.3182 215.967 55.105 237.558 74.2457 258.504C79.6038 264.623 82.8161 267.791 88.8657 273.397C115.541 298.766 150.184 322.944 191.834 345.259C196.961 348.002 203.085 348.003 208.215 345.258C208.897 344.893 209.572 344.527 210.247 344.162C269.837 311.978 314.244 276.465 342.234 238.611C362.972 210.562 374.302 181.133 374.998 153.507C374.916 144.852 374.524 140.184 373.385 132.096ZM337.044 228.271C354.579 203.237 364.14 177.391 364.748 153.248C364.785 145.407 364.461 141.281 363.295 133.931C359.355 112.261 347.745 93.5167 330.386 80.6008C326.684 86.222 320.508 89.8731 313.798 90.3974C309.819 90.718 306.319 93.0101 304.434 96.5225L298.014 108.486C293.927 116.101 285.718 120.625 277.1 120.009C277.031 120.004 272.35 119.661 271.753 119.641C263.931 119.376 256.608 122.566 251.559 128.074C241.189 139.389 246.716 152.836 236.137 166.888L221.514 186.404C220.722 187.463 220.385 188.761 220.549 190.068C220.917 192.937 221.74 192.907 235.27 202.718C236.494 203.602 238.043 203.893 239.512 203.512L257.25 198.898C266.009 196.629 275.109 199.365 281.154 205.508C289.789 214.288 300.577 206.034 313.153 212.751C322.642 217.88 324.063 218.285 326.772 220.372C336.837 228.112 336.918 228.175 337 228.237L337.044 228.271ZM42.8796 190.755C50.4682 211.151 63.5679 231.618 81.8158 251.587C87.0198 257.318 90.0912 260.485 95.9327 265.966C121.942 290.702 155.836 314.339 196.675 336.218C198.088 336.974 199.687 337.221 201.223 336.957C201.208 336.912 201.199 336.866 201.185 336.821C198.387 328.032 201.621 318.396 209.133 313.038C212.051 310.97 213.786 307.607 213.786 304.032C213.544 299.98 214.563 296.703 212.167 292.779C211.093 291.018 210.623 290.892 202.347 281.957C198.555 277.914 196.617 272.627 196.624 267.32C196.766 258.515 201.222 254.421 202.558 252.053C206.704 245.964 203.854 237.617 196.87 235.32L172.349 227.274C165.672 225.062 163.809 219.941 160.501 214.319L147.364 191.725C145.639 188.748 141.388 188.722 139.603 191.621L135.574 198.145C129.802 207.493 116.407 207.428 110.579 198.397C108.341 194.929 107.654 190.652 108.693 186.66L117.404 153.313C118.447 149.269 121.194 145.835 124.939 143.905L128.347 142.15L128.666 141.986C133.747 139.37 142.221 135.007 142.682 134.77C144.566 133.802 145.469 131.709 145.032 129.777C143.832 124.358 139.533 120.266 134.075 119.333C125.115 117.432 118.577 117.87 110.159 112.772L84.4066 97.1329C77.7258 93.0853 72.8163 87.0533 70.112 80.2748C51.5995 93.9139 39.3426 114.531 36.14 137.785C33.8151 154.666 36.0826 172.487 42.8796 190.755ZM215.077 321.397C211.623 323.86 209.886 328.103 210.614 332.28C264.133 302.745 304.57 270.569 330.952 236.526C330.694 236.327 330.736 236.36 330.78 236.393C330.922 236.502 331.069 236.615 320.513 228.497C319.457 227.684 318.438 227.151 317.128 226.466C316.758 226.272 316.364 226.066 315.94 225.838C309.313 222.422 307.201 221.028 304.887 220.471C302.462 219.886 299.815 220.22 291.513 220.105C284.703 220.105 278.293 217.226 273.843 212.7C270.253 209.051 264.894 207.509 259.828 208.824L242.09 213.438C237.65 214.589 232.974 213.709 229.258 211.025C226.34 208.91 217.504 202.503 216.568 201.824C209.531 196.722 208.276 186.984 213.304 180.259C227.573 161.218 228.194 160.431 228.74 159.594C228.802 159.499 228.864 159.402 228.944 159.279C231.942 154.659 232.909 149.58 233.924 144.25C235.334 136.847 236.836 128.96 244 121.145C256.258 107.772 271.465 109.231 275.539 109.622C276.065 109.672 276.406 109.705 276.53 109.686L277.833 109.78C282.42 110.107 286.799 107.696 288.979 103.636C289.943 101.923 290.837 100.183 291.719 98.4648C296.311 89.5249 300.604 81.166 312.988 80.1729C316.396 79.907 319.729 78.0914 321.809 74.9714C305.579 65.6492 286.444 61.6953 267.391 63.8076C244.477 66.3486 222.422 77.4098 203.609 95.7951C201.616 97.742 198.433 97.742 196.441 95.7951C177.906 77.6812 156.184 66.6596 133.623 63.9204C114.572 61.6078 95.3161 65.3792 78.9673 74.5585C80.7405 80.3076 84.4852 85.1297 89.576 88.2694C89.5976 88.2829 89.6189 88.2967 89.6402 88.3106C89.6686 88.329 89.6971 88.3475 89.7264 88.3651L115.475 104.002C119.794 106.618 123.278 107.154 128.36 107.935C130.497 108.264 132.917 108.636 135.801 109.224C142.991 110.453 149.035 114.805 152.495 120.907C158.041 130.683 155.012 139.804 147.581 143.773C147.084 144.04 140.538 147.409 135.193 150.16C132.951 151.314 130.919 152.359 129.634 153.022C128.488 153.612 127.647 154.658 127.33 155.889L118.616 189.247C118.295 190.482 118.5 191.758 119.196 192.836C120.997 195.627 125.096 195.596 126.85 192.757L130.876 186.235C136.689 176.779 150.603 176.865 156.234 186.577L168.845 208.267C170.184 210.365 171.067 211.989 171.756 213.257C173.016 215.575 173.631 216.708 175.21 217.381C175.683 217.584 184.231 220.384 191.808 222.866C194.941 223.893 197.909 224.865 200.071 225.576C213.458 229.979 219.063 246.038 211.03 257.831L208.757 261.159C205.856 265.417 206.337 271.219 209.828 274.94C212.527 277.86 214.431 279.866 215.838 281.348C218.466 284.118 219.36 285.06 220.469 286.723C224.242 292.381 224.112 297.596 224.021 301.284C224.019 301.35 224.017 301.415 224.016 301.479C223.992 302.447 223.976 303.304 224.042 304.032C224.042 310.926 220.691 317.418 215.077 321.397Z" fill="#007577"/>
</svg>
