<svg width="400" height="400" viewBox="0 0 400 400" fill="none" xmlns="http://www.w3.org/2000/svg">
<path d="M271.344 331.25H129.156C129.156 278.299 160.738 232.812 200.25 232.812C239.762 232.812 271.344 278.285 271.344 331.25Z" fill="#EA4335"/>
<path d="M85.4062 331.25C81.055 331.25 76.882 332.979 73.8053 336.055C70.7285 339.132 69 343.305 69 347.656V358.594C69 362.945 70.7285 367.118 73.8053 370.195C76.882 373.271 81.055 375 85.4062 375H315.094C319.445 375 323.618 373.271 326.695 370.195C329.771 367.118 331.5 362.945 331.5 358.594V347.656C331.5 343.305 329.771 339.132 326.695 336.055C323.618 332.979 319.445 331.25 315.094 331.25C315.094 269.043 280.23 216.591 232.488 200C280.23 183.409 315.094 130.957 315.094 68.75C319.445 68.75 323.618 67.0215 326.695 63.9447C329.771 60.868 331.5 56.695 331.5 52.3438V41.4062C331.5 37.055 329.771 32.882 326.695 29.8053C323.618 26.7285 319.445 25 315.094 25H85.4062C81.055 25 76.882 26.7285 73.8053 29.8053C70.7285 32.882 69 37.055 69 41.4062V52.3438C69 56.695 70.7285 60.868 73.8053 63.9447C76.882 67.0215 81.055 68.75 85.4062 68.75C85.4062 130.957 120.27 183.409 168.012 200C120.27 216.591 85.4062 269.043 85.4062 331.25ZM129.156 68.75H271.344C271.344 121.701 239.762 167.188 200.25 167.188C160.738 167.188 129.156 121.715 129.156 68.75ZM200.25 232.812C239.755 232.812 271.344 278.285 271.344 331.25H129.156C129.156 278.299 160.738 232.812 200.25 232.812Z" fill="#007577"/>
<path fill-rule="evenodd" clip-rule="evenodd" d="M224.421 137.255C225.942 135.849 226.036 133.477 224.631 131.956C223.226 130.434 220.853 130.34 219.332 131.745C213.918 136.746 206.875 139.5 199.5 139.5C192.125 139.5 185.082 136.746 179.668 131.745C178.147 130.34 175.774 130.434 174.369 131.956C172.964 133.477 173.058 135.849 174.579 137.255C181.383 143.539 190.233 147 199.5 147C208.767 147 217.617 143.539 224.421 137.255" fill="black"/>
<path fill-rule="evenodd" clip-rule="evenodd" d="M207 112.417V85.75C207 83.6789 205.321 82 203.25 82C201.179 82 199.5 83.6789 199.5 85.75V112.417C199.5 113.566 198.566 114.5 197.417 114.5H194.361C192.29 114.5 190.611 116.179 190.611 118.25C190.611 120.321 192.29 122 194.361 122H197.417C202.701 122 207 117.701 207 112.417" fill="black"/>
<path fill-rule="evenodd" clip-rule="evenodd" d="M232.834 96.2362V85.5417C232.834 83.5857 231.248 82 229.292 82C227.336 82 225.75 83.5857 225.75 85.5417V96.2362C225.75 98.1922 227.336 99.7779 229.292 99.7779C231.248 99.7779 232.834 98.1922 232.834 96.2362" fill="black"/>
<path fill-rule="evenodd" clip-rule="evenodd" d="M170.542 99.7779V99.7779C168.586 99.7779 167 98.1922 167 96.2362V85.5417C167 83.5857 168.586 82 170.542 82C172.498 82 174.083 83.5857 174.083 85.5417V96.2362C174.083 98.1922 172.498 99.7779 170.542 99.7779" fill="black"/>
</svg>
