<svg width="400" height="400" viewBox="0 0 400 400" fill="none" xmlns="http://www.w3.org/2000/svg">
<path d="M97.9167 238.444C97.9167 246.502 91.3906 253.028 83.3333 253.028C75.276 253.028 68.75 246.502 68.75 238.444C68.75 230.387 75.276 223.861 83.3333 223.861C91.3906 223.861 97.9167 230.387 97.9167 238.444ZM200 136.361C208.057 136.361 214.583 129.835 214.583 121.778C214.583 113.72 208.057 107.194 200 107.194C191.943 107.194 185.417 113.72 185.417 121.778C185.417 129.835 191.943 136.361 200 136.361ZM282.639 170.389C290.696 170.389 297.222 163.863 297.222 155.805C297.222 147.748 290.696 141.222 282.639 141.222C274.582 141.222 268.056 147.748 268.056 155.805C268.056 163.863 274.582 170.389 282.639 170.389ZM326.255 236.852C327.148 242.151 323.557 247.152 318.259 248.039L238.536 261.328C236.78 281.161 220.301 296.778 200 296.778C178.52 296.778 161.111 279.369 161.111 257.889C161.111 236.409 178.52 219 200 219C215.853 219 229.434 228.515 235.492 242.121L315.075 228.856C320.258 227.95 325.362 231.554 326.255 236.852V236.852ZM219.444 257.889C219.444 247.152 210.737 238.444 200 238.444C189.263 238.444 180.556 247.152 180.556 257.889C180.556 268.626 189.263 277.333 200 277.333C210.737 277.333 219.444 268.626 219.444 257.889ZM117.361 141.222C109.304 141.222 102.778 147.748 102.778 155.805C102.778 163.863 109.304 170.389 117.361 170.389C125.418 170.389 131.944 163.863 131.944 155.805C131.944 147.748 125.418 141.222 117.361 141.222ZM375 238.444C375 270.528 366.341 300.581 351.266 326.43C347.857 332.276 341.361 335.667 334.592 335.667H65.408C58.6389 335.667 52.1432 332.276 48.7344 326.43C33.6589 300.581 25 270.528 25 238.444C25 141.793 103.349 63.4443 200 63.4443C296.651 63.4443 375 141.793 375 238.444ZM355.556 238.444C355.556 152.67 285.774 82.8888 200 82.8888C114.226 82.8888 44.4444 152.67 44.4444 238.444C44.4444 265.946 51.7361 292.98 65.5295 316.635L334.592 316.222C348.264 292.98 355.556 265.946 355.556 238.444Z" fill="#007577"/>
</svg>
