<svg width="400" height="400" viewBox="0 0 400 400" fill="none" xmlns="http://www.w3.org/2000/svg">
<path d="M351.266 326.986C366.341 301.137 375 271.083 375 239C375 142.349 296.651 64 200 64C103.349 64 25 142.349 25 239C25 271.083 33.6589 301.137 48.7344 326.986C52.1432 332.832 58.6389 336.222 65.408 336.222H334.592C341.361 336.222 347.857 332.832 351.266 326.986Z" stroke="#007577" stroke-width="15"/>
<path d="M119.611 139.028C111.554 139.028 105.028 145.554 105.028 153.611C105.028 161.668 111.554 168.194 119.611 168.194C127.668 168.194 134.194 161.668 134.194 153.611C134.194 145.554 127.668 139.028 119.611 139.028Z" fill="#007577"/>
<path d="M202.25 134.167C210.307 134.167 216.833 127.641 216.833 119.583C216.833 111.526 210.307 105 202.25 105C194.193 105 187.667 111.526 187.667 119.583C187.667 127.641 194.193 134.167 202.25 134.167Z" fill="#007577"/>
<path d="M284.889 168.194C292.946 168.194 299.472 161.668 299.472 153.611C299.472 145.554 292.946 139.028 284.889 139.028C276.832 139.028 270.306 145.554 270.306 153.611C270.306 161.668 276.832 168.194 284.889 168.194Z" fill="#007577"/>
<path fill-rule="evenodd" clip-rule="evenodd" d="M100.167 236.25C100.167 244.307 93.6406 250.833 85.5833 250.833C77.526 250.833 71 244.307 71 236.25C71 228.193 77.526 221.667 85.5833 221.667C93.6406 221.667 100.167 228.193 100.167 236.25ZM328.505 234.658C329.398 239.957 325.807 244.957 320.509 245.845L240.786 259.134C239.03 278.967 222.551 294.583 202.25 294.583C180.77 294.583 163.361 277.174 163.361 255.694C163.361 234.214 180.77 216.806 202.25 216.806C218.103 216.806 231.684 226.321 237.742 239.926L317.325 226.661C322.508 225.756 327.612 229.359 328.505 234.658ZM202.25 236.25C212.987 236.25 221.694 244.957 221.694 255.694C221.694 266.431 212.987 275.139 202.25 275.139C191.513 275.139 182.806 266.431 182.806 255.694C182.806 244.957 191.513 236.25 202.25 236.25Z" fill="#007577"/>
</svg>
