<svg width="200" height="200" viewBox="0 0 200 200" fill="none" xmlns="http://www.w3.org/2000/svg">
<path d="M161.425 118.992L111.283 84.55L109.892 83.2083C108.333 81.75 108.333 81.75 108.333 79.1583C108.333 75.3917 110.9 73.2 115.067 69.9417C119.492 66.4833 125 62.175 125 54.1583C125 42.675 115.65 33.325 104.167 33.325C92.6833 33.325 83.3333 42.675 83.3333 54.1583C83.3333 56.4583 85.2 58.325 87.5 58.325C89.8 58.325 91.6667 56.4583 91.6667 54.1583C91.6667 47.2667 97.275 41.6583 104.167 41.6583C111.058 41.6583 116.667 47.2667 116.667 54.1583C116.667 57.925 114.1 60.1167 109.933 63.375C105.508 66.8333 100 71.1417 100 79.1583C100 84.7333 101.342 86.6083 104.183 89.275L156.608 125.783C158.875 127.442 158.333 129.767 158.117 130.442C157.892 131.117 156.958 133.325 154.15 133.325H45.85C43.0333 133.325 42.1 131.117 41.8833 130.442C41.6667 129.775 41.125 127.442 43.3917 125.792L85.775 95.0333C87.6333 93.6833 88.05 91.075 86.7 89.2167C85.35 87.3583 82.7417 86.9333 80.8833 88.2917L38.4917 119.058C34.0333 122.3 32.25 127.783 33.9583 133.033C35.6667 138.275 40.3333 141.667 45.85 141.667H154.15C159.667 141.667 164.333 138.275 166.05 133.025C167.75 127.775 165.967 122.292 161.425 118.992ZM100 0C44.8583 0 0 44.8583 0 100C0 155.142 44.8583 200 100 200C155.142 200 200 155.142 200 100C200 44.8583 155.142 0 100 0ZM100 191.667C49.4583 191.667 8.33333 150.542 8.33333 100C8.33333 49.4583 49.4583 8.33333 100 8.33333C150.542 8.33333 191.667 49.4583 191.667 100C191.667 150.542 150.542 191.667 100 191.667Z" fill="white"/>
</svg>
