<svg width="512" height="512" viewBox="0 0 512 512" fill="none" xmlns="http://www.w3.org/2000/svg">
<path d="M325.027 138.426L363.282 75.5225C375.672 56.9112 362.337 32 339.998 32H172.129C149.764 32 136.429 56.9375 148.846 75.54L186.969 138.435C23.8868 242.516 32.068 375.315 32.068 392.5C32.068 440.826 75.0393 480 128.038 480H383.976C436.983 480 479.945 440.826 479.945 392.5C479.945 375.63 487.191 242 325.027 138.426ZM172.129 60H339.998L297.009 130H214.996L172.129 60ZM451.998 392.5C451.998 425.304 421.504 452 384.019 452H128.038C90.553 452 60.0593 425.304 60.0593 392.5V389.56C59.2455 337.182 77.5593 238.185 207.856 158H304.193C434.183 238.027 452.663 337.322 451.998 389.875V392.5Z" fill="#007577"/>
<path d="M291.129 274.773C291.129 234.951 221.44 234.951 221.44 274.773C221.44 314.596 291.129 294.684 291.129 334.507C291.129 374.329 221.44 374.329 221.44 334.507M256.284 215.04V244.907M256.284 394.24V364.373" stroke="#007577" stroke-width="25" stroke-linejoin="round"/>
</svg>
