<svg width="400" height="400" viewBox="0 0 400 400" fill="none" xmlns="http://www.w3.org/2000/svg">
<path d="M247.852 104.235L285.723 48.7412C286.971 46.2434 287.561 43.4683 287.438 40.6786C287.314 37.8889 286.48 35.177 285.015 32.7996C283.55 30.4223 281.503 28.4582 279.067 27.0933C276.63 25.7284 273.886 25.0079 271.094 25H128.906C126.11 24.9997 123.36 25.7143 120.917 27.0758C118.474 28.4374 116.42 30.4007 114.95 32.7793C113.479 35.158 112.641 37.873 112.515 40.6667C112.389 43.4603 112.979 46.2398 114.23 48.7412L152.148 104.242C18.2872 186.096 25.0547 293.003 25.0547 306.641C25.0547 344.396 58.626 375 100.038 375H299.982C341.388 375 374.959 344.396 374.959 306.641C374.959 293.249 380.975 185.645 247.852 104.235ZM239.84 57.8125L213.713 96.0938H186.287L160.16 57.8125H239.84ZM342.147 306.641C342.147 326.239 323.232 342.188 299.982 342.188H100.038C76.796 342.188 57.8741 326.239 57.8741 306.641C57.3135 251.27 80.1797 186.704 174.707 128.906H225.348C319.397 186.451 342.605 251.222 342.147 306.641Z" fill="#007577"/>
<path d="M227.444 214.667C227.444 183.556 173 183.556 173 214.667C173 245.778 227.444 230.222 227.444 261.333C227.444 292.444 173 292.444 173 261.333M200.222 168V191.333M200.222 308V284.667" stroke="#007577" stroke-width="15" stroke-linejoin="round"/>
</svg>
