<svg width="400" height="400" viewBox="0 0 400 400" fill="none" xmlns="http://www.w3.org/2000/svg">
<mask id="path-1-inside-1" fill="white">
<path d="M386.958 174.36L297.767 130.154C288.559 142.889 268.174 151.776 244.399 151.776C220.624 151.776 200.239 142.889 191.031 130.154L101.84 174.36C98.2211 176.192 96.7552 180.59 98.5418 184.209L124.745 236.661C126.577 240.279 130.975 241.745 134.594 239.959L160.522 227.27C165.378 224.888 171.058 228.415 171.058 233.866V350.039C171.058 358.147 177.609 364.698 185.717 364.698H302.989C311.097 364.698 317.648 358.147 317.648 350.039V233.82C317.648 228.415 323.328 224.842 328.184 227.224L354.112 239.913C357.731 241.745 362.129 240.279 363.961 236.615L390.21 184.209C392.042 180.59 390.576 176.146 386.958 174.36V174.36Z"/>
</mask>
<path d="M386.958 174.36L297.767 130.154C288.559 142.889 268.174 151.776 244.399 151.776C220.624 151.776 200.239 142.889 191.031 130.154L101.84 174.36C98.2211 176.192 96.7552 180.59 98.5418 184.209L124.745 236.661C126.577 240.279 130.975 241.745 134.594 239.959L160.522 227.27C165.378 224.888 171.058 228.415 171.058 233.866V350.039C171.058 358.147 177.609 364.698 185.717 364.698H302.989C311.097 364.698 317.648 358.147 317.648 350.039V233.82C317.648 228.415 323.328 224.842 328.184 227.224L354.112 239.913C357.731 241.745 362.129 240.279 363.961 236.615L390.21 184.209C392.042 180.59 390.576 176.146 386.958 174.36V174.36Z" stroke="#007577" stroke-width="20" mask="url(#path-1-inside-1)"/>
<path d="M282.673 127.5L301.429 90.055C303.261 86.4361 301.795 81.9926 298.176 80.206L208.985 36C199.778 48.735 179.393 57.622 155.618 57.622C131.842 57.622 111.457 48.735 102.25 36L13.0588 80.206C9.43988 82.0384 7.97398 86.4361 9.76054 90.055L35.9635 142.507C37.7959 146.126 42.1936 147.592 45.8125 145.805L71.7406 133.116C76.5964 130.734 82.2768 134.261 82.2768 139.712V255.885C82.2768 263.993 88.8275 270.544 96.9358 270.544H155.572" stroke="#EA4335" stroke-width="10"/>
<path fill-rule="evenodd" clip-rule="evenodd" d="M268.809 242.975C270.236 241.656 270.324 239.43 269.006 238.003C267.687 236.576 265.461 236.488 264.034 237.806C258.955 242.497 252.347 245.081 245.428 245.081C238.509 245.081 231.901 242.497 226.822 237.806C225.395 236.488 223.169 236.576 221.851 238.003C220.532 239.43 220.62 241.656 222.048 242.975C228.431 248.87 236.734 252.117 245.428 252.117C254.122 252.117 262.426 248.87 268.809 242.975" fill="black"/>
<path fill-rule="evenodd" clip-rule="evenodd" d="M252.58 225.463V202.565C252.58 200.787 251.139 199.345 249.36 199.345C247.582 199.345 246.14 200.787 246.14 202.565V225.463C246.14 226.449 245.338 227.252 244.351 227.252H241.728C239.949 227.252 238.508 228.694 238.508 230.472C238.508 232.25 239.949 233.692 241.728 233.692H244.351C248.889 233.692 252.58 230.001 252.58 225.463" fill="black"/>
<path fill-rule="evenodd" clip-rule="evenodd" d="M270.352 214.66V204.036C270.352 202.093 268.777 200.518 266.834 200.518C264.891 200.518 263.315 202.093 263.315 204.036V214.66C263.315 216.603 264.891 218.178 266.834 218.178C268.777 218.178 270.352 216.603 270.352 214.66" fill="black"/>
<path fill-rule="evenodd" clip-rule="evenodd" d="M224.435 218.178V218.178C222.492 218.178 220.917 216.603 220.917 214.66V204.036C220.917 202.093 222.492 200.518 224.435 200.518C226.378 200.518 227.953 202.093 227.953 204.036V214.66C227.953 216.603 226.378 218.178 224.435 218.178" fill="black"/>
</svg>
