<svg width="400" height="400" viewBox="0 0 400 400" fill="none" xmlns="http://www.w3.org/2000/svg">
<mask id="path-1-inside-1" fill="white">
<path d="M370.175 112.766L263.712 60C252.722 75.2011 228.389 85.8091 200.01 85.8091C171.631 85.8091 147.298 75.2011 136.307 60L29.8448 112.766C25.5251 114.954 23.7753 120.203 25.9078 124.523L57.1849 187.132C59.3721 191.451 64.6214 193.201 68.9412 191.069L99.8902 175.922C105.686 173.079 112.467 177.289 112.467 183.796V322.465C112.467 332.144 120.286 339.963 129.964 339.963H269.946C279.624 339.963 287.443 332.144 287.443 322.465V183.741C287.443 177.289 294.224 173.024 300.02 175.867L330.969 191.014C335.289 193.201 340.538 191.451 342.725 187.077L374.057 124.523C376.244 120.203 374.494 114.899 370.175 112.766Z"/>
</mask>
<path d="M370.175 112.766L263.712 60C252.722 75.2011 228.389 85.8091 200.01 85.8091C171.631 85.8091 147.298 75.2011 136.307 60L29.8448 112.766C25.5251 114.954 23.7753 120.203 25.9078 124.523L57.1849 187.132C59.3721 191.451 64.6214 193.201 68.9412 191.069L99.8902 175.922C105.686 173.079 112.467 177.289 112.467 183.796V322.465C112.467 332.144 120.286 339.963 129.964 339.963H269.946C279.624 339.963 287.443 332.144 287.443 322.465V183.741C287.443 177.289 294.224 173.024 300.02 175.867L330.969 191.014C335.289 193.201 340.538 191.451 342.725 187.077L374.057 124.523C376.244 120.203 374.494 114.899 370.175 112.766Z" stroke="#007577" stroke-width="20" mask="url(#path-1-inside-1)"/>
<path d="M237.568 157.086L231.751 154.659L229.325 148.837C229.261 148.707 229.161 148.598 229.038 148.521C228.914 148.445 228.772 148.404 228.627 148.404C228.481 148.404 228.339 148.445 228.215 148.521C228.092 148.598 227.992 148.707 227.928 148.837L225.502 154.659L219.685 157.086C219.555 157.151 219.446 157.251 219.37 157.374C219.294 157.498 219.253 157.64 219.253 157.785C219.253 157.93 219.294 158.072 219.37 158.196C219.446 158.319 219.555 158.419 219.685 158.484L225.502 160.912L227.928 166.732C227.992 166.863 228.092 166.972 228.215 167.049C228.339 167.126 228.481 167.166 228.627 167.166C228.772 167.166 228.914 167.126 229.038 167.049C229.161 166.972 229.261 166.863 229.325 166.732L231.751 160.912L237.568 158.484C237.698 158.419 237.807 158.319 237.883 158.196C237.96 158.072 238 157.93 238 157.785C238 157.64 237.96 157.498 237.883 157.374C237.807 157.251 237.698 157.151 237.568 157.086V157.086ZM216.364 164.123L200.995 161.882L194.123 147.932C193.848 147.367 193.419 146.891 192.885 146.56C192.351 146.228 191.735 146.055 191.106 146.059C190.479 146.051 189.863 146.224 189.331 146.556C188.798 146.888 188.372 147.365 188.103 147.932L181.231 161.882L165.876 164.123C163.124 164.516 162.026 167.929 164.017 169.875L175.138 180.724L172.5 196.048C172.416 196.531 172.437 197.028 172.564 197.502C172.692 197.977 172.921 198.417 173.236 198.794C173.551 199.17 173.945 199.473 174.39 199.682C174.835 199.89 175.319 199.999 175.811 200C176.357 200 176.895 199.865 177.376 199.607L191.12 192.374L204.864 199.607C205.343 199.858 205.875 199.993 206.416 200C206.906 199.998 207.39 199.89 207.834 199.682C208.278 199.475 208.672 199.173 208.988 198.799C209.304 198.424 209.535 197.985 209.665 197.513C209.795 197.04 209.82 196.545 209.74 196.061L207.116 180.737L218.237 169.889C220.228 167.929 219.116 164.532 216.364 164.123ZM202.08 179.095L204.658 194.204L191.106 187.059L177.555 194.204L180.132 179.095L169.19 168.382L184.335 166.172L191.12 152.426L197.887 166.172L213.036 168.382L202.08 179.095ZM224.99 136.914L217.872 133.352L214.315 126.197C213.523 124.601 210.914 124.601 210.122 126.197L206.565 133.322L199.447 136.884C199.059 137.08 198.733 137.379 198.505 137.749C198.278 138.119 198.157 138.545 198.156 138.979C198.158 139.418 198.279 139.847 198.507 140.221C198.734 140.596 199.059 140.901 199.447 141.105L206.565 144.666L210.122 151.791C210.317 152.181 210.616 152.51 210.986 152.74C211.356 152.97 211.783 153.093 212.219 153.095C212.655 153.096 213.083 152.975 213.454 152.744C213.825 152.514 214.123 152.184 214.315 151.791L217.872 144.666L224.99 141.105C225.378 140.909 225.705 140.61 225.933 140.24C226.161 139.87 226.281 139.444 226.281 139.009C226.281 138.575 226.161 138.149 225.933 137.779C225.705 137.409 225.378 137.109 224.99 136.914V136.914ZM215.075 140.812C214.62 141.041 214.251 141.412 214.022 141.868L212.219 145.488L210.415 141.868C210.182 141.415 209.814 141.046 209.362 140.812L205.746 138.995L209.362 137.177C209.818 136.948 210.187 136.578 210.415 136.121L212.219 132.5L214.022 136.121C214.254 136.575 214.622 136.944 215.075 137.177L218.692 138.995L215.075 140.812Z" fill="#007577"/>
</svg>
