<svg width="400" height="400" viewBox="0 0 400 400" fill="none" xmlns="http://www.w3.org/2000/svg">
<path d="M93.2857 350H307.571M200.429 350V264.286M29 50H371.857V264.286H29V50Z" stroke="black" stroke-width="15" stroke-linejoin="round"/>
<path d="M154.181 115.514L160.493 200H131.332L128.401 137.782L124.161 200H95L101.312 115.514M154.181 115.514L153.322 107H127.507H102.171L101.312 115.514M154.181 115.514H127.507H101.312" stroke="black" stroke-width="4" stroke-linejoin="round"/>
<path d="M186 208H183V211M186 208H189V214H183V211M186 208V99M186 99H183V96M186 99H189V93H183V96M74 211V208H71M74 211V214H68V208H71M74 211H183M71 99H68V93H74V96M71 99H74V96M71 99V208M74 96H183" stroke="black" stroke-width="2"/>
<path d="M191.287 191.024C191.287 189.931 190.357 189 189.24 189C188.147 189 187.216 189.931 187.216 191.024V197.817C187.216 198.91 188.147 199.841 189.24 199.841C190.357 199.841 191.287 198.91 191.287 197.817V191.024ZM176.004 203.888C176.795 204.679 178.097 204.679 178.865 203.888C179.656 203.121 179.656 201.818 178.865 201.027L174.096 196.235C173.328 195.467 172.026 195.444 171.235 196.212C170.467 196.979 170.467 198.282 171.235 199.073L176.004 203.888ZM199.36 201.26C198.592 202.05 198.592 203.353 199.36 204.121C200.151 204.912 201.477 204.912 202.244 204.121L207.037 199.329C207.827 198.538 207.827 197.235 207.037 196.444C206.269 195.676 204.966 195.676 204.198 196.444L199.36 201.26ZM201.174 236.736L196.545 225.988L202.477 226.314C203.431 226.36 203.873 225.337 203.198 224.639L189.008 210.146C188.38 209.495 187.449 209.844 187.403 210.774L187.147 230.92C187.123 231.92 188.263 232.339 188.891 231.594L192.683 227.407L197.126 238.411C197.359 238.899 197.824 239.108 198.29 238.946L200.756 237.922C201.221 237.759 201.407 237.224 201.174 236.736ZM166.024 212.216C164.931 212.216 164 213.147 164 214.24C164 215.334 164.931 216.264 166.024 216.264H172.84C173.957 216.264 174.887 215.334 174.887 214.24C174.887 213.147 173.957 212.216 172.84 212.216H166.024ZM212.457 216.264C213.573 216.264 214.504 215.334 214.504 214.24C214.504 213.147 213.573 212.216 212.457 212.216H205.664C204.571 212.216 203.64 213.147 203.64 214.24C203.64 215.334 204.571 216.264 205.664 216.264H212.457ZM171.444 229.152C170.676 229.92 170.676 231.246 171.421 232.013C172.189 232.781 173.515 232.804 174.305 232.036L179.098 227.244C179.889 226.477 179.889 225.174 179.098 224.383C178.353 223.615 177.027 223.615 176.236 224.383L171.444 229.152Z" fill="black"/>
<rect x="233" y="93" width="100" height="15" fill="#C4C4C4"/>
<rect x="233" y="137" width="100" height="7" fill="#C4C4C4"/>
<rect x="233" y="147" width="100" height="7" fill="#C4C4C4"/>
<rect x="233" y="157" width="100" height="7" fill="#C4C4C4"/>
<rect x="233" y="167" width="100" height="7" fill="#C4C4C4"/>
<rect x="233" y="177" width="100" height="7" fill="#C4C4C4"/>
<rect x="233" y="187" width="100" height="7" fill="#C4C4C4"/>
<rect x="233" y="197" width="100" height="7" fill="#C4C4C4"/>
<rect x="233" y="207" width="100" height="7" fill="#C4C4C4"/>
<rect x="233" y="115" width="100" height="15" rx="5" fill="black"/>
</svg>
