<svg width="210" height="210" viewBox="0 0 210 210" fill="none" xmlns="http://www.w3.org/2000/svg">
<path d="M105 205C160.228 205 205 160.228 205 105C205 49.7715 160.228 5 105 5C49.7715 5 5 49.7715 5 105C5 160.228 49.7715 205 105 205Z" stroke="white" stroke-width="10" stroke-linejoin="round"/>
<path d="M105 205C127.091 205 145 160.228 145 105C145 49.7715 127.091 5 105 5C82.9086 5 65 49.7715 65 105C65 160.228 82.9086 205 105 205Z" stroke="white" stroke-width="10" stroke-linejoin="round"/>
<path d="M15 145H195M15 65H195H15Z" stroke="white" stroke-width="10" stroke-linejoin="round"/>
</svg>
