<svg width="400" height="400" viewBox="0 0 400 400" fill="none" xmlns="http://www.w3.org/2000/svg">
<g clip-path="url(#clip0)">
<path d="M183.53 301.336C183.949 302.974 185.354 304.23 187.05 304.354C187.601 304.398 188.155 304.326 188.676 304.142C189.197 303.958 189.674 303.666 190.074 303.285C190.477 302.905 190.798 302.447 191.016 301.938C191.234 301.429 191.344 300.88 191.341 300.326L191.28 295.589C191.277 295.297 191.217 295.008 191.102 294.739C190.987 294.471 190.82 294.227 190.611 294.024C190.402 293.82 190.154 293.659 189.883 293.552C189.611 293.444 189.321 293.392 189.029 293.397L189.02 293.397L184.275 293.501C183.722 293.515 183.179 293.643 182.678 293.877C182.177 294.111 181.73 294.447 181.366 294.862C181.001 295.278 180.727 295.765 180.56 296.292C180.393 296.819 180.338 297.375 180.397 297.924C180.579 299.614 181.881 300.972 183.53 301.336ZM183.712 296.927C183.792 296.835 183.889 296.762 183.999 296.71C184.108 296.658 184.227 296.629 184.348 296.626L188.168 296.542L188.216 300.357C188.218 300.587 188.129 300.808 187.968 300.974C187.808 301.139 187.589 301.234 187.359 301.24C187.331 301.24 187.304 301.239 187.276 301.237C186.87 301.207 186.533 300.801 186.528 300.345L186.516 298.259L184.432 298.307C183.962 298.315 183.548 297.995 183.504 297.591C183.49 297.472 183.502 297.351 183.538 297.237C183.573 297.122 183.633 297.016 183.712 296.926L183.712 296.927ZM206.891 294.648C207.818 294.632 208.719 294.341 209.481 293.812C210.243 293.284 210.83 292.542 211.17 291.679C211.51 290.816 211.586 289.872 211.39 288.966C211.193 288.06 210.732 287.233 210.065 286.589C209.398 285.945 208.555 285.513 207.643 285.348C206.731 285.183 205.79 285.293 204.94 285.662C204.09 286.032 203.368 286.645 202.867 287.425C202.365 288.205 202.106 289.116 202.122 290.043C202.144 291.286 202.658 292.469 203.553 293.333C204.447 294.197 205.648 294.669 206.891 294.648ZM206.782 288.399C207.091 288.393 207.394 288.48 207.654 288.647C207.914 288.814 208.119 289.055 208.242 289.338C208.365 289.621 208.401 289.935 208.347 290.239C208.292 290.543 208.148 290.824 207.933 291.046C207.718 291.269 207.442 291.422 207.14 291.488C206.838 291.553 206.524 291.528 206.236 291.415C205.949 291.302 205.701 291.106 205.525 290.852C205.349 290.598 205.252 290.297 205.247 289.988C205.24 289.574 205.398 289.174 205.686 288.876C205.973 288.578 206.367 288.406 206.782 288.399V288.399ZM208.596 305.604C208.82 305.817 209.119 305.933 209.428 305.927C209.738 305.92 210.032 305.792 210.247 305.57C210.462 305.347 210.58 305.049 210.577 304.74C210.573 304.431 210.447 304.136 210.227 303.919L208.685 302.43L210.174 300.889C210.387 300.664 210.502 300.365 210.495 300.056C210.488 299.746 210.359 299.453 210.136 299.238C209.914 299.023 209.615 298.905 209.306 298.91C208.997 298.914 208.702 299.04 208.485 299.261L206.998 300.801L205.458 299.314C205.234 299.101 204.935 298.985 204.626 298.991C204.317 298.998 204.023 299.126 203.808 299.348C203.593 299.571 203.474 299.869 203.478 300.178C203.481 300.487 203.607 300.782 203.827 300.999L205.369 302.488L203.88 304.029C203.668 304.254 203.552 304.553 203.559 304.863C203.567 305.172 203.695 305.466 203.918 305.68C204.141 305.895 204.439 306.013 204.748 306.008C205.057 306.004 205.352 305.878 205.569 305.657L207.056 304.117L208.596 305.604ZM175.602 307.012L180.668 314.331L180.85 324.794C180.873 326.037 181.388 327.22 182.282 328.083C183.176 328.946 184.376 329.42 185.619 329.399L187.181 329.372C187.49 329.366 187.789 329.27 188.043 329.094V329.094L188.045 329.093L188.046 329.092L190.456 327.424C192.23 326.192 194.33 325.514 196.49 325.476C198.649 325.438 200.772 326.043 202.588 327.212L205.057 328.797L205.064 328.786C205.32 328.956 205.621 329.046 205.928 329.045L207.491 329.018C208.733 328.995 209.916 328.48 210.779 327.586C211.643 326.692 212.116 325.492 212.096 324.249L211.913 313.786L216.721 306.294C217.556 304.997 217.986 303.481 217.957 301.939L217.636 283.521C217.613 282.278 217.098 281.096 216.204 280.232C215.31 279.369 214.11 278.896 212.867 278.916L178.497 279.516C177.255 279.539 176.072 280.054 175.209 280.948C174.345 281.842 173.872 283.042 173.892 284.285L174.214 302.702C174.239 304.245 174.722 305.745 175.602 307.012V307.012ZM199.082 301.63C199.156 301.44 199.192 301.237 199.189 301.033L198.861 282.286L212.922 282.041C213.336 282.034 213.736 282.191 214.034 282.479C214.332 282.767 214.504 283.161 214.511 283.576L214.833 301.993C214.85 302.919 214.592 303.828 214.091 304.607L209.028 312.497C208.861 312.756 208.775 313.059 208.78 313.368L208.971 324.303C208.978 324.718 208.82 325.118 208.533 325.416C208.245 325.714 207.85 325.886 207.436 325.893L206.98 325.901L198.493 303.132L199.082 301.63ZM202.868 323.82C200.871 322.825 198.666 322.321 196.435 322.351C194.33 322.39 192.26 322.904 190.381 323.854L196.785 307.497L202.868 323.82ZM177.017 284.23C177.01 283.816 177.168 283.416 177.456 283.118C177.743 282.82 178.138 282.648 178.552 282.641L195.737 282.341L196.059 300.778L186.08 326.266L185.564 326.275C185.15 326.282 184.75 326.124 184.452 325.836C184.154 325.548 183.982 325.154 183.975 324.74L183.784 313.804C183.779 313.496 183.682 313.196 183.506 312.942L178.171 305.234C177.643 304.473 177.353 303.573 177.338 302.648L177.017 284.23Z" fill="black"/>
<path d="M185.967 117.043C185.82 117.19 185.704 117.364 185.625 117.556C185.547 117.748 185.507 117.954 185.509 118.161C185.511 118.369 185.554 118.574 185.636 118.764C185.718 118.955 185.837 119.127 185.986 119.272C186.135 119.416 186.312 119.529 186.505 119.604C186.699 119.679 186.905 119.715 187.112 119.71C187.32 119.704 187.524 119.657 187.713 119.572C187.902 119.487 188.073 119.365 188.214 119.213L192.819 114.445C193.099 114.145 193.249 113.748 193.239 113.338C193.228 112.929 193.057 112.54 192.762 112.255C192.467 111.97 192.073 111.813 191.663 111.817C191.253 111.82 190.861 111.984 190.572 112.274L185.967 117.043ZM222.19 100.228L217.124 92.9083L216.941 82.4454C216.918 81.2028 216.403 80.0201 215.509 79.1568C214.615 78.2935 213.415 77.8201 212.172 77.8404L210.61 77.8677C210.302 77.8733 210.002 77.97 209.749 78.1458V78.1458L209.747 78.1469L209.745 78.1481L207.336 79.8157C205.561 81.0481 203.461 81.7261 201.302 81.7638C199.142 81.8015 197.02 81.1972 195.204 80.0274L192.734 78.4423L192.727 78.4533C192.471 78.2836 192.17 78.1937 191.863 78.1949L190.301 78.2222C189.058 78.2452 187.875 78.7602 187.012 79.6542C186.149 80.5482 185.675 81.7482 185.696 82.9908L185.878 93.4537L181.071 100.945C180.236 102.242 179.805 103.759 179.834 105.301L180.156 123.719C180.179 124.961 180.694 126.144 181.588 127.007C182.482 127.871 183.682 128.344 184.924 128.324L219.294 127.724C220.537 127.701 221.719 127.186 222.583 126.292C223.446 125.398 223.919 124.198 223.899 122.955L223.578 104.538C223.553 102.995 223.07 101.495 222.19 100.228V100.228ZM198.71 105.609C198.635 105.8 198.599 106.002 198.603 106.207L198.93 124.954L184.87 125.199C184.455 125.206 184.055 125.048 183.757 124.761C183.459 124.473 183.288 124.078 183.28 123.664L182.959 105.247C182.941 104.321 183.199 103.411 183.701 102.633L188.764 94.7432C188.93 94.4836 189.016 94.1805 189.011 93.8721L188.82 82.9363C188.813 82.522 188.971 82.1219 189.259 81.8239C189.547 81.5259 189.941 81.3542 190.355 81.3467L190.811 81.3388L199.298 104.107L198.71 105.609ZM194.923 83.4196C196.92 84.4146 199.126 84.9184 201.356 84.8891C203.462 84.8493 205.531 84.3355 207.41 83.3861L201.007 99.7425L194.923 83.4196ZM220.774 123.01C220.781 123.424 220.624 123.824 220.336 124.122C220.048 124.42 219.654 124.592 219.24 124.599L202.055 124.899L201.733 106.462L211.711 80.974L212.227 80.965C212.641 80.958 213.041 81.1158 213.339 81.4036C213.637 81.6914 213.809 82.0857 213.816 82.4999L214.007 93.4358C214.013 93.7442 214.109 94.0441 214.285 94.2978L219.62 102.006C220.148 102.766 220.438 103.667 220.453 104.592L220.774 123.01ZM213.09 111.881C212.79 111.602 212.393 111.451 211.983 111.462C211.574 111.473 211.185 111.644 210.9 111.938C210.616 112.233 210.458 112.628 210.462 113.038C210.465 113.447 210.63 113.839 210.92 114.129L215.688 118.734C215.988 119.013 216.385 119.164 216.795 119.153C217.204 119.142 217.593 118.971 217.878 118.676C218.162 118.382 218.32 117.987 218.316 117.577C218.313 117.168 218.148 116.776 217.859 116.486L213.09 111.881Z" fill="black"/>
<mask id="path-3-inside-1" fill="white">
<path d="M315.626 238.456L324.717 219.281C321.968 217.365 319.998 213.053 319.91 207.986C319.821 202.918 321.64 198.54 324.32 196.53L314.565 177.684C314.161 176.919 313.219 176.623 312.454 177.018L301.371 182.798C300.607 183.202 300.311 184.145 300.705 184.909L303.506 190.389C304.032 191.415 303.301 192.639 302.139 192.659L277.378 193.091C275.649 193.121 274.277 194.542 274.308 196.27L274.744 221.266C274.774 222.995 276.195 224.367 277.923 224.336L302.695 223.904C303.847 223.884 304.629 225.081 304.14 226.125L301.532 231.699C301.154 232.477 301.483 233.409 302.271 233.786L313.539 239.186C314.317 239.563 315.259 239.234 315.626 238.456V238.456Z"/>
</mask>
<path d="M315.626 238.456L324.717 219.281C321.968 217.365 319.998 213.053 319.91 207.986C319.821 202.918 321.64 198.54 324.32 196.53L314.565 177.684C314.161 176.919 313.219 176.623 312.454 177.018L301.371 182.798C300.607 183.202 300.311 184.145 300.705 184.909L303.506 190.389C304.032 191.415 303.301 192.639 302.139 192.659L277.378 193.091C275.649 193.121 274.277 194.542 274.308 196.27L274.744 221.266C274.774 222.995 276.195 224.367 277.923 224.336L302.695 223.904C303.847 223.884 304.629 225.081 304.14 226.125L301.532 231.699C301.154 232.477 301.483 233.409 302.271 233.786L313.539 239.186C314.317 239.563 315.259 239.234 315.626 238.456V238.456Z" stroke="black" stroke-width="8" mask="url(#path-3-inside-1)"/>
<path d="M134.918 111.701C131.967 111.214 129.135 113.176 128.614 116.19L127.901 120.443C127.326 123.878 124.477 128.811 118.682 129.989L114.457 130.85C111.477 131.462 109.601 134.361 110.197 137.299C110.802 140.259 113.694 142.169 116.647 141.572L120.865 140.704C122.131 140.448 123.402 140.059 124.657 139.561L126.245 141.094L126.509 148.721C126.457 151.277 128.175 153.519 130.699 154.125L137.238 155.24C139.019 155.561 140.88 154.969 142.149 153.655C142.827 152.953 143.302 152.081 143.527 151.131C143.868 149.696 144.23 144.71 136.884 144.444L137.317 142.365C138.714 141.664 140.261 140.062 140.92 138.635L142.983 138.129C143.504 145.461 148.475 144.926 149.897 144.535C150.839 144.277 151.694 143.772 152.372 143.069C153.64 141.755 154.16 139.882 153.784 138.106L152.441 131.61C151.748 129.108 149.441 127.477 146.895 127.611L139.27 127.606L137.682 126.073C138.144 124.808 138.474 123.525 138.693 122.243L139.413 117.997C139.907 115.026 137.889 112.195 134.918 111.701V111.701ZM138.755 147.582C140.011 147.884 140.786 149.149 140.49 150.411C140.394 150.834 140.179 151.197 139.894 151.492C139.338 152.068 138.5 152.345 137.661 152.145L131.427 151.094C130.303 150.823 129.539 149.773 129.636 148.618L129.374 143.098C129.478 143.103 129.568 143.149 129.672 143.154L134.533 143.07L134.484 147.014L138.755 147.582V147.582ZM138.394 135.978C138.426 137.801 136.342 139.903 134.581 139.926L129.624 140.013L128.873 139.287L137.556 130.295L138.307 131.021L138.394 135.978V135.978ZM146.901 130.74C148.052 130.602 149.128 131.33 149.438 132.443L150.706 138.637C150.935 139.468 150.687 140.315 150.131 140.891C149.853 141.179 149.49 141.4 149.071 141.524C147.827 141.871 146.53 141.134 146.184 139.89L145.453 135.641L141.513 135.827L141.428 130.967C141.426 130.87 141.376 130.767 141.361 130.671L146.901 130.74ZM136.324 117.485L135.61 121.724C135.303 123.518 134.739 125.227 133.98 126.842L135.308 128.124L126.625 137.116L125.297 135.834C123.709 136.649 122.028 137.279 120.238 137.642L116.027 138.503C112.957 139.123 112.083 134.532 115.09 133.906L119.302 133.045C124.78 131.927 129.908 127.362 130.977 120.955L131.69 116.716C132.217 113.682 136.836 114.396 136.324 117.485V117.485ZM122.536 124.48C125.535 121.375 125.449 116.431 122.344 113.433C119.239 110.435 114.295 110.521 111.297 113.626C108.298 116.731 108.385 121.674 111.49 124.673C114.595 127.671 119.538 127.585 122.536 124.48ZM113.545 115.797C115.342 113.935 118.311 113.883 120.173 115.681C122.034 117.479 122.086 120.447 120.288 122.309C118.491 124.171 115.522 124.222 113.66 122.425C111.799 120.627 111.747 117.658 113.545 115.797Z" fill="black"/>
<path d="M79.9832 180.205L123.909 174.788L124.284 196.263L101.098 199.486L124.376 201.544L124.751 223.02L80.6628 219.139M79.9832 180.205L74.0092 180.941L74.341 199.953L74.6667 218.612L80.6628 219.139M79.9832 180.205L80.326 199.848L80.6628 219.139" stroke="black" stroke-width="4" stroke-linejoin="round"/>
<path d="M295.564 130.299L266.452 165.331L255.174 154.44L277.277 129.283L252.401 151.762L241.123 140.871L275.117 110.554M295.564 130.299L298.411 126.686L288.428 117.044L278.629 107.582L275.117 110.554M295.564 130.299L285.248 120.337L275.117 110.554" stroke="black" stroke-width="4" stroke-linejoin="round"/>
<path d="M108.008 263.53C108.183 265.246 108.963 266.842 110.2 268.036C111.738 269.522 113.83 270.252 115.967 270.062L111.363 277.698C107.785 283.611 108.73 291.053 113.647 295.802C114.441 296.568 115.33 297.25 116.286 297.821C123.203 301.961 132.251 299.662 136.453 292.71L146.549 275.986C146.65 275.826 146.723 275.652 146.816 275.484C147.687 275.904 148.881 275.876 149.6 275.132L155.027 269.512C155.93 268.578 155.904 267.1 154.984 266.211L133.691 245.65C132.771 244.761 131.195 244.692 130.293 245.626L124.866 251.246C124.093 252.047 124.142 253.317 124.71 254.205L114.592 255.348C110.539 255.806 107.592 259.476 108.008 263.53V263.53ZM132.005 248.366L152.237 267.903L147.895 272.399L127.664 252.862L132.005 248.366ZM114.915 258.444L127.481 257.029L144.397 273.365C144.23 273.706 144.084 274.068 143.883 274.403L133.788 291.127C130.478 296.606 123.355 298.415 117.897 295.154C117.143 294.698 116.444 294.171 115.818 293.568C111.941 289.823 111.196 283.959 114.015 279.296L120.251 268.972L121.875 266.278L118.753 266.63L115.796 266.964C114.528 267.111 113.284 266.684 112.371 265.802C111.654 265.11 111.21 264.192 111.103 263.193C110.855 260.835 112.565 258.713 114.915 258.444V258.444Z" fill="black"/>
<path d="M240.589 285.525L250.075 285.346L260.327 285.146L260.427 288.515C260.902 295.571 267.504 297.114 267.781 297.178L275.874 299.074C276.671 299.26 277.479 299.281 278.278 299.115C280.761 298.581 283.403 296.815 285.554 294.589L285.635 294.504C287.785 292.277 289.465 289.569 289.904 287.061C290.042 286.257 289.993 285.45 289.779 284.66L287.602 276.638C287.528 276.364 285.757 269.82 278.688 269.591L275.318 269.608L275.146 259.356L275.008 249.883C275.001 249.455 274.642 249.109 274.214 249.117L272.654 249.144C272.226 249.151 271.88 249.51 271.887 249.938L272.039 259.424L268.919 259.478L268.767 249.992C268.759 249.564 268.401 249.218 267.973 249.226L266.413 249.253C265.985 249.26 265.639 249.619 265.646 250.047L265.798 259.533L262.691 259.587L262.455 250.033C262.448 249.605 262.09 249.259 261.662 249.267L260.101 249.294C259.673 249.301 259.327 249.66 259.335 250.088L259.885 269.719L240.26 269.841C239.832 269.848 239.486 270.206 239.493 270.634L239.521 272.195C239.528 272.623 239.886 272.969 240.314 272.961L249.871 272.863L249.925 275.97L240.439 276.15C240.011 276.157 239.665 276.515 239.672 276.943L239.7 278.504C239.707 278.932 240.065 279.278 240.493 279.27L249.979 279.091L250.034 282.211L240.548 282.391C240.12 282.398 239.774 282.756 239.781 283.184L239.809 284.745C239.803 285.187 240.154 285.526 240.589 285.525V285.525ZM262.76 262.721L272.073 262.552L272.19 269.642L262.971 269.7L262.76 262.721ZM252.992 272.837L278.59 272.728C283.227 272.875 284.466 276.99 284.585 277.472L286.755 285.486C287.308 287.514 284.886 290.781 283.387 292.334L283.306 292.418C281.807 293.97 278.626 296.505 276.58 296.037L268.495 294.147C268.016 294.038 263.861 292.944 263.545 288.322L263.447 285.106L272.457 284.941L272.551 290.706C272.571 291.839 273.203 292.87 274.2 293.412C275.204 293.947 276.412 293.892 277.368 293.281C278.877 292.309 280.06 291.238 281.064 290.185C282.068 289.145 283.103 287.932 284.029 286.383C284.613 285.413 284.619 284.197 284.05 283.213C283.48 282.228 282.427 281.632 281.288 281.659L253.148 282.164L252.992 272.837ZM281.342 284.766C280.758 285.75 279.908 286.883 278.83 288.014C277.744 289.138 276.634 290.02 275.671 290.638L275.577 284.873L281.342 284.766V284.766Z" fill="black"/>
<path d="M351.662 269.24C352.904 269.496 354.213 268.962 354.854 267.859C355.065 267.502 355.199 267.105 355.246 266.693C355.293 266.281 355.253 265.864 355.128 265.469C355.004 265.072 354.801 264.706 354.529 264.391C354.258 264.077 353.924 263.822 353.55 263.642L350.336 262.126C350.138 262.032 349.924 261.977 349.705 261.967C349.486 261.956 349.267 261.988 349.061 262.062C348.855 262.136 348.666 262.25 348.504 262.398C348.342 262.546 348.211 262.724 348.119 262.923L348.116 262.929L346.626 266.161C346.453 266.538 346.361 266.947 346.354 267.362C346.347 267.776 346.427 268.188 346.587 268.57C346.747 268.952 346.985 269.297 347.286 269.583C347.586 269.869 347.943 270.089 348.332 270.23C349.531 270.663 350.875 270.231 351.662 269.24ZM348.75 267.667C348.715 267.584 348.697 267.494 348.698 267.403C348.699 267.312 348.719 267.222 348.756 267.14L349.956 264.537L352.543 265.759C352.699 265.833 352.819 265.966 352.877 266.129C352.936 266.291 352.928 266.47 352.856 266.627C352.848 266.646 352.838 266.664 352.827 266.682C352.674 266.946 352.289 267.039 351.98 266.893L350.57 266.215L349.917 267.636C349.768 267.955 349.416 268.129 349.129 268.026C349.044 267.996 348.967 267.949 348.902 267.887C348.836 267.825 348.784 267.75 348.75 267.667L348.75 267.667ZM354.834 251.293C355.128 250.663 355.229 249.96 355.123 249.273C355.017 248.586 354.71 247.945 354.24 247.432C353.77 246.92 353.159 246.558 352.484 246.393C351.808 246.227 351.099 246.266 350.446 246.504C349.792 246.742 349.224 247.168 348.813 247.729C348.402 248.289 348.166 248.96 348.136 249.654C348.106 250.349 348.282 251.037 348.643 251.631C349.003 252.226 349.532 252.7 350.162 252.994C351.007 253.388 351.974 253.43 352.851 253.111C353.727 252.792 354.44 252.138 354.834 251.293ZM350.586 249.312C350.684 249.102 350.842 248.926 351.04 248.806C351.238 248.685 351.468 248.627 351.699 248.637C351.931 248.647 352.154 248.725 352.341 248.863C352.528 249 352.67 249.189 352.749 249.407C352.829 249.625 352.842 249.861 352.787 250.086C352.731 250.311 352.611 250.515 352.44 250.672C352.269 250.828 352.056 250.931 351.826 250.966C351.597 251.001 351.363 250.968 351.153 250.87C350.872 250.738 350.654 250.5 350.548 250.208C350.441 249.916 350.455 249.594 350.586 249.312V249.312ZM362.781 253.746C362.998 253.665 363.175 253.502 363.272 253.291C363.369 253.08 363.379 252.84 363.3 252.622C363.221 252.404 363.059 252.226 362.849 252.127C362.64 252.028 362.399 252.015 362.181 252.093L360.671 252.642L360.121 251.132C360.039 250.915 359.875 250.739 359.665 250.642C359.454 250.545 359.214 250.535 358.996 250.615C358.778 250.694 358.6 250.857 358.501 251.066C358.403 251.276 358.391 251.517 358.468 251.735L359.017 253.244L357.509 253.793C357.292 253.874 357.115 254.038 357.018 254.248C356.921 254.459 356.91 254.699 356.989 254.917C357.069 255.135 357.231 255.313 357.44 255.412C357.65 255.511 357.89 255.524 358.109 255.447L359.619 254.897L360.169 256.407C360.25 256.624 360.414 256.801 360.625 256.897C360.836 256.994 361.076 257.004 361.294 256.924C361.512 256.845 361.689 256.683 361.788 256.473C361.887 256.263 361.899 256.023 361.821 255.804L361.272 254.295L362.781 253.746ZM352.882 276.45L359.482 275.442L366.595 278.759C367.44 279.152 368.406 279.193 369.282 278.874C370.158 278.556 370.872 277.902 371.267 277.058L371.762 275.996C371.859 275.786 371.893 275.552 371.858 275.324V275.324L371.858 275.322L371.857 275.321L371.525 273.148C371.278 271.547 371.511 269.909 372.196 268.44C372.881 266.972 373.986 265.74 375.371 264.9L377.252 263.757L377.247 263.749C377.445 263.632 377.605 263.459 377.705 263.251L378.2 262.189C378.593 261.344 378.635 260.377 378.316 259.501C377.997 258.625 377.344 257.912 376.5 257.517L369.387 254.2L365.917 248.496C365.317 247.507 364.437 246.718 363.388 246.231L350.867 240.392C350.021 239.999 349.055 239.957 348.179 240.276C347.303 240.595 346.59 241.248 346.195 242.092L335.299 265.458C334.906 266.303 334.864 267.27 335.183 268.146C335.502 269.022 336.155 269.735 337 270.13L349.52 275.969C350.568 276.459 351.739 276.627 352.882 276.45V276.45ZM356.974 258.853C356.87 258.74 356.745 258.649 356.606 258.585L343.862 252.642L348.319 243.083C348.45 242.801 348.688 242.584 348.98 242.477C349.272 242.371 349.594 242.385 349.876 242.516L362.397 248.355C363.027 248.647 363.555 249.12 363.915 249.714L367.569 255.721C367.689 255.919 367.865 256.076 368.075 256.174L375.509 259.641C375.791 259.773 376.009 260.011 376.115 260.302C376.221 260.594 376.207 260.917 376.076 261.198L375.931 261.509L357.793 259.743L356.974 258.853ZM373.177 263.596C371.85 264.615 370.785 265.936 370.071 267.45C369.406 268.882 369.072 270.446 369.094 272.025L360.173 262.33L373.177 263.596ZM337.99 268.006C337.709 267.875 337.491 267.637 337.384 267.345C337.278 267.053 337.292 266.73 337.423 266.449L342.871 254.766L355.405 260.611L369.306 275.717L369.142 276.068C369.011 276.349 368.773 276.567 368.481 276.673C368.189 276.779 367.867 276.766 367.585 276.634L360.151 273.168C359.941 273.07 359.707 273.036 359.478 273.071L352.528 274.134C351.842 274.24 351.14 274.139 350.511 273.845L337.99 268.006Z" fill="black"/>
<path d="M46.5871 151.007C46.6378 151.154 46.7172 151.289 46.8209 151.406C46.9245 151.522 47.0502 151.616 47.1906 151.683C47.3311 151.75 47.4835 151.788 47.6389 151.796C47.7943 151.803 47.9497 151.78 48.0959 151.726C48.2421 151.673 48.3763 151.591 48.4906 151.486C48.6048 151.38 48.6969 151.253 48.7615 151.111C48.826 150.97 48.8617 150.817 48.8664 150.661C48.8712 150.505 48.8449 150.351 48.7892 150.205L47.0887 145.533C46.9786 145.246 46.7602 145.014 46.4806 144.887C46.201 144.759 45.8826 144.747 45.5938 144.852C45.3051 144.957 45.0692 145.171 44.9369 145.449C44.8046 145.726 44.7866 146.044 44.8866 146.335L46.5871 151.007ZM47.1614 121.06L40.5619 122.069L33.4488 118.752C32.6037 118.359 31.6371 118.318 30.7612 118.636C29.8853 118.955 29.1717 119.608 28.7768 120.453L28.2816 121.515C28.184 121.724 28.1506 121.958 28.1858 122.187V122.187L28.1859 122.189L28.1861 122.19L28.5181 124.363C28.7656 125.964 28.5322 127.602 27.8475 129.07C27.1629 130.539 26.0577 131.771 24.6721 132.61L22.7917 133.754L22.7968 133.762C22.5982 133.879 22.4387 134.052 22.3385 134.26L21.8433 135.322C21.4503 136.167 21.4086 137.134 21.7274 138.009C22.0462 138.885 22.6994 139.599 23.5437 139.994L30.6567 143.311L34.1262 149.015C34.726 150.004 35.6066 150.793 36.6558 151.28L49.1768 157.119C50.022 157.512 50.9885 157.553 51.8644 157.235C52.7403 156.916 53.4539 156.263 53.8488 155.418L64.7444 132.053C65.1374 131.207 65.1791 130.241 64.8603 129.365C64.5415 128.489 63.8883 127.775 63.0439 127.381L50.523 121.542C49.4751 121.052 48.3049 120.884 47.1614 121.06V121.06ZM43.0696 138.658C43.1733 138.77 43.2981 138.861 43.437 138.926L56.1819 144.869L51.7246 154.428C51.5931 154.709 51.3552 154.927 51.0632 155.033C50.7712 155.14 50.449 155.126 50.1673 154.995L37.6464 149.156C37.0167 148.864 36.4884 148.39 36.1285 147.797L32.4747 141.79C32.3544 141.592 32.1784 141.434 31.9688 141.336L24.5342 137.87C24.2527 137.738 24.0349 137.5 23.9286 137.208C23.8223 136.916 23.8363 136.594 23.9674 136.312L24.112 136.002L42.2505 137.767L43.0696 138.658ZM26.8666 133.914C28.1938 132.896 29.2585 131.575 29.9722 130.061C30.6375 128.629 30.9716 127.065 30.9495 125.486L39.87 135.18L26.8666 133.914ZM62.0534 129.505C62.335 129.636 62.5528 129.874 62.6591 130.166C62.7653 130.458 62.7514 130.78 62.6202 131.062L57.1724 142.745L44.638 136.9L30.7375 121.794L30.901 121.443C31.0325 121.162 31.2704 120.944 31.5624 120.838C31.8544 120.731 32.1766 120.745 32.4583 120.876L39.8929 124.343C40.1026 124.441 40.3365 124.474 40.5652 124.439L47.5156 123.377C48.2017 123.271 48.9038 123.372 49.5325 123.666L62.0534 129.505ZM52.0253 131.026C51.7384 131.136 51.5062 131.354 51.3788 131.634C51.2514 131.914 51.2388 132.232 51.3439 132.521C51.449 132.81 51.6633 133.045 51.9407 133.178C52.218 133.31 52.5362 133.328 52.8267 133.228L57.4987 131.528C57.7856 131.417 58.0178 131.199 58.1452 130.919C58.2726 130.64 58.2852 130.321 58.1801 130.033C58.075 129.744 57.8607 129.508 57.5833 129.376C57.306 129.243 56.9878 129.225 56.6973 129.325L52.0253 131.026Z" fill="black"/>
<mask id="path-11-inside-2" fill="white">
<path d="M284.828 38.3419L274.891 25.9095C272.696 27.1327 269.142 27.0431 265.697 25.4366C262.251 23.8301 259.898 21.1649 259.424 18.6974L243.513 19.0764C242.865 19.0974 242.355 19.6356 242.37 20.2807L242.622 29.6518C242.643 30.3 243.182 30.8095 243.827 30.7952L248.441 30.7084C249.306 30.6914 249.891 31.5863 249.522 32.3762L241.672 49.2102C241.125 50.3851 241.631 51.777 242.806 52.3249L259.799 60.249C260.974 60.7968 262.366 60.2902 262.914 59.1153L270.767 42.2747C271.132 41.4914 272.197 41.3575 272.739 42.0308L275.639 45.6215C276.04 46.1315 276.776 46.2163 277.289 45.809L284.634 39.9888C285.144 39.5882 285.232 38.8453 284.828 38.3419V38.3419Z"/>
</mask>
<path d="M284.828 38.3419L274.891 25.9095C272.696 27.1327 269.142 27.0431 265.697 25.4366C262.251 23.8301 259.898 21.1649 259.424 18.6974L243.513 19.0764C242.865 19.0974 242.355 19.6356 242.37 20.2807L242.622 29.6518C242.643 30.3 243.182 30.8095 243.827 30.7952L248.441 30.7084C249.306 30.6914 249.891 31.5863 249.522 32.3762L241.672 49.2102C241.125 50.3851 241.631 51.777 242.806 52.3249L259.799 60.249C260.974 60.7968 262.366 60.2902 262.914 59.1153L270.767 42.2747C271.132 41.4914 272.197 41.3575 272.739 42.0308L275.639 45.6215C276.04 46.1315 276.776 46.2163 277.289 45.809L284.634 39.9888C285.144 39.5882 285.232 38.8453 284.828 38.3419V38.3419Z" stroke="black" stroke-width="8" mask="url(#path-11-inside-2)"/>
<path d="M32.3699 254.34C31.0714 256.169 31.4633 258.723 33.3234 260.065L35.9558 261.944C38.0826 263.461 40.4709 267.004 39.3602 271.297L38.5514 274.429C37.9839 276.638 39.3211 278.856 41.4983 279.42C43.6917 279.986 45.9309 278.664 46.499 276.477L47.3009 273.348C47.5441 272.41 47.7002 271.426 47.7769 270.416L49.3323 269.85L54.5605 272.179C56.2666 273.055 58.3427 272.634 59.5806 271.132L62.4823 267.09C63.2842 265.996 63.4971 264.546 63.0287 263.259C62.7782 262.571 62.3469 261.964 61.7804 261.5C60.9248 260.798 57.6829 258.915 55.0887 263.78L53.8294 262.804C53.8159 261.632 53.2448 260.063 52.4992 259.149L52.8367 257.592C57.9509 259.651 59.2239 256.125 59.4282 255.037C59.5638 254.318 59.5041 253.576 59.2536 252.887C58.7852 251.6 57.693 250.634 56.3725 250.304L51.552 249.073C49.6377 248.718 47.7796 249.737 47.0329 251.497L44.5227 256.636L42.9672 257.202C42.2662 256.475 41.5095 255.83 40.7177 255.261L38.0921 253.38C36.2514 252.07 33.6797 252.499 32.3699 254.34V254.34ZM57.8188 263.55C58.4356 262.803 59.5425 262.696 60.2961 263.311C60.5495 263.515 60.7236 263.779 60.8288 264.068C61.0342 264.632 60.9455 265.288 60.5352 265.788L57.7768 269.645C57.2251 270.313 56.2658 270.483 55.5192 270.038L51.7116 268.399C51.7492 268.331 51.8105 268.285 51.848 268.217L53.3889 264.913L56.0318 266.242L57.8188 263.55V263.55ZM49.8782 259.979C51.1174 260.556 51.8489 262.652 51.286 263.847L49.7145 267.217L48.9781 267.485L45.7717 258.675L46.5081 258.407L49.8782 259.979V259.979ZM49.1439 252.522C49.4296 251.701 50.2736 251.214 51.1259 251.372L55.718 252.553C56.3538 252.672 56.8433 253.118 57.0487 253.682C57.1514 253.964 57.1809 254.281 57.1272 254.604C56.9516 255.557 56.0282 256.189 55.0758 256.014L51.9718 255.109L50.8018 257.826L47.4974 256.285C47.4317 256.255 47.346 256.255 47.2759 256.234L49.1439 252.522ZM36.7311 255.294L39.3541 257.168C40.4626 257.965 41.429 258.907 42.2685 259.95L43.5692 259.477L46.7757 268.286L45.4749 268.76C45.5022 270.098 45.3743 271.439 45.0305 272.764L44.2261 275.886C43.6348 278.159 40.2524 277.239 40.8193 275.006L41.6237 271.884C42.6713 267.824 41.28 262.866 37.3125 260.039L34.6895 258.165C32.8174 256.812 34.8171 253.933 36.7311 255.294V255.294ZM36.9135 266.888C35.8062 263.845 32.4455 262.278 29.4034 263.386C26.3613 264.493 24.7942 267.854 25.9014 270.896C27.0087 273.938 30.3694 275.505 33.4115 274.398C36.4535 273.29 38.0207 269.93 36.9135 266.888ZM28.1038 270.094C27.44 268.27 28.3812 266.252 30.205 265.588C32.0289 264.924 34.0472 265.865 34.711 267.689C35.3749 269.513 34.4337 271.531 32.6099 272.195C30.786 272.859 28.7677 271.918 28.1038 270.094Z" fill="black"/>
<path d="M117.993 361.56L128.784 330.169L143.384 336.977L137.932 353.666L146.974 338.651L161.574 345.459L144.463 373.903M117.993 361.56L116.526 365.829L129.45 371.856L142.135 377.771L144.463 373.903M117.993 361.56L131.348 367.787L144.463 373.903" stroke="black" stroke-width="4" stroke-linejoin="round"/>
<path d="M141.137 25.1513L155.181 56.2932L144.131 60.3148L134.44 37.1439L141.414 61.3037L130.365 65.3254L121.105 32.4424M141.137 25.1513L139.638 22.0436L129.856 25.6038L120.256 29.098L121.105 32.4424M141.137 25.1513L131.031 28.8298L121.105 32.4424" stroke="black" stroke-width="4" stroke-linejoin="round"/>
<path d="M254.948 363.74C256.163 364.186 257.495 364.184 258.707 363.743C260.214 363.195 261.394 362.025 261.969 360.522L265.603 366.136C268.412 370.492 273.739 372.302 278.557 370.548C279.335 370.265 280.087 369.89 280.785 369.433C285.851 366.132 287.276 359.277 283.971 354.158L276.017 341.855C275.942 341.734 275.848 341.627 275.766 341.509C276.336 341.06 276.71 340.246 276.444 339.517L274.44 334.011C274.107 333.095 273.102 332.627 272.201 332.955L251.34 340.548C250.438 340.876 249.873 341.915 250.207 342.831L252.211 348.337C252.496 349.121 253.369 349.505 254.154 349.414L251.598 356.611C250.574 359.494 252.079 362.687 254.948 363.74V363.74ZM252.616 342.577L272.438 335.363L274.041 339.768L254.22 346.982L252.616 342.577ZM253.791 357.411L256.969 348.476L273.542 342.444C273.717 342.668 273.913 342.885 274.073 343.131L282.027 355.435C284.633 359.467 283.511 364.864 279.518 367.471C278.962 367.829 278.377 368.127 277.765 368.35C273.966 369.733 269.768 368.307 267.551 364.873L262.643 357.276L261.361 355.295L260.571 357.515L259.824 359.619C259.506 360.522 258.809 361.22 257.914 361.545C257.212 361.801 256.448 361.799 255.739 361.542C254.068 360.935 253.199 359.084 253.791 357.411V357.411Z" fill="black"/>
<path d="M352.326 151.41L355.324 144.957L358.56 137.98L360.863 139.02C365.777 141.02 368.987 137.077 369.121 136.911L373.06 132.079C373.448 131.603 373.727 131.065 373.878 130.472C374.335 128.622 374.013 126.261 373.219 124.079L373.189 123.997C372.395 121.815 371.121 119.793 369.575 118.672C369.079 118.315 368.519 118.082 367.915 117.966L361.792 116.797C361.583 116.756 356.589 115.799 354.111 120.489L353.015 122.766L346.047 119.511L339.616 116.49C339.325 116.354 338.974 116.482 338.838 116.773L338.344 117.834C338.208 118.125 338.336 118.476 338.627 118.611L345.071 121.628L344.082 123.749L337.638 120.733C337.347 120.597 336.996 120.725 336.86 121.016L336.365 122.077C336.23 122.368 336.357 122.719 336.648 122.854L343.093 125.871L342.108 127.983L335.59 125.001C335.299 124.865 334.948 124.993 334.813 125.284L334.318 126.345C334.182 126.636 334.31 126.987 334.601 127.122L348.015 133.206L341.645 146.475C341.509 146.766 341.637 147.117 341.928 147.253L342.989 147.747C343.28 147.883 343.631 147.755 343.766 147.464L346.842 140.99L348.954 141.975L345.957 148.429C345.821 148.72 345.949 149.071 346.24 149.206L347.3 149.701C347.591 149.837 347.942 149.709 348.078 149.418L351.076 142.964L353.197 143.954L350.2 150.407C350.064 150.698 350.192 151.049 350.483 151.185L351.543 151.679C351.839 151.829 352.183 151.704 352.326 151.41V151.41ZM344.243 128.967L347.191 122.633L352.009 124.886L349.017 131.119L344.243 128.967ZM347.85 138.878L356.194 121.586C357.817 118.509 360.998 119.027 361.362 119.105L367.478 120.277C369.027 120.57 370.433 123.277 370.987 124.798L371.017 124.881C371.57 126.402 372.233 129.379 371.245 130.604L367.313 135.434C367.082 135.72 364.978 138.162 361.759 136.855L359.559 135.863L362.41 129.736L366.327 131.568C367.097 131.927 368 131.84 368.693 131.346C369.384 130.845 369.743 130.013 369.646 129.168C369.487 127.83 369.154 126.681 368.774 125.658C368.403 124.64 367.926 123.543 367.186 122.409C366.724 121.697 365.907 121.293 365.056 121.353C364.205 121.413 363.457 121.927 363.101 122.704L354.189 141.839L347.85 138.878ZM365.213 123.689C365.684 124.406 366.169 125.352 366.576 126.45C366.977 127.551 367.207 128.59 367.307 129.442L363.39 127.61L365.213 123.689V123.689Z" fill="black"/>
<mask id="path-17-inside-3" fill="white">
<path d="M256.662 170.528L221.297 153C217.646 158.05 209.563 161.573 200.136 161.573C190.709 161.573 182.626 158.05 178.975 153L143.609 170.528C142.174 171.255 141.593 172.999 142.302 174.434L152.691 195.231C153.418 196.666 155.162 197.248 156.597 196.539L166.878 191.508C168.803 190.563 171.055 191.962 171.055 194.123V240.188C171.055 243.403 173.653 246 176.868 246H223.368C226.583 246 229.18 243.403 229.18 240.188V194.105C229.18 191.962 231.433 190.545 233.358 191.49L243.639 196.521C245.074 197.248 246.817 196.666 247.544 195.213L257.952 174.434C258.679 172.999 258.097 171.237 256.662 170.528V170.528Z"/>
</mask>
<path d="M256.662 170.528L221.297 153C217.646 158.05 209.563 161.573 200.136 161.573C190.709 161.573 182.626 158.05 178.975 153L143.609 170.528C142.174 171.255 141.593 172.999 142.302 174.434L152.691 195.231C153.418 196.666 155.162 197.248 156.597 196.539L166.878 191.508C168.803 190.563 171.055 191.962 171.055 194.123V240.188C171.055 243.403 173.653 246 176.868 246H223.368C226.583 246 229.18 243.403 229.18 240.188V194.105C229.18 191.962 231.433 190.545 233.358 191.49L243.639 196.521C245.074 197.248 246.817 196.666 247.544 195.213L257.952 174.434C258.679 172.999 258.097 171.237 256.662 170.528V170.528Z" stroke="black" stroke-width="8" mask="url(#path-17-inside-3)"/>
</g>
<defs>
<clipPath id="clip0">
<rect width="400" height="400" fill="white"/>
</clipPath>
</defs>
</svg>
