<svg width="400" height="400" viewBox="0 0 400 400" fill="none" xmlns="http://www.w3.org/2000/svg">
<path d="M181.381 129.496L214.421 138.928C219.576 140.393 223.15 145.138 223.15 150.469C223.15 157.088 217.76 162.478 211.141 162.478H189.524C184.72 162.478 180.092 160.955 176.284 158.202C174.527 156.913 172.066 157.323 170.543 158.905L163.865 165.583C161.814 167.633 162.166 170.972 164.451 172.73C171.656 178.237 180.385 181.224 189.582 181.224H190.402V195.284C190.402 197.862 192.511 199.971 195.089 199.971H204.462C207.04 199.971 209.149 197.862 209.149 195.284V181.224H209.969C223.326 181.224 235.921 173.257 240.256 160.603C246.173 143.263 235.98 125.571 219.694 120.885L185.071 110.984C179.916 109.52 176.343 104.774 176.343 99.4435C176.343 92.8237 181.732 87.4341 188.352 87.4341H209.969C214.773 87.4341 219.401 88.9572 223.209 91.7106C224.966 92.9994 227.426 92.5893 228.95 91.0076L235.628 84.3292C237.678 82.2789 237.327 78.9397 235.042 77.1822C227.837 71.734 219.108 68.7463 209.91 68.7463H209.09V54.6866C209.09 52.109 206.981 50 204.404 50H195.03C192.453 50 190.344 52.109 190.344 54.6866V68.7463H188.294C170.367 68.7463 156.015 84.1535 157.714 102.431C158.885 115.378 168.844 125.923 181.381 129.496ZM358.065 245.431C346.524 235.062 329.125 235.12 317.116 244.728L281.029 273.609C279.916 274.487 278.569 274.956 277.104 274.956H252.734C255.429 269.332 256.542 262.83 255.546 256.034C253.203 239.69 238.206 228.09 221.685 228.09H137.21C125.025 228.09 113.191 232.015 103.466 239.338L80.9707 256.21H35.6866C33.109 256.21 31 258.319 31 260.896V270.269C31 272.847 33.109 274.956 35.6866 274.956H87.239L114.714 254.335C121.217 249.473 129.125 246.837 137.21 246.837H223.15C230.941 246.837 237.21 253.105 237.21 260.896C237.21 268.688 230.941 274.956 223.15 274.956H171.598C166.442 274.956 162.224 279.174 162.224 284.329C162.224 289.484 166.442 293.702 171.598 293.702H277.163C282.845 293.702 288.352 291.769 292.804 288.254L328.891 259.432C333.402 255.858 340.608 254.98 345.528 259.432C351.445 264.763 350.977 273.784 345.001 278.53L285.95 325.806C281.498 329.379 275.991 331.254 270.309 331.254H35.6866C33.109 331.254 31 333.363 31 335.94V345.313C31 347.891 33.109 350 35.6866 350H270.309C280.268 350 289.875 346.602 297.608 340.393L356.718 293.117C363.865 287.376 368.141 278.823 368.434 269.684C368.727 260.545 364.919 251.64 358.065 245.431Z" fill="black"/>
</svg>
