<svg width="251" height="200" viewBox="0 0 251 200" fill="none" xmlns="http://www.w3.org/2000/svg">
<mask id="path-1-inside-1" fill="white">
<path d="M246.586 37.6953L170.531 0C162.68 10.8594 145.297 18.4375 125.024 18.4375C104.75 18.4375 87.3673 10.8594 79.5157 0L3.46103 37.6953C0.375092 39.2578 -0.874909 43.0078 0.648529 46.0938L22.9923 90.8203C24.5548 93.9062 28.3048 95.1562 31.3907 93.6328L53.5001 82.8125C57.6407 80.7812 62.4845 83.7891 62.4845 88.4375V187.5C62.4845 194.414 68.0704 200 74.9845 200H174.984C181.899 200 187.484 194.414 187.484 187.5V88.3984C187.484 83.7891 192.328 80.7422 196.469 82.7734L218.578 93.5938C221.664 95.1562 225.414 93.9062 226.977 90.7812L249.359 46.0938C250.922 43.0078 249.672 39.2188 246.586 37.6953V37.6953Z"/>
</mask>
<path d="M246.586 37.6953L170.531 0C162.68 10.8594 145.297 18.4375 125.024 18.4375C104.75 18.4375 87.3673 10.8594 79.5157 0L3.46103 37.6953C0.375092 39.2578 -0.874909 43.0078 0.648529 46.0938L22.9923 90.8203C24.5548 93.9062 28.3048 95.1562 31.3907 93.6328L53.5001 82.8125C57.6407 80.7812 62.4845 83.7891 62.4845 88.4375V187.5C62.4845 194.414 68.0704 200 74.9845 200H174.984C181.899 200 187.484 194.414 187.484 187.5V88.3984C187.484 83.7891 192.328 80.7422 196.469 82.7734L218.578 93.5938C221.664 95.1562 225.414 93.9062 226.977 90.7812L249.359 46.0938C250.922 43.0078 249.672 39.2188 246.586 37.6953V37.6953Z" stroke="white" stroke-width="20" mask="url(#path-1-inside-1)"/>
</svg>
